G75*
%MOIN*%
%OFA0B0*%
%FSLAX25Y25*%
%IPPOS*%
%LPD*%
%AMOC8*
5,1,8,0,0,1.08239X$1,22.5*
%
%ADD10C,0.13780*%
%ADD11R,0.15748X0.18110*%
%ADD12OC8,0.09681*%
%ADD13C,0.07181*%
%ADD14C,0.19181*%
%ADD15OC8,0.07481*%
%ADD16C,0.07481*%
%ADD17R,0.06299X0.07087*%
%ADD18R,0.11811X0.07480*%
%ADD19OC8,0.13581*%
%ADD20C,0.13581*%
%ADD21R,0.05433X0.05315*%
%ADD22R,0.05315X0.05433*%
%ADD23R,0.03937X0.04724*%
%ADD24R,0.06299X0.07480*%
%ADD25C,0.03562*%
%ADD26C,0.03877*%
%ADD27C,0.03956*%
%ADD28OC8,0.08268*%
%ADD29C,0.05906*%
%ADD30C,0.04743*%
%ADD31C,0.03759*%
D10*
X0029059Y0029059D03*
X0029059Y0383390D03*
X0619610Y0383390D03*
X0619610Y0029059D03*
D11*
X0079453Y0292051D03*
D12*
X0024974Y0241628D03*
X0176697Y0275516D03*
X0250535Y0235535D03*
X0344020Y0197563D03*
X0398213Y0235535D03*
X0413705Y0212524D03*
X0471185Y0276697D03*
X0391657Y0319610D03*
X0262524Y0328665D03*
X0249925Y0328665D03*
X0226697Y0164886D03*
X0255831Y0099531D03*
X0359768Y0110555D03*
X0444413Y0029059D03*
X0551106Y0039295D03*
X0623547Y0245594D03*
X0571185Y0390476D03*
X0097809Y0039226D03*
D13*
X0291874Y0031974D02*
X0291874Y0025974D01*
X0301874Y0025974D02*
X0301874Y0031974D01*
X0311874Y0031974D02*
X0311874Y0025974D01*
X0321874Y0025974D02*
X0321874Y0031974D01*
X0331874Y0031974D02*
X0331874Y0025974D01*
X0341874Y0025974D02*
X0341874Y0031974D01*
X0351874Y0031974D02*
X0351874Y0025974D01*
X0361874Y0025974D02*
X0361874Y0031974D01*
X0371874Y0031974D02*
X0371874Y0025974D01*
X0381874Y0025974D02*
X0381874Y0031974D01*
X0391874Y0031974D02*
X0391874Y0025974D01*
X0401874Y0025974D02*
X0401874Y0031974D01*
X0411874Y0031974D02*
X0411874Y0025974D01*
X0421874Y0025974D02*
X0421874Y0031974D01*
X0431874Y0031974D02*
X0431874Y0025974D01*
X0104424Y0304928D02*
X0104424Y0310928D01*
X0094424Y0310928D02*
X0094424Y0304928D01*
X0084424Y0304928D02*
X0084424Y0310928D01*
X0074424Y0310928D02*
X0074424Y0304928D01*
X0081074Y0368579D02*
X0081074Y0374579D01*
X0091074Y0374579D02*
X0091074Y0368579D01*
X0101074Y0368579D02*
X0101074Y0374579D01*
X0111074Y0374579D02*
X0111074Y0368579D01*
X0121074Y0368579D02*
X0121074Y0374579D01*
X0131074Y0374579D02*
X0131074Y0368579D01*
X0335574Y0377624D02*
X0335574Y0383624D01*
X0345574Y0383624D02*
X0345574Y0377624D01*
X0355574Y0377624D02*
X0355574Y0383624D01*
X0365574Y0383624D02*
X0365574Y0377624D01*
X0375574Y0377624D02*
X0375574Y0383624D01*
X0385574Y0383624D02*
X0385574Y0377624D01*
X0395574Y0377624D02*
X0395574Y0383624D01*
X0405574Y0383624D02*
X0405574Y0377624D01*
X0415574Y0377624D02*
X0415574Y0383624D01*
X0425574Y0383624D02*
X0425574Y0377624D01*
D14*
X0606193Y0207356D03*
X0606193Y0169856D03*
X0606193Y0132356D03*
X0606193Y0094856D03*
X0042839Y0091707D03*
X0042839Y0129207D03*
X0042839Y0166707D03*
X0042839Y0204207D03*
D15*
X0095594Y0330752D03*
X0270004Y0029728D03*
D16*
X0270004Y0019728D03*
X0095594Y0340752D03*
D17*
X0320594Y0251106D03*
X0328075Y0251106D03*
D18*
X0079256Y0286539D03*
X0079256Y0297563D03*
D19*
X0110555Y0131382D03*
X0536933Y0135319D03*
D20*
X0536933Y0165319D03*
X0110555Y0161382D03*
D21*
X0227484Y0054945D03*
X0227484Y0048055D03*
X0216067Y0042346D03*
X0216067Y0035457D03*
D22*
X0414984Y0048744D03*
X0421874Y0048744D03*
X0427583Y0046382D03*
X0434472Y0046382D03*
D23*
X0204650Y0018823D03*
X0199531Y0018823D03*
D24*
X0207799Y0124728D03*
X0215673Y0124728D03*
X0421579Y0127878D03*
X0429453Y0127878D03*
D25*
X0438902Y0134571D03*
X0445594Y0134571D03*
X0448350Y0137720D03*
X0448350Y0141657D03*
X0448350Y0145594D03*
X0453469Y0134965D03*
X0457799Y0134965D03*
X0462130Y0134965D03*
X0466461Y0134965D03*
X0470791Y0134965D03*
X0475122Y0134965D03*
X0479453Y0134965D03*
X0483783Y0134965D03*
X0488114Y0134965D03*
X0492445Y0134965D03*
X0496776Y0134965D03*
X0501106Y0134965D03*
X0462130Y0129846D03*
X0462130Y0125122D03*
X0462130Y0120398D03*
X0462130Y0116067D03*
X0458980Y0111736D03*
X0455437Y0108193D03*
X0447563Y0110555D03*
X0445988Y0100713D03*
X0445988Y0096382D03*
X0445988Y0092051D03*
X0445594Y0087720D03*
X0442445Y0084177D03*
X0438902Y0081421D03*
X0438902Y0075909D03*
X0438902Y0069217D03*
X0438902Y0063311D03*
X0445988Y0063311D03*
X0452287Y0061736D03*
X0457799Y0056618D03*
X0461736Y0052287D03*
X0454925Y0047169D03*
X0462524Y0045201D03*
X0462524Y0037327D03*
X0462524Y0029453D03*
X0457012Y0029059D03*
X0462524Y0021579D03*
X0462524Y0013705D03*
X0456618Y0012917D03*
X0442445Y0012917D03*
X0438508Y0023547D03*
X0422760Y0012917D03*
X0403075Y0012917D03*
X0383390Y0012917D03*
X0363705Y0012917D03*
X0344020Y0012917D03*
X0324335Y0012917D03*
X0304650Y0012917D03*
X0284965Y0012524D03*
X0265280Y0012917D03*
X0245594Y0012917D03*
X0236539Y0014492D03*
X0232602Y0014492D03*
X0225909Y0012917D03*
X0218429Y0017642D03*
X0218429Y0023941D03*
X0218429Y0030634D03*
X0210555Y0039689D03*
X0205437Y0034177D03*
X0198744Y0032996D03*
X0198744Y0040870D03*
X0198744Y0048744D03*
X0198744Y0056618D03*
X0198744Y0064492D03*
X0198744Y0072366D03*
X0198744Y0080240D03*
X0198744Y0088114D03*
X0204650Y0090476D03*
X0198744Y0095988D03*
X0198744Y0103862D03*
X0208587Y0106618D03*
X0208587Y0114492D03*
X0204650Y0114492D03*
X0198744Y0111736D03*
X0198744Y0119610D03*
X0198744Y0127484D03*
X0191657Y0130240D03*
X0187327Y0130240D03*
X0182996Y0130240D03*
X0178665Y0130240D03*
X0174335Y0130240D03*
X0170004Y0130240D03*
X0165673Y0130240D03*
X0161343Y0130240D03*
X0157012Y0130240D03*
X0152681Y0130240D03*
X0148350Y0130240D03*
X0201894Y0133783D03*
X0201894Y0138114D03*
X0201894Y0142051D03*
X0203862Y0150319D03*
X0203862Y0159374D03*
X0212130Y0159768D03*
X0202681Y0168823D03*
X0202681Y0173154D03*
X0197957Y0169610D03*
X0193626Y0169610D03*
X0189295Y0169610D03*
X0184965Y0169610D03*
X0180634Y0169610D03*
X0176303Y0169610D03*
X0171972Y0169610D03*
X0167642Y0169610D03*
X0163311Y0169610D03*
X0158980Y0169610D03*
X0154650Y0169610D03*
X0150319Y0169610D03*
X0166854Y0176303D03*
X0166854Y0180240D03*
X0166854Y0188902D03*
X0166854Y0193232D03*
X0166854Y0197563D03*
X0166854Y0206224D03*
X0166854Y0210161D03*
X0182996Y0220398D03*
X0182996Y0224728D03*
X0182996Y0229059D03*
X0182996Y0233390D03*
X0202681Y0216461D03*
X0202681Y0212130D03*
X0202681Y0207799D03*
X0202681Y0203469D03*
X0202681Y0199138D03*
X0202681Y0194807D03*
X0202681Y0190476D03*
X0202681Y0186146D03*
X0202681Y0181815D03*
X0202681Y0177484D03*
X0212130Y0171185D03*
X0239689Y0169217D03*
X0239689Y0173547D03*
X0251894Y0177484D03*
X0255831Y0177484D03*
X0263705Y0177484D03*
X0267642Y0177484D03*
X0271579Y0177484D03*
X0279453Y0177484D03*
X0283390Y0177484D03*
X0297169Y0159374D03*
X0301500Y0159374D03*
X0305831Y0159374D03*
X0310161Y0159374D03*
X0313311Y0153469D03*
X0320004Y0161736D03*
X0320004Y0166461D03*
X0320004Y0171185D03*
X0320004Y0175909D03*
X0320004Y0180634D03*
X0320004Y0188902D03*
X0320004Y0196382D03*
X0320004Y0204650D03*
X0328272Y0204650D03*
X0328272Y0196382D03*
X0328272Y0188902D03*
X0335358Y0186539D03*
X0340083Y0186539D03*
X0344807Y0186539D03*
X0349531Y0186539D03*
X0354256Y0186539D03*
X0358587Y0186539D03*
X0363311Y0186539D03*
X0363311Y0177484D03*
X0367248Y0177484D03*
X0375122Y0177484D03*
X0379059Y0177484D03*
X0382996Y0177484D03*
X0390870Y0177484D03*
X0394807Y0177484D03*
X0404650Y0177878D03*
X0404650Y0181815D03*
X0404650Y0185752D03*
X0404650Y0189689D03*
X0404650Y0193626D03*
X0404650Y0197563D03*
X0404650Y0201500D03*
X0404650Y0205831D03*
X0404650Y0210161D03*
X0426303Y0215280D03*
X0429453Y0216854D03*
X0429453Y0213311D03*
X0429453Y0209768D03*
X0445594Y0207799D03*
X0445594Y0203469D03*
X0445594Y0199138D03*
X0445594Y0194807D03*
X0445594Y0190476D03*
X0445594Y0186146D03*
X0445594Y0181815D03*
X0445594Y0177484D03*
X0445594Y0173154D03*
X0445594Y0168823D03*
X0450713Y0170791D03*
X0455043Y0170791D03*
X0459374Y0170791D03*
X0463705Y0170791D03*
X0468035Y0170791D03*
X0472366Y0170791D03*
X0476697Y0170791D03*
X0481028Y0170791D03*
X0485358Y0170791D03*
X0489689Y0170791D03*
X0494020Y0170791D03*
X0498350Y0170791D03*
X0481815Y0176697D03*
X0481815Y0181028D03*
X0481815Y0189689D03*
X0481815Y0194020D03*
X0481815Y0198350D03*
X0481815Y0207012D03*
X0481815Y0210949D03*
X0458193Y0220791D03*
X0458193Y0225122D03*
X0458193Y0229453D03*
X0458193Y0233783D03*
X0445594Y0216461D03*
X0445594Y0212130D03*
X0423941Y0236146D03*
X0412917Y0244413D03*
X0403075Y0244413D03*
X0393232Y0244413D03*
X0383390Y0244413D03*
X0393626Y0259768D03*
X0393626Y0264098D03*
X0393626Y0268429D03*
X0393626Y0272760D03*
X0393626Y0277091D03*
X0393626Y0281421D03*
X0393626Y0285752D03*
X0393626Y0290083D03*
X0432209Y0298350D03*
X0436539Y0298350D03*
X0444807Y0290083D03*
X0444807Y0285752D03*
X0444807Y0281421D03*
X0444807Y0277091D03*
X0444807Y0272760D03*
X0444807Y0268429D03*
X0444807Y0264098D03*
X0444807Y0259768D03*
X0383390Y0186539D03*
X0413705Y0171579D03*
X0413705Y0166854D03*
X0413705Y0162130D03*
X0413705Y0157799D03*
X0416067Y0153469D03*
X0416067Y0149138D03*
X0410949Y0148744D03*
X0405831Y0148350D03*
X0405043Y0142051D03*
X0400713Y0142051D03*
X0396382Y0142051D03*
X0392051Y0142051D03*
X0387720Y0142051D03*
X0383390Y0142051D03*
X0379059Y0142051D03*
X0374728Y0142051D03*
X0370398Y0142051D03*
X0366067Y0142051D03*
X0361736Y0142051D03*
X0357406Y0142051D03*
X0356224Y0131028D03*
X0359374Y0128665D03*
X0356224Y0126697D03*
X0347957Y0118823D03*
X0347957Y0113311D03*
X0347957Y0107799D03*
X0369610Y0099138D03*
X0373547Y0099138D03*
X0377484Y0099138D03*
X0381421Y0099138D03*
X0385358Y0099138D03*
X0389295Y0099138D03*
X0393232Y0099138D03*
X0391264Y0094020D03*
X0387327Y0094020D03*
X0383390Y0094020D03*
X0379453Y0094020D03*
X0375516Y0094020D03*
X0371579Y0094020D03*
X0383390Y0107799D03*
X0383390Y0111736D03*
X0383390Y0115673D03*
X0383390Y0119610D03*
X0395594Y0117642D03*
X0395594Y0114492D03*
X0395594Y0111343D03*
X0395594Y0094020D03*
X0400319Y0092445D03*
X0405043Y0092445D03*
X0405831Y0087327D03*
X0408980Y0083783D03*
X0412917Y0081421D03*
X0412917Y0075122D03*
X0412917Y0068429D03*
X0412917Y0062524D03*
X0401500Y0062917D03*
X0401500Y0054650D03*
X0392445Y0057012D03*
X0383783Y0054650D03*
X0374335Y0057012D03*
X0374728Y0062917D03*
X0383390Y0062917D03*
X0392445Y0062917D03*
X0365673Y0062917D03*
X0355437Y0062917D03*
X0355831Y0057012D03*
X0366067Y0054650D03*
X0338508Y0057012D03*
X0338508Y0062917D03*
X0327484Y0062917D03*
X0320004Y0062524D03*
X0314492Y0057799D03*
X0304256Y0057799D03*
X0304650Y0051106D03*
X0316854Y0051106D03*
X0325909Y0057012D03*
X0325909Y0041264D03*
X0317248Y0039295D03*
X0307406Y0039295D03*
X0284965Y0051106D03*
X0284571Y0057799D03*
X0275909Y0057799D03*
X0266067Y0057799D03*
X0255831Y0057799D03*
X0246776Y0057799D03*
X0238114Y0057799D03*
X0232209Y0050713D03*
X0229059Y0061343D03*
X0225122Y0061343D03*
X0225122Y0068823D03*
X0225122Y0075516D03*
X0225122Y0082996D03*
X0225122Y0090083D03*
X0229453Y0090083D03*
X0233783Y0090083D03*
X0238114Y0090083D03*
X0242445Y0090083D03*
X0246776Y0090476D03*
X0251106Y0090476D03*
X0255437Y0090476D03*
X0259768Y0090476D03*
X0265280Y0094020D03*
X0269217Y0094020D03*
X0273154Y0094020D03*
X0277484Y0094020D03*
X0281421Y0094020D03*
X0285358Y0094020D03*
X0286933Y0099138D03*
X0282996Y0099138D03*
X0279059Y0099138D03*
X0275122Y0099138D03*
X0271185Y0099138D03*
X0267248Y0099138D03*
X0267248Y0105831D03*
X0267248Y0109768D03*
X0267248Y0113705D03*
X0267248Y0117642D03*
X0243232Y0116067D03*
X0242839Y0131421D03*
X0233390Y0131421D03*
X0223941Y0131421D03*
X0243626Y0142051D03*
X0247957Y0142051D03*
X0252287Y0142051D03*
X0256618Y0142051D03*
X0260949Y0142051D03*
X0265280Y0142051D03*
X0269610Y0142051D03*
X0273941Y0142051D03*
X0278272Y0142051D03*
X0282602Y0142051D03*
X0286933Y0142051D03*
X0291264Y0142051D03*
X0292445Y0131028D03*
X0289295Y0129059D03*
X0292445Y0127091D03*
X0288902Y0119610D03*
X0288902Y0113311D03*
X0288902Y0106618D03*
X0320791Y0115673D03*
X0323941Y0117642D03*
X0327091Y0115673D03*
X0323941Y0113311D03*
X0327091Y0120004D03*
X0323941Y0121972D03*
X0320791Y0120004D03*
X0334965Y0153075D03*
X0338114Y0159374D03*
X0342445Y0159374D03*
X0346776Y0159374D03*
X0351106Y0159374D03*
X0328272Y0161736D03*
X0328272Y0166461D03*
X0328272Y0171185D03*
X0328272Y0175909D03*
X0328272Y0180634D03*
X0328272Y0213311D03*
X0320004Y0213311D03*
X0320004Y0222366D03*
X0328272Y0222366D03*
X0265280Y0244413D03*
X0255437Y0244413D03*
X0245594Y0244413D03*
X0236146Y0244413D03*
X0227484Y0244413D03*
X0216854Y0236146D03*
X0215673Y0216067D03*
X0213705Y0212917D03*
X0211736Y0216067D03*
X0226303Y0194413D03*
X0229846Y0194413D03*
X0233390Y0194413D03*
X0236933Y0194413D03*
X0245594Y0194020D03*
X0245594Y0197957D03*
X0245594Y0201894D03*
X0245594Y0205831D03*
X0245594Y0209768D03*
X0245594Y0190083D03*
X0245594Y0186146D03*
X0239689Y0164886D03*
X0239689Y0160555D03*
X0239689Y0156224D03*
X0239689Y0151894D03*
X0223547Y0114492D03*
X0223547Y0106539D03*
X0219610Y0090476D03*
X0245594Y0051106D03*
X0242051Y0039689D03*
X0240870Y0031421D03*
X0235358Y0031421D03*
X0230634Y0031421D03*
X0254256Y0031815D03*
X0261343Y0039689D03*
X0265280Y0051106D03*
X0281815Y0039689D03*
X0294020Y0057799D03*
X0205437Y0023941D03*
X0198744Y0023941D03*
X0199138Y0013311D03*
X0206224Y0012917D03*
X0186539Y0013311D03*
X0166854Y0013705D03*
X0147169Y0013705D03*
X0127484Y0013705D03*
X0107799Y0013705D03*
X0088114Y0013705D03*
X0068429Y0013705D03*
X0048744Y0013705D03*
X0053469Y0029059D03*
X0046776Y0046776D03*
X0029059Y0053469D03*
X0013705Y0048744D03*
X0013705Y0068429D03*
X0013705Y0088114D03*
X0013705Y0107799D03*
X0013705Y0127484D03*
X0013705Y0143232D03*
X0029059Y0143232D03*
X0068035Y0143232D03*
X0203075Y0259768D03*
X0203075Y0264098D03*
X0203075Y0268429D03*
X0203075Y0272760D03*
X0203075Y0277091D03*
X0203075Y0281421D03*
X0203075Y0285752D03*
X0203075Y0290083D03*
X0171579Y0318823D03*
X0156224Y0318823D03*
X0139295Y0318823D03*
X0123154Y0318823D03*
X0106618Y0318823D03*
X0088114Y0318823D03*
X0078272Y0328665D03*
X0078272Y0339295D03*
X0071185Y0340870D03*
X0066854Y0340870D03*
X0062524Y0340870D03*
X0058193Y0340870D03*
X0058980Y0353469D03*
X0053075Y0359768D03*
X0047169Y0365280D03*
X0029059Y0359374D03*
X0036933Y0349925D03*
X0025909Y0338508D03*
X0017248Y0333783D03*
X0025909Y0327484D03*
X0012917Y0324335D03*
X0013705Y0310161D03*
X0029059Y0309768D03*
X0042051Y0309768D03*
X0042051Y0316461D03*
X0058193Y0316461D03*
X0058193Y0309768D03*
X0066854Y0309768D03*
X0087327Y0343626D03*
X0069217Y0375909D03*
X0075909Y0382602D03*
X0067642Y0384571D03*
X0053862Y0383390D03*
X0048744Y0399531D03*
X0068429Y0399531D03*
X0088114Y0399531D03*
X0098350Y0390083D03*
X0107799Y0399531D03*
X0127484Y0399531D03*
X0147169Y0399531D03*
X0166854Y0399531D03*
X0177484Y0390083D03*
X0186539Y0399531D03*
X0206224Y0399531D03*
X0225909Y0399531D03*
X0245594Y0399531D03*
X0255437Y0390083D03*
X0265280Y0399531D03*
X0284965Y0399531D03*
X0290083Y0385752D03*
X0275122Y0381815D03*
X0255831Y0371579D03*
X0275122Y0371185D03*
X0290083Y0371185D03*
X0299138Y0371185D03*
X0308193Y0376303D03*
X0316854Y0368429D03*
X0320791Y0360161D03*
X0316461Y0355043D03*
X0307012Y0356224D03*
X0299531Y0360161D03*
X0292051Y0354256D03*
X0284965Y0344020D03*
X0304650Y0344020D03*
X0324335Y0344020D03*
X0331028Y0353862D03*
X0344020Y0344020D03*
X0360949Y0354650D03*
X0369610Y0353075D03*
X0383390Y0344020D03*
X0390476Y0353075D03*
X0390476Y0360555D03*
X0390476Y0372366D03*
X0390476Y0388114D03*
X0383390Y0399531D03*
X0403075Y0399531D03*
X0422760Y0399531D03*
X0442445Y0399531D03*
X0451894Y0387327D03*
X0453469Y0375909D03*
X0472760Y0387327D03*
X0491657Y0387327D03*
X0501500Y0375909D03*
X0511343Y0387720D03*
X0521185Y0399531D03*
X0530634Y0387327D03*
X0542445Y0375909D03*
X0546382Y0387327D03*
X0540870Y0399531D03*
X0560555Y0399531D03*
X0580240Y0399531D03*
X0599925Y0399531D03*
X0595594Y0383390D03*
X0585752Y0372760D03*
X0602681Y0367248D03*
X0619610Y0359374D03*
X0604650Y0354256D03*
X0594020Y0350319D03*
X0604256Y0339689D03*
X0590476Y0338114D03*
X0590083Y0329453D03*
X0590083Y0316461D03*
X0590083Y0309374D03*
X0578272Y0309768D03*
X0570398Y0317642D03*
X0560949Y0326303D03*
X0550319Y0337327D03*
X0530634Y0337327D03*
X0510949Y0337327D03*
X0491264Y0337327D03*
X0471579Y0337327D03*
X0451894Y0337327D03*
X0435358Y0337327D03*
X0422760Y0344020D03*
X0412130Y0353075D03*
X0403075Y0344020D03*
X0429059Y0364886D03*
X0436146Y0353075D03*
X0457799Y0361343D03*
X0477878Y0361343D03*
X0497563Y0361343D03*
X0517248Y0361343D03*
X0537327Y0361736D03*
X0557799Y0361343D03*
X0569217Y0361343D03*
X0582996Y0361343D03*
X0578272Y0350713D03*
X0569610Y0349531D03*
X0581028Y0340083D03*
X0574335Y0334177D03*
X0606224Y0316461D03*
X0606224Y0309374D03*
X0614098Y0309374D03*
X0622366Y0309374D03*
X0635752Y0309374D03*
X0635752Y0324335D03*
X0625516Y0332996D03*
X0635752Y0344020D03*
X0623547Y0347169D03*
X0635752Y0363705D03*
X0564492Y0381421D03*
X0563311Y0372760D03*
X0501500Y0399531D03*
X0481815Y0399531D03*
X0462130Y0399531D03*
X0363705Y0399531D03*
X0344020Y0399531D03*
X0324335Y0399531D03*
X0304650Y0399531D03*
X0236146Y0381815D03*
X0235752Y0371579D03*
X0217248Y0371579D03*
X0219217Y0360161D03*
X0197563Y0371579D03*
X0196382Y0381815D03*
X0176303Y0371579D03*
X0182209Y0363705D03*
X0182209Y0353075D03*
X0177878Y0345201D03*
X0177878Y0336539D03*
X0140870Y0347957D03*
X0138114Y0336146D03*
X0160949Y0371579D03*
X0157799Y0381815D03*
X0240476Y0344020D03*
X0265280Y0344020D03*
X0255043Y0290083D03*
X0255043Y0285752D03*
X0255043Y0281421D03*
X0255043Y0277091D03*
X0255043Y0272760D03*
X0255043Y0268429D03*
X0255043Y0264098D03*
X0255043Y0259768D03*
X0429059Y0175516D03*
X0429059Y0170791D03*
X0429059Y0165673D03*
X0413705Y0132406D03*
X0413705Y0125516D03*
X0422760Y0117642D03*
X0422760Y0109768D03*
X0436933Y0109768D03*
X0436933Y0117642D03*
X0433390Y0093626D03*
X0418429Y0093626D03*
X0417917Y0054650D03*
X0435634Y0055831D03*
X0440146Y0046776D03*
X0446839Y0040476D03*
X0446445Y0055043D03*
X0481815Y0013705D03*
X0501500Y0013705D03*
X0521185Y0013705D03*
X0540870Y0013705D03*
X0560555Y0013705D03*
X0580240Y0013705D03*
X0599925Y0013705D03*
X0594807Y0029059D03*
X0601894Y0046776D03*
X0619610Y0053862D03*
X0634965Y0048744D03*
X0634965Y0068429D03*
X0634965Y0088114D03*
X0634965Y0107799D03*
X0634965Y0127484D03*
X0634965Y0146382D03*
X0619610Y0146382D03*
X0599925Y0146382D03*
X0580240Y0146382D03*
X0012917Y0344020D03*
X0012917Y0363705D03*
D26*
X0205043Y0126303D03*
X0205043Y0123154D03*
X0218429Y0123154D03*
X0218429Y0126303D03*
X0419217Y0126303D03*
X0419217Y0129453D03*
X0432209Y0129453D03*
X0432209Y0126303D03*
D27*
X0429846Y0113705D03*
X0455043Y0123547D03*
X0455043Y0127091D03*
X0240870Y0123941D03*
X0240870Y0120398D03*
X0216067Y0110555D03*
D28*
X0424335Y0156618D03*
D29*
X0224335Y0035752D03*
X0220791Y0051500D03*
D30*
X0326579Y0047839D03*
X0358980Y0053075D03*
X0395201Y0051894D03*
X0422366Y0051894D03*
X0612524Y0338508D03*
X0147957Y0344807D03*
X0108193Y0343626D03*
D31*
X0422366Y0095988D03*
X0425909Y0095988D03*
X0212130Y0092839D03*
X0208587Y0092839D03*
M02*
