G75*
%MOIN*%
%OFA0B0*%
%FSLAX25Y25*%
%IPPOS*%
%LPD*%
%AMOC8*
5,1,8,0,0,1.08239X$1,22.5*
%
%ADD10OC8,0.08500*%
%ADD11C,0.06000*%
%ADD12C,0.18000*%
%ADD13OC8,0.06300*%
%ADD14C,0.06300*%
%ADD15R,0.05118X0.05906*%
%ADD16R,0.10630X0.06299*%
%ADD17OC8,0.12400*%
%ADD18C,0.12400*%
%ADD19R,0.04252X0.04134*%
%ADD20R,0.04134X0.04252*%
%ADD21R,0.02756X0.03543*%
%ADD22R,0.05118X0.03937*%
%ADD23R,0.05118X0.06299*%
%ADD24C,0.02381*%
%ADD25C,0.02184*%
%ADD26C,0.01000*%
%ADD27C,0.02696*%
%ADD28C,0.03200*%
%ADD29C,0.02400*%
%ADD30C,0.02775*%
%ADD31C,0.04000*%
%ADD32OC8,0.07087*%
%ADD33C,0.05000*%
%ADD34C,0.02756*%
%ADD35C,0.04724*%
%ADD36C,0.03543*%
%ADD37C,0.03562*%
%ADD38C,0.02165*%
%ADD39C,0.02578*%
%ADD40C,0.01200*%
D10*
X0097809Y0039226D03*
X0255831Y0099531D03*
X0226697Y0164886D03*
X0250535Y0235535D03*
X0176697Y0275516D03*
X0249925Y0328665D03*
X0262524Y0328665D03*
X0391657Y0319610D03*
X0471185Y0276697D03*
X0398213Y0235535D03*
X0413705Y0212524D03*
X0344020Y0197563D03*
X0359768Y0110555D03*
X0444413Y0029059D03*
X0551106Y0039295D03*
X0623547Y0245594D03*
X0571185Y0390476D03*
X0024974Y0241628D03*
D11*
X0074424Y0304928D02*
X0074424Y0310928D01*
X0084424Y0310928D02*
X0084424Y0304928D01*
X0094424Y0304928D02*
X0094424Y0310928D01*
X0104424Y0310928D02*
X0104424Y0304928D01*
X0101074Y0368579D02*
X0101074Y0374579D01*
X0111074Y0374579D02*
X0111074Y0368579D01*
X0121074Y0368579D02*
X0121074Y0374579D01*
X0131074Y0374579D02*
X0131074Y0368579D01*
X0091074Y0368579D02*
X0091074Y0374579D01*
X0081074Y0374579D02*
X0081074Y0368579D01*
X0335574Y0377624D02*
X0335574Y0383624D01*
X0345574Y0383624D02*
X0345574Y0377624D01*
X0355574Y0377624D02*
X0355574Y0383624D01*
X0365574Y0383624D02*
X0365574Y0377624D01*
X0375574Y0377624D02*
X0375574Y0383624D01*
X0385574Y0383624D02*
X0385574Y0377624D01*
X0395574Y0377624D02*
X0395574Y0383624D01*
X0405574Y0383624D02*
X0405574Y0377624D01*
X0415574Y0377624D02*
X0415574Y0383624D01*
X0425574Y0383624D02*
X0425574Y0377624D01*
X0421874Y0031974D02*
X0421874Y0025974D01*
X0431874Y0025974D02*
X0431874Y0031974D01*
X0411874Y0031974D02*
X0411874Y0025974D01*
X0401874Y0025974D02*
X0401874Y0031974D01*
X0391874Y0031974D02*
X0391874Y0025974D01*
X0381874Y0025974D02*
X0381874Y0031974D01*
X0371874Y0031974D02*
X0371874Y0025974D01*
X0361874Y0025974D02*
X0361874Y0031974D01*
X0351874Y0031974D02*
X0351874Y0025974D01*
X0341874Y0025974D02*
X0341874Y0031974D01*
X0331874Y0031974D02*
X0331874Y0025974D01*
X0321874Y0025974D02*
X0321874Y0031974D01*
X0311874Y0031974D02*
X0311874Y0025974D01*
X0301874Y0025974D02*
X0301874Y0031974D01*
X0291874Y0031974D02*
X0291874Y0025974D01*
D12*
X0042839Y0091707D03*
X0042839Y0129207D03*
X0042839Y0166707D03*
X0042839Y0204207D03*
X0606193Y0207356D03*
X0606193Y0169856D03*
X0606193Y0132356D03*
X0606193Y0094856D03*
D13*
X0270004Y0029728D03*
X0095594Y0330752D03*
D14*
X0095594Y0340752D03*
X0270004Y0019728D03*
D15*
X0320594Y0251106D03*
X0328075Y0251106D03*
D16*
X0079256Y0286539D03*
X0079256Y0297563D03*
D17*
X0110555Y0131382D03*
X0536933Y0135319D03*
D18*
X0536933Y0165319D03*
X0110555Y0161382D03*
D19*
X0227484Y0054945D03*
X0227484Y0048055D03*
X0216067Y0042346D03*
X0216067Y0035457D03*
D20*
X0414984Y0048744D03*
X0421874Y0048744D03*
X0427583Y0046382D03*
X0434472Y0046382D03*
D21*
X0204650Y0018823D03*
X0199531Y0018823D03*
D22*
X0397366Y0114492D03*
X0402484Y0114492D03*
D23*
X0421579Y0127878D03*
X0429453Y0127878D03*
X0215673Y0124728D03*
X0207799Y0124728D03*
D24*
X0198744Y0127484D03*
X0191657Y0130240D03*
X0187327Y0130240D03*
X0182996Y0130240D03*
X0178665Y0130240D03*
X0174335Y0130240D03*
X0170004Y0130240D03*
X0165673Y0130240D03*
X0161343Y0130240D03*
X0157012Y0130240D03*
X0152681Y0130240D03*
X0148350Y0130240D03*
X0198744Y0119610D03*
X0204650Y0114492D03*
X0208587Y0114492D03*
X0198744Y0111736D03*
X0198744Y0103862D03*
X0208587Y0106618D03*
X0198744Y0095988D03*
X0198744Y0088114D03*
X0204650Y0090476D03*
X0198744Y0080240D03*
X0198744Y0072366D03*
X0198744Y0064492D03*
X0198744Y0056618D03*
X0198744Y0048744D03*
X0198744Y0040870D03*
X0198744Y0032996D03*
X0205437Y0034177D03*
X0210555Y0039689D03*
X0218429Y0030634D03*
X0218429Y0023941D03*
X0218429Y0017642D03*
X0225909Y0012917D03*
X0232602Y0014492D03*
X0236539Y0014492D03*
X0245594Y0012917D03*
X0265280Y0012917D03*
X0284965Y0012524D03*
X0304650Y0012917D03*
X0324335Y0012917D03*
X0344020Y0012917D03*
X0363705Y0012917D03*
X0383390Y0012917D03*
X0403075Y0012917D03*
X0422760Y0012917D03*
X0438508Y0023547D03*
X0442445Y0012917D03*
X0456618Y0012917D03*
X0462524Y0013705D03*
X0462524Y0021579D03*
X0462524Y0029453D03*
X0457012Y0029059D03*
X0462524Y0037327D03*
X0462524Y0045201D03*
X0454925Y0047169D03*
X0461736Y0052287D03*
X0457799Y0056618D03*
X0452287Y0061736D03*
X0445988Y0063311D03*
X0438902Y0063311D03*
X0438902Y0069217D03*
X0438902Y0075909D03*
X0438902Y0081421D03*
X0442445Y0084177D03*
X0445594Y0087720D03*
X0445988Y0092051D03*
X0445988Y0096382D03*
X0445988Y0100713D03*
X0447563Y0110555D03*
X0455437Y0108193D03*
X0458980Y0111736D03*
X0462130Y0116067D03*
X0462130Y0120398D03*
X0462130Y0125122D03*
X0462130Y0129846D03*
X0462130Y0134965D03*
X0466461Y0134965D03*
X0470791Y0134965D03*
X0475122Y0134965D03*
X0479453Y0134965D03*
X0483783Y0134965D03*
X0488114Y0134965D03*
X0492445Y0134965D03*
X0496776Y0134965D03*
X0501106Y0134965D03*
X0457799Y0134965D03*
X0453469Y0134965D03*
X0448350Y0137720D03*
X0448350Y0141657D03*
X0448350Y0145594D03*
X0445594Y0134571D03*
X0438902Y0134571D03*
X0413705Y0132406D03*
X0413705Y0125516D03*
X0422760Y0117642D03*
X0422760Y0109768D03*
X0436933Y0109768D03*
X0436933Y0117642D03*
X0433390Y0093626D03*
X0418429Y0093626D03*
X0405043Y0092445D03*
X0400319Y0092445D03*
X0395594Y0094020D03*
X0391264Y0094020D03*
X0387327Y0094020D03*
X0383390Y0094020D03*
X0379453Y0094020D03*
X0375516Y0094020D03*
X0371579Y0094020D03*
X0373547Y0099138D03*
X0369610Y0099138D03*
X0377484Y0099138D03*
X0381421Y0099138D03*
X0385358Y0099138D03*
X0389295Y0099138D03*
X0393232Y0099138D03*
X0395594Y0111343D03*
X0395594Y0114492D03*
X0395594Y0117642D03*
X0383390Y0119610D03*
X0383390Y0115673D03*
X0383390Y0111736D03*
X0383390Y0107799D03*
X0356224Y0126697D03*
X0359374Y0128665D03*
X0356224Y0131028D03*
X0357406Y0142051D03*
X0361736Y0142051D03*
X0366067Y0142051D03*
X0370398Y0142051D03*
X0374728Y0142051D03*
X0379059Y0142051D03*
X0383390Y0142051D03*
X0387720Y0142051D03*
X0392051Y0142051D03*
X0396382Y0142051D03*
X0400713Y0142051D03*
X0405043Y0142051D03*
X0405831Y0148350D03*
X0410949Y0148744D03*
X0416067Y0149138D03*
X0416067Y0153469D03*
X0413705Y0157799D03*
X0413705Y0162130D03*
X0413705Y0166854D03*
X0413705Y0171579D03*
X0404650Y0177878D03*
X0404650Y0181815D03*
X0404650Y0185752D03*
X0404650Y0189689D03*
X0404650Y0193626D03*
X0404650Y0197563D03*
X0404650Y0201500D03*
X0404650Y0205831D03*
X0404650Y0210161D03*
X0426303Y0215280D03*
X0429453Y0216854D03*
X0429453Y0213311D03*
X0429453Y0209768D03*
X0445594Y0207799D03*
X0445594Y0203469D03*
X0445594Y0199138D03*
X0445594Y0194807D03*
X0445594Y0190476D03*
X0445594Y0186146D03*
X0445594Y0181815D03*
X0445594Y0177484D03*
X0445594Y0173154D03*
X0445594Y0168823D03*
X0450713Y0170791D03*
X0455043Y0170791D03*
X0459374Y0170791D03*
X0463705Y0170791D03*
X0468035Y0170791D03*
X0472366Y0170791D03*
X0476697Y0170791D03*
X0481028Y0170791D03*
X0485358Y0170791D03*
X0489689Y0170791D03*
X0494020Y0170791D03*
X0498350Y0170791D03*
X0481815Y0176697D03*
X0481815Y0181028D03*
X0481815Y0189689D03*
X0481815Y0194020D03*
X0481815Y0198350D03*
X0481815Y0207012D03*
X0481815Y0210949D03*
X0458193Y0220791D03*
X0458193Y0225122D03*
X0458193Y0229453D03*
X0458193Y0233783D03*
X0445594Y0216461D03*
X0445594Y0212130D03*
X0423941Y0236146D03*
X0412917Y0244413D03*
X0403075Y0244413D03*
X0393232Y0244413D03*
X0383390Y0244413D03*
X0393626Y0259768D03*
X0393626Y0264098D03*
X0393626Y0268429D03*
X0393626Y0272760D03*
X0393626Y0277091D03*
X0393626Y0281421D03*
X0393626Y0285752D03*
X0393626Y0290083D03*
X0432209Y0298350D03*
X0436539Y0298350D03*
X0444807Y0290083D03*
X0444807Y0285752D03*
X0444807Y0281421D03*
X0444807Y0277091D03*
X0444807Y0272760D03*
X0444807Y0268429D03*
X0444807Y0264098D03*
X0444807Y0259768D03*
X0383390Y0186539D03*
X0382996Y0177484D03*
X0379059Y0177484D03*
X0375122Y0177484D03*
X0367248Y0177484D03*
X0363311Y0177484D03*
X0363311Y0186539D03*
X0358587Y0186539D03*
X0354256Y0186539D03*
X0349531Y0186539D03*
X0344807Y0186539D03*
X0340083Y0186539D03*
X0335358Y0186539D03*
X0328272Y0188902D03*
X0328272Y0196382D03*
X0328272Y0204650D03*
X0320004Y0204650D03*
X0320004Y0196382D03*
X0320004Y0188902D03*
X0320004Y0180634D03*
X0320004Y0175909D03*
X0320004Y0171185D03*
X0320004Y0166461D03*
X0320004Y0161736D03*
X0310161Y0159374D03*
X0305831Y0159374D03*
X0301500Y0159374D03*
X0297169Y0159374D03*
X0313311Y0153469D03*
X0328272Y0161736D03*
X0328272Y0166461D03*
X0328272Y0171185D03*
X0328272Y0175909D03*
X0328272Y0180634D03*
X0338114Y0159374D03*
X0342445Y0159374D03*
X0346776Y0159374D03*
X0351106Y0159374D03*
X0334965Y0153075D03*
X0291264Y0142051D03*
X0286933Y0142051D03*
X0282602Y0142051D03*
X0278272Y0142051D03*
X0273941Y0142051D03*
X0269610Y0142051D03*
X0265280Y0142051D03*
X0260949Y0142051D03*
X0256618Y0142051D03*
X0252287Y0142051D03*
X0247957Y0142051D03*
X0243626Y0142051D03*
X0239689Y0151894D03*
X0239689Y0156224D03*
X0239689Y0160555D03*
X0239689Y0164886D03*
X0239689Y0169217D03*
X0239689Y0173547D03*
X0251894Y0177484D03*
X0255831Y0177484D03*
X0263705Y0177484D03*
X0267642Y0177484D03*
X0271579Y0177484D03*
X0279453Y0177484D03*
X0283390Y0177484D03*
X0245594Y0186146D03*
X0245594Y0190083D03*
X0245594Y0194020D03*
X0245594Y0197957D03*
X0245594Y0201894D03*
X0245594Y0205831D03*
X0245594Y0209768D03*
X0236933Y0194413D03*
X0233390Y0194413D03*
X0229846Y0194413D03*
X0226303Y0194413D03*
X0213705Y0212917D03*
X0215673Y0216067D03*
X0211736Y0216067D03*
X0202681Y0216461D03*
X0202681Y0212130D03*
X0202681Y0207799D03*
X0202681Y0203469D03*
X0202681Y0199138D03*
X0202681Y0194807D03*
X0202681Y0190476D03*
X0202681Y0186146D03*
X0202681Y0181815D03*
X0202681Y0177484D03*
X0202681Y0173154D03*
X0202681Y0168823D03*
X0197957Y0169610D03*
X0193626Y0169610D03*
X0189295Y0169610D03*
X0184965Y0169610D03*
X0180634Y0169610D03*
X0176303Y0169610D03*
X0171972Y0169610D03*
X0167642Y0169610D03*
X0163311Y0169610D03*
X0158980Y0169610D03*
X0154650Y0169610D03*
X0150319Y0169610D03*
X0166854Y0176303D03*
X0166854Y0180240D03*
X0166854Y0188902D03*
X0166854Y0193232D03*
X0166854Y0197563D03*
X0166854Y0206224D03*
X0166854Y0210161D03*
X0182996Y0220398D03*
X0182996Y0224728D03*
X0182996Y0229059D03*
X0182996Y0233390D03*
X0203075Y0259768D03*
X0203075Y0264098D03*
X0203075Y0268429D03*
X0203075Y0272760D03*
X0203075Y0277091D03*
X0203075Y0281421D03*
X0203075Y0285752D03*
X0203075Y0290083D03*
X0171579Y0318823D03*
X0156224Y0318823D03*
X0139295Y0318823D03*
X0123154Y0318823D03*
X0106618Y0318823D03*
X0088114Y0318823D03*
X0078272Y0328665D03*
X0078272Y0339295D03*
X0071185Y0340870D03*
X0066854Y0340870D03*
X0062524Y0340870D03*
X0058193Y0340870D03*
X0058980Y0353469D03*
X0053075Y0359768D03*
X0047169Y0365280D03*
X0029059Y0359374D03*
X0036933Y0349925D03*
X0025909Y0338508D03*
X0017248Y0333783D03*
X0025909Y0327484D03*
X0012917Y0324335D03*
X0013705Y0310161D03*
X0029059Y0309768D03*
X0042051Y0309768D03*
X0042051Y0316461D03*
X0058193Y0316461D03*
X0058193Y0309768D03*
X0066854Y0309768D03*
X0087327Y0343626D03*
X0069217Y0375909D03*
X0075909Y0382602D03*
X0067642Y0384571D03*
X0053862Y0383390D03*
X0048744Y0399531D03*
X0068429Y0399531D03*
X0088114Y0399531D03*
X0098350Y0390083D03*
X0107799Y0399531D03*
X0127484Y0399531D03*
X0147169Y0399531D03*
X0166854Y0399531D03*
X0177484Y0390083D03*
X0186539Y0399531D03*
X0206224Y0399531D03*
X0225909Y0399531D03*
X0245594Y0399531D03*
X0255437Y0390083D03*
X0265280Y0399531D03*
X0284965Y0399531D03*
X0290083Y0385752D03*
X0275122Y0381815D03*
X0255831Y0371579D03*
X0275122Y0371185D03*
X0290083Y0371185D03*
X0299138Y0371185D03*
X0308193Y0376303D03*
X0316854Y0368429D03*
X0320791Y0360161D03*
X0316461Y0355043D03*
X0307012Y0356224D03*
X0299531Y0360161D03*
X0292051Y0354256D03*
X0284965Y0344020D03*
X0304650Y0344020D03*
X0324335Y0344020D03*
X0331028Y0353862D03*
X0344020Y0344020D03*
X0360949Y0354650D03*
X0369610Y0353075D03*
X0383390Y0344020D03*
X0390476Y0353075D03*
X0390476Y0360555D03*
X0390476Y0372366D03*
X0390476Y0388114D03*
X0383390Y0399531D03*
X0403075Y0399531D03*
X0422760Y0399531D03*
X0442445Y0399531D03*
X0451894Y0387327D03*
X0453469Y0375909D03*
X0472760Y0387327D03*
X0491657Y0387327D03*
X0501500Y0375909D03*
X0511343Y0387720D03*
X0521185Y0399531D03*
X0530634Y0387327D03*
X0542445Y0375909D03*
X0546382Y0387327D03*
X0540870Y0399531D03*
X0560555Y0399531D03*
X0580240Y0399531D03*
X0599925Y0399531D03*
X0595594Y0383390D03*
X0585752Y0372760D03*
X0602681Y0367248D03*
X0619610Y0359374D03*
X0604650Y0354256D03*
X0594020Y0350319D03*
X0604256Y0339689D03*
X0590476Y0338114D03*
X0590083Y0329453D03*
X0590083Y0316461D03*
X0590083Y0309374D03*
X0578272Y0309768D03*
X0570398Y0317642D03*
X0560949Y0326303D03*
X0550319Y0337327D03*
X0530634Y0337327D03*
X0510949Y0337327D03*
X0491264Y0337327D03*
X0471579Y0337327D03*
X0451894Y0337327D03*
X0435358Y0337327D03*
X0422760Y0344020D03*
X0412130Y0353075D03*
X0403075Y0344020D03*
X0429059Y0364886D03*
X0436146Y0353075D03*
X0457799Y0361343D03*
X0477878Y0361343D03*
X0497563Y0361343D03*
X0517248Y0361343D03*
X0537327Y0361736D03*
X0557799Y0361343D03*
X0569217Y0361343D03*
X0582996Y0361343D03*
X0578272Y0350713D03*
X0569610Y0349531D03*
X0581028Y0340083D03*
X0574335Y0334177D03*
X0606224Y0316461D03*
X0606224Y0309374D03*
X0614098Y0309374D03*
X0622366Y0309374D03*
X0635752Y0309374D03*
X0635752Y0324335D03*
X0625516Y0332996D03*
X0635752Y0344020D03*
X0623547Y0347169D03*
X0635752Y0363705D03*
X0564492Y0381421D03*
X0563311Y0372760D03*
X0501500Y0399531D03*
X0481815Y0399531D03*
X0462130Y0399531D03*
X0363705Y0399531D03*
X0344020Y0399531D03*
X0324335Y0399531D03*
X0304650Y0399531D03*
X0236146Y0381815D03*
X0235752Y0371579D03*
X0217248Y0371579D03*
X0219217Y0360161D03*
X0197563Y0371579D03*
X0196382Y0381815D03*
X0176303Y0371579D03*
X0182209Y0363705D03*
X0182209Y0353075D03*
X0177878Y0345201D03*
X0177878Y0336539D03*
X0140870Y0347957D03*
X0138114Y0336146D03*
X0160949Y0371579D03*
X0157799Y0381815D03*
X0240476Y0344020D03*
X0265280Y0344020D03*
X0255043Y0290083D03*
X0255043Y0285752D03*
X0255043Y0281421D03*
X0255043Y0277091D03*
X0255043Y0272760D03*
X0255043Y0268429D03*
X0255043Y0264098D03*
X0255043Y0259768D03*
X0255437Y0244413D03*
X0245594Y0244413D03*
X0236146Y0244413D03*
X0227484Y0244413D03*
X0216854Y0236146D03*
X0265280Y0244413D03*
X0320004Y0222366D03*
X0328272Y0222366D03*
X0328272Y0213311D03*
X0320004Y0213311D03*
X0390870Y0177484D03*
X0394807Y0177484D03*
X0429059Y0175516D03*
X0429059Y0170791D03*
X0429059Y0165673D03*
X0347957Y0118823D03*
X0347957Y0113311D03*
X0347957Y0107799D03*
X0327091Y0115673D03*
X0323941Y0117642D03*
X0320791Y0115673D03*
X0323941Y0113311D03*
X0327091Y0120004D03*
X0323941Y0121972D03*
X0320791Y0120004D03*
X0292445Y0127091D03*
X0289295Y0129059D03*
X0292445Y0131028D03*
X0288902Y0119610D03*
X0288902Y0113311D03*
X0288902Y0106618D03*
X0286933Y0099138D03*
X0282996Y0099138D03*
X0279059Y0099138D03*
X0275122Y0099138D03*
X0271185Y0099138D03*
X0267248Y0099138D03*
X0267248Y0105831D03*
X0267248Y0109768D03*
X0267248Y0113705D03*
X0267248Y0117642D03*
X0243232Y0116067D03*
X0242839Y0131421D03*
X0233390Y0131421D03*
X0223941Y0131421D03*
X0223547Y0114492D03*
X0223547Y0106539D03*
X0225122Y0090083D03*
X0229453Y0090083D03*
X0233783Y0090083D03*
X0238114Y0090083D03*
X0242445Y0090083D03*
X0246776Y0090476D03*
X0251106Y0090476D03*
X0255437Y0090476D03*
X0259768Y0090476D03*
X0265280Y0094020D03*
X0269217Y0094020D03*
X0273154Y0094020D03*
X0277484Y0094020D03*
X0281421Y0094020D03*
X0285358Y0094020D03*
X0320004Y0062524D03*
X0314492Y0057799D03*
X0304256Y0057799D03*
X0304650Y0051106D03*
X0316854Y0051106D03*
X0325909Y0057012D03*
X0327484Y0062917D03*
X0338508Y0062917D03*
X0338508Y0057012D03*
X0355831Y0057012D03*
X0366067Y0054650D03*
X0365673Y0062917D03*
X0355437Y0062917D03*
X0374728Y0062917D03*
X0383390Y0062917D03*
X0392445Y0062917D03*
X0392445Y0057012D03*
X0383783Y0054650D03*
X0374335Y0057012D03*
X0401500Y0054650D03*
X0401500Y0062917D03*
X0412917Y0062524D03*
X0412917Y0068429D03*
X0412917Y0075122D03*
X0412917Y0081421D03*
X0408980Y0083783D03*
X0405831Y0087327D03*
X0417917Y0054650D03*
X0435634Y0055831D03*
X0440146Y0046776D03*
X0446839Y0040476D03*
X0446445Y0055043D03*
X0481815Y0013705D03*
X0501500Y0013705D03*
X0521185Y0013705D03*
X0540870Y0013705D03*
X0560555Y0013705D03*
X0580240Y0013705D03*
X0599925Y0013705D03*
X0594807Y0029059D03*
X0601894Y0046776D03*
X0619610Y0053862D03*
X0634965Y0048744D03*
X0634965Y0068429D03*
X0634965Y0088114D03*
X0634965Y0107799D03*
X0634965Y0127484D03*
X0634965Y0146382D03*
X0619610Y0146382D03*
X0599925Y0146382D03*
X0580240Y0146382D03*
X0325909Y0041264D03*
X0317248Y0039295D03*
X0307406Y0039295D03*
X0284965Y0051106D03*
X0284571Y0057799D03*
X0275909Y0057799D03*
X0266067Y0057799D03*
X0255831Y0057799D03*
X0246776Y0057799D03*
X0238114Y0057799D03*
X0232209Y0050713D03*
X0229059Y0061343D03*
X0225122Y0061343D03*
X0225122Y0068823D03*
X0225122Y0075516D03*
X0225122Y0082996D03*
X0219610Y0090476D03*
X0245594Y0051106D03*
X0242051Y0039689D03*
X0240870Y0031421D03*
X0235358Y0031421D03*
X0230634Y0031421D03*
X0254256Y0031815D03*
X0261343Y0039689D03*
X0265280Y0051106D03*
X0281815Y0039689D03*
X0294020Y0057799D03*
X0205437Y0023941D03*
X0198744Y0023941D03*
X0199138Y0013311D03*
X0206224Y0012917D03*
X0186539Y0013311D03*
X0166854Y0013705D03*
X0147169Y0013705D03*
X0127484Y0013705D03*
X0107799Y0013705D03*
X0088114Y0013705D03*
X0068429Y0013705D03*
X0048744Y0013705D03*
X0053469Y0029059D03*
X0046776Y0046776D03*
X0029059Y0053469D03*
X0013705Y0048744D03*
X0013705Y0068429D03*
X0013705Y0088114D03*
X0013705Y0107799D03*
X0013705Y0127484D03*
X0013705Y0143232D03*
X0029059Y0143232D03*
X0068035Y0143232D03*
X0201894Y0142051D03*
X0201894Y0138114D03*
X0201894Y0133783D03*
X0203862Y0150319D03*
X0203862Y0159374D03*
X0212130Y0159768D03*
X0212130Y0171185D03*
X0012917Y0344020D03*
X0012917Y0363705D03*
D25*
X0050319Y0317248D03*
X0104650Y0349138D03*
X0127484Y0284965D03*
X0147169Y0284965D03*
X0166854Y0284965D03*
X0186539Y0284965D03*
X0186539Y0265280D03*
X0166854Y0265280D03*
X0147169Y0265280D03*
X0127484Y0265280D03*
X0107799Y0265280D03*
X0107799Y0245594D03*
X0088114Y0245594D03*
X0088114Y0225909D03*
X0107799Y0225909D03*
X0127484Y0225909D03*
X0147169Y0225909D03*
X0166854Y0225909D03*
X0173941Y0206224D03*
X0184571Y0206224D03*
X0193626Y0206224D03*
X0193626Y0194807D03*
X0184571Y0194807D03*
X0173941Y0194807D03*
X0173941Y0182209D03*
X0184571Y0182209D03*
X0193626Y0182209D03*
X0147169Y0186539D03*
X0127484Y0186539D03*
X0107799Y0186539D03*
X0088114Y0186539D03*
X0088114Y0166854D03*
X0088114Y0149531D03*
X0107799Y0149531D03*
X0127484Y0149531D03*
X0147169Y0149531D03*
X0166854Y0149531D03*
X0186539Y0149531D03*
X0127484Y0166854D03*
X0127484Y0206224D03*
X0107799Y0206224D03*
X0088114Y0206224D03*
X0147169Y0206224D03*
X0147169Y0245594D03*
X0127484Y0245594D03*
X0166854Y0245594D03*
X0186539Y0245594D03*
X0217642Y0264886D03*
X0229059Y0264886D03*
X0229059Y0275516D03*
X0217642Y0275516D03*
X0217642Y0284571D03*
X0229059Y0284571D03*
X0241657Y0284571D03*
X0241657Y0275516D03*
X0241657Y0264886D03*
X0271972Y0265280D03*
X0271972Y0255831D03*
X0284965Y0265280D03*
X0294807Y0265280D03*
X0304650Y0265280D03*
X0318035Y0265280D03*
X0330240Y0265280D03*
X0344020Y0265280D03*
X0354650Y0265280D03*
X0363705Y0265280D03*
X0377091Y0265280D03*
X0377091Y0255831D03*
X0377091Y0245594D03*
X0363705Y0245594D03*
X0354256Y0245594D03*
X0344020Y0245594D03*
X0328272Y0244413D03*
X0320004Y0244413D03*
X0304650Y0245594D03*
X0295201Y0245594D03*
X0284965Y0245594D03*
X0272366Y0245594D03*
X0265280Y0225909D03*
X0284965Y0225909D03*
X0284965Y0206224D03*
X0304650Y0206224D03*
X0304650Y0186539D03*
X0284965Y0186539D03*
X0265280Y0186539D03*
X0267248Y0169610D03*
X0255831Y0169610D03*
X0255831Y0160555D03*
X0267248Y0160555D03*
X0267248Y0149925D03*
X0255831Y0149925D03*
X0279846Y0149925D03*
X0279846Y0160555D03*
X0279846Y0169610D03*
X0304650Y0166854D03*
X0344020Y0166854D03*
X0366854Y0169610D03*
X0378272Y0169610D03*
X0390870Y0169610D03*
X0403075Y0166854D03*
X0390870Y0160555D03*
X0390870Y0149925D03*
X0378272Y0149925D03*
X0378272Y0160555D03*
X0366854Y0160555D03*
X0366854Y0149925D03*
X0363705Y0132406D03*
X0371972Y0132406D03*
X0383390Y0132406D03*
X0393626Y0132406D03*
X0403075Y0132406D03*
X0418429Y0118035D03*
X0445988Y0104256D03*
X0451106Y0104650D03*
X0462130Y0107799D03*
X0481815Y0107799D03*
X0501500Y0107799D03*
X0521185Y0107799D03*
X0540870Y0107799D03*
X0560555Y0107799D03*
X0580240Y0107799D03*
X0580240Y0127484D03*
X0560555Y0127484D03*
X0540870Y0127484D03*
X0521185Y0127484D03*
X0501500Y0127484D03*
X0481815Y0127484D03*
X0501500Y0146776D03*
X0521185Y0146776D03*
X0540870Y0146776D03*
X0560555Y0146776D03*
X0560555Y0166854D03*
X0560949Y0186539D03*
X0540870Y0186539D03*
X0521185Y0186539D03*
X0501500Y0186539D03*
X0474728Y0182602D03*
X0464098Y0182602D03*
X0455043Y0182602D03*
X0455043Y0194020D03*
X0464098Y0194020D03*
X0474728Y0194020D03*
X0474728Y0206618D03*
X0464098Y0206618D03*
X0455043Y0206618D03*
X0481815Y0225909D03*
X0501500Y0225909D03*
X0521185Y0225909D03*
X0540870Y0225909D03*
X0560555Y0225909D03*
X0560555Y0206224D03*
X0540870Y0206224D03*
X0521185Y0206224D03*
X0501500Y0206224D03*
X0521185Y0166854D03*
X0422760Y0225909D03*
X0403075Y0225909D03*
X0383390Y0216067D03*
X0383390Y0196382D03*
X0328272Y0231815D03*
X0320004Y0231815D03*
X0265280Y0206224D03*
X0245594Y0225909D03*
X0225909Y0225909D03*
X0255831Y0132012D03*
X0265280Y0132012D03*
X0275516Y0132012D03*
X0284965Y0132012D03*
X0304650Y0107799D03*
X0324335Y0107799D03*
X0324335Y0088114D03*
X0344020Y0088114D03*
X0363705Y0088114D03*
X0383390Y0088114D03*
X0383390Y0068429D03*
X0403075Y0068429D03*
X0363705Y0068429D03*
X0344020Y0068429D03*
X0324335Y0068429D03*
X0304650Y0068429D03*
X0284965Y0068429D03*
X0265280Y0068429D03*
X0245594Y0068429D03*
X0265280Y0088114D03*
X0284965Y0088114D03*
X0304650Y0088114D03*
X0276303Y0029846D03*
X0276303Y0022760D03*
X0186539Y0029059D03*
X0166854Y0029059D03*
X0147169Y0029059D03*
X0127484Y0029059D03*
X0107799Y0029059D03*
X0088114Y0029059D03*
X0068429Y0029059D03*
X0068429Y0048744D03*
X0088114Y0048744D03*
X0107799Y0048744D03*
X0127484Y0048744D03*
X0147169Y0048744D03*
X0166854Y0048744D03*
X0186539Y0048744D03*
X0186539Y0068429D03*
X0166854Y0068429D03*
X0145988Y0068429D03*
X0127484Y0068429D03*
X0107799Y0068429D03*
X0088114Y0068429D03*
X0068429Y0068429D03*
X0048744Y0068429D03*
X0029059Y0068429D03*
X0068429Y0088114D03*
X0088114Y0088114D03*
X0107799Y0088114D03*
X0127484Y0088114D03*
X0147169Y0088114D03*
X0166854Y0088114D03*
X0186539Y0088114D03*
X0186539Y0107799D03*
X0166854Y0107799D03*
X0147169Y0107799D03*
X0127484Y0107799D03*
X0107799Y0107799D03*
X0088114Y0107799D03*
X0068429Y0107799D03*
X0088114Y0127484D03*
X0127878Y0127091D03*
X0407799Y0264886D03*
X0419217Y0264886D03*
X0419217Y0275516D03*
X0407799Y0275516D03*
X0407799Y0284571D03*
X0419217Y0284571D03*
X0431815Y0284571D03*
X0431815Y0275516D03*
X0431815Y0264886D03*
X0462130Y0265280D03*
X0481815Y0265280D03*
X0501500Y0265280D03*
X0521185Y0265280D03*
X0540870Y0265280D03*
X0540870Y0245594D03*
X0521185Y0245594D03*
X0501500Y0245594D03*
X0481815Y0245594D03*
X0462130Y0245594D03*
X0462130Y0284965D03*
X0481815Y0284965D03*
X0501500Y0284965D03*
X0521185Y0284965D03*
X0560555Y0245594D03*
X0598350Y0316854D03*
X0363705Y0344020D03*
X0462130Y0088114D03*
X0481815Y0088114D03*
X0501500Y0088114D03*
X0521185Y0088114D03*
X0540870Y0088114D03*
X0560555Y0088114D03*
X0580240Y0088114D03*
X0580240Y0068429D03*
X0560555Y0068429D03*
X0540870Y0068429D03*
X0521185Y0068429D03*
X0501500Y0068429D03*
X0481815Y0068429D03*
X0462130Y0068429D03*
X0481815Y0048744D03*
X0501500Y0048744D03*
X0521185Y0048744D03*
X0540870Y0048744D03*
X0560555Y0048744D03*
X0580240Y0048744D03*
X0580240Y0029059D03*
X0560555Y0029059D03*
X0540870Y0029059D03*
X0521185Y0029059D03*
X0501500Y0029059D03*
X0481815Y0029059D03*
X0599925Y0068429D03*
X0619610Y0068429D03*
D26*
X0047132Y0015192D02*
X0044214Y0012274D01*
X0200462Y0012274D01*
X0200462Y0016256D01*
X0200372Y0016474D01*
X0200372Y0021171D01*
X0200462Y0021390D01*
X0200462Y0119442D01*
X0200175Y0120136D01*
X0200175Y0121446D01*
X0200462Y0122140D01*
X0200462Y0127767D01*
X0200980Y0129016D01*
X0201936Y0129973D01*
X0203186Y0130491D01*
X0203394Y0130491D01*
X0204148Y0130803D01*
X0205938Y0130803D01*
X0205999Y0130778D01*
X0210935Y0130778D01*
X0211629Y0130491D01*
X0211843Y0130491D01*
X0212537Y0130778D01*
X0217568Y0130778D01*
X0217614Y0130797D01*
X0219245Y0130797D01*
X0219279Y0130783D01*
X0219742Y0130975D01*
X0221053Y0130975D01*
X0222222Y0130491D01*
X0243909Y0130491D01*
X0245158Y0129973D01*
X0246115Y0129016D01*
X0247296Y0127835D01*
X0247813Y0126586D01*
X0247813Y0108304D01*
X0247296Y0107054D01*
X0246339Y0106098D01*
X0245090Y0105580D01*
X0230861Y0105580D01*
X0223979Y0098698D01*
X0223979Y0060601D01*
X0224168Y0060412D01*
X0230829Y0060412D01*
X0230907Y0060440D01*
X0231502Y0060412D01*
X0232098Y0060412D01*
X0232175Y0060380D01*
X0232259Y0060376D01*
X0232797Y0060122D01*
X0233347Y0059894D01*
X0233406Y0059835D01*
X0233482Y0059799D01*
X0233883Y0059359D01*
X0234304Y0058938D01*
X0234336Y0058860D01*
X0236862Y0056081D01*
X0315250Y0056081D01*
X0319855Y0060608D01*
X0320322Y0061075D01*
X0320336Y0061081D01*
X0320347Y0061092D01*
X0320960Y0061340D01*
X0321572Y0061593D01*
X0321587Y0061593D01*
X0321601Y0061599D01*
X0322262Y0061593D01*
X0414242Y0061593D01*
X0414242Y0109592D01*
X0401510Y0109592D01*
X0401434Y0109624D01*
X0399348Y0109624D01*
X0398282Y0110065D01*
X0397467Y0110881D01*
X0397025Y0111947D01*
X0397025Y0117037D01*
X0397467Y0118103D01*
X0398282Y0118919D01*
X0399348Y0119361D01*
X0401434Y0119361D01*
X0401510Y0119392D01*
X0414242Y0119392D01*
X0414242Y0130916D01*
X0414759Y0132166D01*
X0415716Y0133123D01*
X0416965Y0133640D01*
X0417567Y0133640D01*
X0418321Y0133953D01*
X0420899Y0133953D01*
X0420960Y0133928D01*
X0424715Y0133928D01*
X0425408Y0133640D01*
X0425623Y0133640D01*
X0426317Y0133928D01*
X0430072Y0133928D01*
X0430132Y0133953D01*
X0433104Y0133953D01*
X0433303Y0133870D01*
X0433916Y0134124D01*
X0435226Y0134124D01*
X0436395Y0133640D01*
X0457688Y0133640D01*
X0458938Y0133123D01*
X0460119Y0131941D01*
X0461075Y0130985D01*
X0461593Y0129735D01*
X0461593Y0117685D01*
X0461609Y0117053D01*
X0461593Y0117011D01*
X0461593Y0116965D01*
X0461351Y0116381D01*
X0461124Y0115790D01*
X0461093Y0115758D01*
X0461075Y0115716D01*
X0460628Y0115269D01*
X0453612Y0107884D01*
X0453595Y0107842D01*
X0453148Y0107395D01*
X0452712Y0106936D01*
X0452670Y0106917D01*
X0452639Y0106885D01*
X0452054Y0106643D01*
X0451476Y0106386D01*
X0451431Y0106385D01*
X0451389Y0106368D01*
X0450756Y0106368D01*
X0450124Y0106352D01*
X0450081Y0106368D01*
X0439318Y0106368D01*
X0439250Y0106300D01*
X0437747Y0105677D01*
X0437577Y0105677D01*
X0437577Y0061593D01*
X0449420Y0061593D01*
X0450670Y0061075D01*
X0451626Y0060119D01*
X0461075Y0050670D01*
X0461593Y0049420D01*
X0461593Y0012274D01*
X0604455Y0012274D01*
X0601538Y0015192D01*
X0598564Y0020342D01*
X0597025Y0026086D01*
X0597025Y0032032D01*
X0598564Y0037777D01*
X0601538Y0042927D01*
X0605743Y0047132D01*
X0610893Y0050105D01*
X0616637Y0051644D01*
X0622584Y0051644D01*
X0628328Y0050105D01*
X0633478Y0047132D01*
X0636395Y0044214D01*
X0636395Y0301250D01*
X0581089Y0301250D01*
X0580425Y0301244D01*
X0580413Y0301250D01*
X0580398Y0301250D01*
X0579787Y0301503D01*
X0579172Y0301752D01*
X0579162Y0301762D01*
X0579149Y0301767D01*
X0578680Y0302236D01*
X0547682Y0332746D01*
X0329703Y0332746D01*
X0329703Y0270648D01*
X0383927Y0270648D01*
X0383927Y0293515D01*
X0384444Y0294765D01*
X0385401Y0295721D01*
X0386650Y0296239D01*
X0428656Y0296239D01*
X0428118Y0297537D01*
X0428118Y0299164D01*
X0428741Y0300667D01*
X0429892Y0301818D01*
X0431395Y0302441D01*
X0433022Y0302441D01*
X0434374Y0301881D01*
X0435726Y0302441D01*
X0437353Y0302441D01*
X0438856Y0301818D01*
X0440007Y0300667D01*
X0440630Y0299164D01*
X0440630Y0297537D01*
X0440092Y0296239D01*
X0514834Y0296239D01*
X0515459Y0296257D01*
X0515509Y0296239D01*
X0515562Y0296239D01*
X0516139Y0295999D01*
X0516724Y0295778D01*
X0516762Y0295741D01*
X0516812Y0295721D01*
X0517254Y0295279D01*
X0570306Y0245348D01*
X0570355Y0245327D01*
X0570797Y0244886D01*
X0571252Y0244457D01*
X0571274Y0244409D01*
X0571312Y0244371D01*
X0571551Y0243794D01*
X0571807Y0243224D01*
X0571809Y0243171D01*
X0571829Y0243121D01*
X0571829Y0242496D01*
X0571848Y0241872D01*
X0571829Y0241822D01*
X0571829Y0157910D01*
X0571312Y0156661D01*
X0570355Y0155704D01*
X0569105Y0155187D01*
X0443853Y0155187D01*
X0441908Y0153241D01*
X0441908Y0146493D01*
X0441390Y0145243D01*
X0440434Y0144287D01*
X0439184Y0143769D01*
X0410412Y0143769D01*
X0410412Y0139406D01*
X0409894Y0138157D01*
X0408938Y0137200D01*
X0407688Y0136683D01*
X0325233Y0136683D01*
X0324318Y0137062D01*
X0323404Y0136683D01*
X0240981Y0136683D01*
X0239732Y0137200D01*
X0238775Y0138157D01*
X0238257Y0139406D01*
X0238257Y0143769D01*
X0079564Y0143769D01*
X0078314Y0144287D01*
X0077358Y0145243D01*
X0076840Y0146493D01*
X0076840Y0243450D01*
X0076805Y0243550D01*
X0076840Y0244123D01*
X0076840Y0244696D01*
X0076881Y0244794D01*
X0076887Y0244900D01*
X0077138Y0245416D01*
X0077358Y0245946D01*
X0077433Y0246021D01*
X0077480Y0246116D01*
X0077909Y0246497D01*
X0078314Y0246902D01*
X0078412Y0246943D01*
X0133027Y0295316D01*
X0133432Y0295721D01*
X0133531Y0295762D01*
X0133610Y0295832D01*
X0134152Y0296019D01*
X0134682Y0296239D01*
X0134788Y0296239D01*
X0134889Y0296273D01*
X0135461Y0296239D01*
X0262019Y0296239D01*
X0263268Y0295721D01*
X0264225Y0294765D01*
X0264743Y0293515D01*
X0264743Y0270648D01*
X0318966Y0270648D01*
X0318966Y0332746D01*
X0268555Y0332746D01*
X0269674Y0331627D01*
X0269674Y0325704D01*
X0265485Y0321515D01*
X0259562Y0321515D01*
X0256224Y0324853D01*
X0252887Y0321515D01*
X0246964Y0321515D01*
X0242775Y0325704D01*
X0242775Y0331627D01*
X0243894Y0332746D01*
X0180467Y0332746D01*
X0176561Y0328840D01*
X0176561Y0315784D01*
X0176044Y0314535D01*
X0175087Y0313578D01*
X0173838Y0313061D01*
X0109927Y0313061D01*
X0110324Y0312101D01*
X0110324Y0303754D01*
X0109426Y0301585D01*
X0107766Y0299926D01*
X0105598Y0299028D01*
X0103250Y0299028D01*
X0101082Y0299926D01*
X0099424Y0301584D01*
X0097766Y0299926D01*
X0095598Y0299028D01*
X0093250Y0299028D01*
X0091082Y0299926D01*
X0090333Y0300675D01*
X0090333Y0294131D01*
X0089815Y0292881D01*
X0088859Y0291925D01*
X0087609Y0291407D01*
X0071296Y0291407D01*
X0070046Y0291925D01*
X0069090Y0292881D01*
X0068572Y0294131D01*
X0068572Y0301250D01*
X0012274Y0301250D01*
X0012274Y0044214D01*
X0015192Y0047132D01*
X0020342Y0050105D01*
X0026086Y0051644D01*
X0032032Y0051644D01*
X0037777Y0050105D01*
X0042927Y0047132D01*
X0047132Y0042927D01*
X0050105Y0037777D01*
X0051644Y0032032D01*
X0051644Y0026086D01*
X0050105Y0020342D01*
X0047132Y0015192D01*
X0047232Y0015365D02*
X0200462Y0015365D01*
X0200462Y0014367D02*
X0046307Y0014367D01*
X0045308Y0013368D02*
X0200462Y0013368D01*
X0200462Y0012370D02*
X0044310Y0012370D01*
X0047808Y0016364D02*
X0200418Y0016364D01*
X0200372Y0017362D02*
X0048385Y0017362D01*
X0048961Y0018361D02*
X0200372Y0018361D01*
X0200372Y0019359D02*
X0049538Y0019359D01*
X0050109Y0020358D02*
X0200372Y0020358D01*
X0200448Y0021356D02*
X0050377Y0021356D01*
X0050644Y0022355D02*
X0200462Y0022355D01*
X0200462Y0023353D02*
X0050912Y0023353D01*
X0051179Y0024352D02*
X0200462Y0024352D01*
X0200462Y0025350D02*
X0051447Y0025350D01*
X0051644Y0026349D02*
X0200462Y0026349D01*
X0200462Y0027347D02*
X0051644Y0027347D01*
X0051644Y0028346D02*
X0200462Y0028346D01*
X0200462Y0029344D02*
X0051644Y0029344D01*
X0051644Y0030343D02*
X0200462Y0030343D01*
X0200462Y0031341D02*
X0051644Y0031341D01*
X0051562Y0032340D02*
X0200462Y0032340D01*
X0200462Y0033338D02*
X0051294Y0033338D01*
X0051027Y0034337D02*
X0200462Y0034337D01*
X0200462Y0035335D02*
X0050759Y0035335D01*
X0050492Y0036334D02*
X0200462Y0036334D01*
X0200462Y0037332D02*
X0050224Y0037332D01*
X0049785Y0038331D02*
X0200462Y0038331D01*
X0200462Y0039329D02*
X0049208Y0039329D01*
X0048632Y0040328D02*
X0200462Y0040328D01*
X0200462Y0041326D02*
X0048055Y0041326D01*
X0047479Y0042325D02*
X0200462Y0042325D01*
X0200462Y0043323D02*
X0046735Y0043323D01*
X0045736Y0044322D02*
X0200462Y0044322D01*
X0200462Y0045320D02*
X0044738Y0045320D01*
X0043739Y0046319D02*
X0200462Y0046319D01*
X0200462Y0047317D02*
X0042605Y0047317D01*
X0040875Y0048316D02*
X0200462Y0048316D01*
X0200462Y0049314D02*
X0039146Y0049314D01*
X0037000Y0050313D02*
X0200462Y0050313D01*
X0200462Y0051311D02*
X0033274Y0051311D01*
X0024844Y0051311D02*
X0012274Y0051311D01*
X0012274Y0050313D02*
X0021118Y0050313D01*
X0018972Y0049314D02*
X0012274Y0049314D01*
X0012274Y0048316D02*
X0017243Y0048316D01*
X0015513Y0047317D02*
X0012274Y0047317D01*
X0012274Y0046319D02*
X0014379Y0046319D01*
X0013380Y0045320D02*
X0012274Y0045320D01*
X0012274Y0044322D02*
X0012382Y0044322D01*
X0012274Y0052310D02*
X0200462Y0052310D01*
X0200462Y0053309D02*
X0012274Y0053309D01*
X0012274Y0054307D02*
X0200462Y0054307D01*
X0200462Y0055306D02*
X0012274Y0055306D01*
X0012274Y0056304D02*
X0200462Y0056304D01*
X0200462Y0057303D02*
X0012274Y0057303D01*
X0012274Y0058301D02*
X0200462Y0058301D01*
X0200462Y0059300D02*
X0012274Y0059300D01*
X0012274Y0060298D02*
X0200462Y0060298D01*
X0200462Y0061297D02*
X0012274Y0061297D01*
X0012274Y0062295D02*
X0200462Y0062295D01*
X0200462Y0063294D02*
X0012274Y0063294D01*
X0012274Y0064292D02*
X0200462Y0064292D01*
X0200462Y0065291D02*
X0012274Y0065291D01*
X0012274Y0066289D02*
X0200462Y0066289D01*
X0200462Y0067288D02*
X0012274Y0067288D01*
X0012274Y0068286D02*
X0200462Y0068286D01*
X0200462Y0069285D02*
X0012274Y0069285D01*
X0012274Y0070283D02*
X0200462Y0070283D01*
X0200462Y0071282D02*
X0012274Y0071282D01*
X0012274Y0072280D02*
X0200462Y0072280D01*
X0200462Y0073279D02*
X0012274Y0073279D01*
X0012274Y0074277D02*
X0200462Y0074277D01*
X0200462Y0075276D02*
X0012274Y0075276D01*
X0012274Y0076274D02*
X0200462Y0076274D01*
X0200462Y0077273D02*
X0012274Y0077273D01*
X0012274Y0078271D02*
X0200462Y0078271D01*
X0200462Y0079270D02*
X0012274Y0079270D01*
X0012274Y0080268D02*
X0200462Y0080268D01*
X0200462Y0081267D02*
X0012274Y0081267D01*
X0012274Y0082265D02*
X0200462Y0082265D01*
X0200462Y0083264D02*
X0012274Y0083264D01*
X0012274Y0084262D02*
X0200462Y0084262D01*
X0200462Y0085261D02*
X0012274Y0085261D01*
X0012274Y0086259D02*
X0200462Y0086259D01*
X0200462Y0087258D02*
X0012274Y0087258D01*
X0012274Y0088256D02*
X0200462Y0088256D01*
X0200462Y0089255D02*
X0012274Y0089255D01*
X0012274Y0090253D02*
X0200462Y0090253D01*
X0200462Y0091252D02*
X0012274Y0091252D01*
X0012274Y0092250D02*
X0200462Y0092250D01*
X0200462Y0093249D02*
X0012274Y0093249D01*
X0012274Y0094247D02*
X0200462Y0094247D01*
X0200462Y0095246D02*
X0012274Y0095246D01*
X0012274Y0096245D02*
X0200462Y0096245D01*
X0200462Y0097243D02*
X0012274Y0097243D01*
X0012274Y0098242D02*
X0200462Y0098242D01*
X0200462Y0099240D02*
X0012274Y0099240D01*
X0012274Y0100239D02*
X0200462Y0100239D01*
X0200462Y0101237D02*
X0012274Y0101237D01*
X0012274Y0102236D02*
X0200462Y0102236D01*
X0200462Y0103234D02*
X0012274Y0103234D01*
X0012274Y0104233D02*
X0200462Y0104233D01*
X0200462Y0105231D02*
X0012274Y0105231D01*
X0012274Y0106230D02*
X0200462Y0106230D01*
X0200462Y0107228D02*
X0012274Y0107228D01*
X0012274Y0108227D02*
X0200462Y0108227D01*
X0200462Y0109225D02*
X0012274Y0109225D01*
X0012274Y0110224D02*
X0200462Y0110224D01*
X0200462Y0111222D02*
X0012274Y0111222D01*
X0012274Y0112221D02*
X0200462Y0112221D01*
X0200462Y0113219D02*
X0012274Y0113219D01*
X0012274Y0114218D02*
X0200462Y0114218D01*
X0200462Y0115216D02*
X0012274Y0115216D01*
X0012274Y0116215D02*
X0200462Y0116215D01*
X0200462Y0117213D02*
X0012274Y0117213D01*
X0012274Y0118212D02*
X0200462Y0118212D01*
X0200462Y0119210D02*
X0012274Y0119210D01*
X0012274Y0120209D02*
X0200175Y0120209D01*
X0200175Y0121207D02*
X0012274Y0121207D01*
X0012274Y0122206D02*
X0200462Y0122206D01*
X0200462Y0123204D02*
X0012274Y0123204D01*
X0012274Y0124203D02*
X0200462Y0124203D01*
X0200462Y0125201D02*
X0012274Y0125201D01*
X0012274Y0126200D02*
X0200462Y0126200D01*
X0200462Y0127198D02*
X0012274Y0127198D01*
X0012274Y0128197D02*
X0200640Y0128197D01*
X0201159Y0129195D02*
X0012274Y0129195D01*
X0012274Y0130194D02*
X0202470Y0130194D01*
X0203862Y0118698D02*
X0221265Y0118698D01*
X0222491Y0119924D01*
X0222491Y0127091D01*
X0243232Y0127091D01*
X0244413Y0125909D01*
X0244413Y0108980D01*
X0229453Y0108980D01*
X0220579Y0100106D01*
X0220579Y0059193D01*
X0223941Y0055831D01*
X0223958Y0054078D01*
X0223092Y0054944D01*
X0221599Y0055562D01*
X0219983Y0055562D01*
X0219747Y0055464D01*
X0218573Y0056638D01*
X0218573Y0103448D01*
X0222386Y0107261D01*
X0225305Y0107261D01*
X0226371Y0107703D01*
X0227187Y0108519D01*
X0229549Y0110881D01*
X0229991Y0111947D01*
X0229991Y0116047D01*
X0231441Y0117498D01*
X0237860Y0117498D01*
X0238289Y0117320D01*
X0240233Y0117320D01*
X0240256Y0117310D01*
X0241484Y0117310D01*
X0242619Y0117780D01*
X0243487Y0118649D01*
X0243957Y0119784D01*
X0243957Y0121012D01*
X0243948Y0121035D01*
X0243948Y0123304D01*
X0243957Y0123327D01*
X0243957Y0124555D01*
X0243487Y0125690D01*
X0242619Y0126558D01*
X0241484Y0127028D01*
X0240256Y0127028D01*
X0240233Y0127019D01*
X0238289Y0127019D01*
X0237158Y0126550D01*
X0236292Y0125684D01*
X0235824Y0124553D01*
X0235824Y0123298D01*
X0229663Y0123298D01*
X0228597Y0122856D01*
X0225448Y0119707D01*
X0224632Y0118891D01*
X0224191Y0117825D01*
X0224191Y0113725D01*
X0223527Y0113061D01*
X0220608Y0113061D01*
X0219542Y0112620D01*
X0213215Y0106292D01*
X0212773Y0105226D01*
X0212773Y0095807D01*
X0212724Y0095828D01*
X0211535Y0095828D01*
X0210437Y0095373D01*
X0210358Y0095294D01*
X0210280Y0095373D01*
X0209181Y0095828D01*
X0207992Y0095828D01*
X0206893Y0095373D01*
X0206053Y0094532D01*
X0205598Y0093433D01*
X0205598Y0092244D01*
X0205804Y0091746D01*
X0205804Y0052681D01*
X0203862Y0052681D01*
X0203862Y0118698D01*
X0203862Y0118212D02*
X0224351Y0118212D01*
X0224191Y0117213D02*
X0203862Y0117213D01*
X0203862Y0116215D02*
X0224191Y0116215D01*
X0224191Y0115216D02*
X0203862Y0115216D01*
X0203862Y0114218D02*
X0224191Y0114218D01*
X0223685Y0113219D02*
X0203862Y0113219D01*
X0203862Y0112221D02*
X0219143Y0112221D01*
X0218145Y0111222D02*
X0203862Y0111222D01*
X0203862Y0110224D02*
X0217146Y0110224D01*
X0216148Y0109225D02*
X0203862Y0109225D01*
X0203862Y0108227D02*
X0215149Y0108227D01*
X0214151Y0107228D02*
X0203862Y0107228D01*
X0203862Y0106230D02*
X0213189Y0106230D01*
X0212775Y0105231D02*
X0203862Y0105231D01*
X0203862Y0104233D02*
X0212773Y0104233D01*
X0212773Y0103234D02*
X0203862Y0103234D01*
X0203862Y0102236D02*
X0212773Y0102236D01*
X0212773Y0101237D02*
X0203862Y0101237D01*
X0203862Y0100239D02*
X0212773Y0100239D01*
X0212773Y0099240D02*
X0203862Y0099240D01*
X0203862Y0098242D02*
X0212773Y0098242D01*
X0212773Y0097243D02*
X0203862Y0097243D01*
X0203862Y0096245D02*
X0212773Y0096245D01*
X0218573Y0096245D02*
X0220579Y0096245D01*
X0220579Y0097243D02*
X0218573Y0097243D01*
X0218573Y0098242D02*
X0220579Y0098242D01*
X0220579Y0099240D02*
X0218573Y0099240D01*
X0218573Y0100239D02*
X0220711Y0100239D01*
X0221709Y0101237D02*
X0218573Y0101237D01*
X0218573Y0102236D02*
X0222708Y0102236D01*
X0223707Y0103234D02*
X0218573Y0103234D01*
X0219357Y0104233D02*
X0224705Y0104233D01*
X0225704Y0105231D02*
X0220356Y0105231D01*
X0221354Y0106230D02*
X0226702Y0106230D01*
X0227701Y0107228D02*
X0222353Y0107228D01*
X0226895Y0108227D02*
X0228699Y0108227D01*
X0227893Y0109225D02*
X0244413Y0109225D01*
X0244413Y0110224D02*
X0228892Y0110224D01*
X0229690Y0111222D02*
X0244413Y0111222D01*
X0244413Y0112221D02*
X0229991Y0112221D01*
X0229991Y0113219D02*
X0244413Y0113219D01*
X0244413Y0114218D02*
X0229991Y0114218D01*
X0229991Y0115216D02*
X0244413Y0115216D01*
X0244413Y0116215D02*
X0230158Y0116215D01*
X0231157Y0117213D02*
X0244413Y0117213D01*
X0244413Y0118212D02*
X0243050Y0118212D01*
X0243720Y0119210D02*
X0244413Y0119210D01*
X0244413Y0120209D02*
X0243957Y0120209D01*
X0243948Y0121207D02*
X0244413Y0121207D01*
X0244413Y0122206D02*
X0243948Y0122206D01*
X0243948Y0123204D02*
X0244413Y0123204D01*
X0244413Y0124203D02*
X0243957Y0124203D01*
X0243690Y0125201D02*
X0244413Y0125201D01*
X0244123Y0126200D02*
X0242977Y0126200D01*
X0245936Y0129195D02*
X0414242Y0129195D01*
X0414242Y0128197D02*
X0246934Y0128197D01*
X0247560Y0127198D02*
X0414242Y0127198D01*
X0414242Y0126200D02*
X0247813Y0126200D01*
X0247813Y0125201D02*
X0414242Y0125201D01*
X0414242Y0124203D02*
X0247813Y0124203D01*
X0247813Y0123204D02*
X0414242Y0123204D01*
X0414242Y0122206D02*
X0247813Y0122206D01*
X0247813Y0121207D02*
X0414242Y0121207D01*
X0414242Y0120209D02*
X0247813Y0120209D01*
X0247813Y0119210D02*
X0398985Y0119210D01*
X0397575Y0118212D02*
X0247813Y0118212D01*
X0247813Y0117213D02*
X0356314Y0117213D01*
X0356806Y0117705D02*
X0352618Y0113517D01*
X0352618Y0107593D01*
X0356806Y0103405D01*
X0362729Y0103405D01*
X0366918Y0107593D01*
X0366918Y0113517D01*
X0362729Y0117705D01*
X0356806Y0117705D01*
X0355316Y0116215D02*
X0247813Y0116215D01*
X0247813Y0115216D02*
X0354317Y0115216D01*
X0353319Y0114218D02*
X0247813Y0114218D01*
X0247813Y0113219D02*
X0352618Y0113219D01*
X0352618Y0112221D02*
X0247813Y0112221D01*
X0247813Y0111222D02*
X0352618Y0111222D01*
X0352618Y0110224D02*
X0247813Y0110224D01*
X0247813Y0109225D02*
X0352618Y0109225D01*
X0352618Y0108227D02*
X0247781Y0108227D01*
X0247368Y0107228D02*
X0352983Y0107228D01*
X0353982Y0106230D02*
X0259244Y0106230D01*
X0258792Y0106681D02*
X0252869Y0106681D01*
X0248681Y0102493D01*
X0248681Y0096570D01*
X0252869Y0092381D01*
X0258792Y0092381D01*
X0262981Y0096570D01*
X0262981Y0102493D01*
X0258792Y0106681D01*
X0260243Y0105231D02*
X0354980Y0105231D01*
X0355979Y0104233D02*
X0261241Y0104233D01*
X0262240Y0103234D02*
X0414242Y0103234D01*
X0414242Y0102236D02*
X0262981Y0102236D01*
X0262981Y0101237D02*
X0414242Y0101237D01*
X0414242Y0100239D02*
X0262981Y0100239D01*
X0262981Y0099240D02*
X0414242Y0099240D01*
X0414242Y0098242D02*
X0262981Y0098242D01*
X0262981Y0097243D02*
X0414242Y0097243D01*
X0414242Y0096245D02*
X0262655Y0096245D01*
X0261657Y0095246D02*
X0414242Y0095246D01*
X0414242Y0094247D02*
X0260658Y0094247D01*
X0259660Y0093249D02*
X0414242Y0093249D01*
X0414242Y0092250D02*
X0223979Y0092250D01*
X0223979Y0091252D02*
X0414242Y0091252D01*
X0414242Y0090253D02*
X0223979Y0090253D01*
X0223979Y0089255D02*
X0414242Y0089255D01*
X0414242Y0088256D02*
X0223979Y0088256D01*
X0223979Y0087258D02*
X0414242Y0087258D01*
X0414242Y0086259D02*
X0223979Y0086259D01*
X0223979Y0085261D02*
X0414242Y0085261D01*
X0414242Y0084262D02*
X0223979Y0084262D01*
X0223979Y0083264D02*
X0414242Y0083264D01*
X0414242Y0082265D02*
X0223979Y0082265D01*
X0223979Y0081267D02*
X0414242Y0081267D01*
X0414242Y0080268D02*
X0223979Y0080268D01*
X0223979Y0079270D02*
X0414242Y0079270D01*
X0414242Y0078271D02*
X0223979Y0078271D01*
X0223979Y0077273D02*
X0414242Y0077273D01*
X0414242Y0076274D02*
X0223979Y0076274D01*
X0223979Y0075276D02*
X0414242Y0075276D01*
X0414242Y0074277D02*
X0223979Y0074277D01*
X0223979Y0073279D02*
X0414242Y0073279D01*
X0414242Y0072280D02*
X0223979Y0072280D01*
X0223979Y0071282D02*
X0414242Y0071282D01*
X0414242Y0070283D02*
X0223979Y0070283D01*
X0223979Y0069285D02*
X0414242Y0069285D01*
X0414242Y0068286D02*
X0223979Y0068286D01*
X0223979Y0067288D02*
X0414242Y0067288D01*
X0414242Y0066289D02*
X0223979Y0066289D01*
X0223979Y0065291D02*
X0414242Y0065291D01*
X0414242Y0064292D02*
X0223979Y0064292D01*
X0223979Y0063294D02*
X0414242Y0063294D01*
X0414242Y0062295D02*
X0223979Y0062295D01*
X0223979Y0061297D02*
X0320854Y0061297D01*
X0319540Y0060298D02*
X0232423Y0060298D01*
X0233942Y0059300D02*
X0318524Y0059300D01*
X0317508Y0058301D02*
X0234844Y0058301D01*
X0235752Y0057303D02*
X0316493Y0057303D01*
X0315477Y0056304D02*
X0236660Y0056304D01*
X0233880Y0054307D02*
X0223729Y0054307D01*
X0223956Y0054307D01*
X0224235Y0053801D02*
X0223092Y0054944D01*
X0221599Y0055562D01*
X0219983Y0055562D01*
X0219747Y0055464D01*
X0218573Y0056638D01*
X0218573Y0057012D01*
X0231421Y0057012D01*
X0235358Y0052681D01*
X0316642Y0052681D01*
X0322248Y0058193D01*
X0419583Y0058193D01*
X0419583Y0054034D01*
X0419415Y0053866D01*
X0418885Y0052586D01*
X0418885Y0052352D01*
X0418107Y0051574D01*
X0418107Y0045914D01*
X0419103Y0044918D01*
X0423816Y0044918D01*
X0423816Y0044680D01*
X0423576Y0044440D01*
X0399897Y0044440D01*
X0397983Y0046353D01*
X0397983Y0049753D01*
X0398152Y0049922D01*
X0398682Y0051201D01*
X0398682Y0052586D01*
X0398152Y0053866D01*
X0397173Y0054845D01*
X0395893Y0055375D01*
X0394508Y0055375D01*
X0393229Y0054845D01*
X0392250Y0053866D01*
X0391720Y0052586D01*
X0391720Y0051201D01*
X0392250Y0049922D01*
X0392418Y0049753D01*
X0392418Y0044647D01*
X0392842Y0043625D01*
X0393625Y0042842D01*
X0397168Y0039298D01*
X0398191Y0038875D01*
X0425282Y0038875D01*
X0426305Y0039298D01*
X0427087Y0040081D01*
X0429056Y0042050D01*
X0429266Y0042556D01*
X0430354Y0042556D01*
X0431350Y0043552D01*
X0431350Y0049212D01*
X0430354Y0050208D01*
X0429480Y0050208D01*
X0429480Y0051703D01*
X0430586Y0050596D01*
X0430986Y0049631D01*
X0431914Y0048702D01*
X0433127Y0048200D01*
X0441229Y0048200D01*
X0448587Y0040842D01*
X0448587Y0025867D01*
X0443668Y0020948D01*
X0288859Y0020948D01*
X0285121Y0024686D01*
X0285121Y0032157D01*
X0284558Y0033517D01*
X0283517Y0034558D01*
X0282551Y0034958D01*
X0278960Y0038550D01*
X0277747Y0039052D01*
X0226779Y0039052D01*
X0226636Y0039196D01*
X0225143Y0039814D01*
X0223527Y0039814D01*
X0222034Y0039196D01*
X0220891Y0038053D01*
X0220272Y0036560D01*
X0220272Y0034944D01*
X0220891Y0033451D01*
X0222034Y0032308D01*
X0223527Y0031690D01*
X0225143Y0031690D01*
X0226636Y0032308D01*
X0226779Y0032452D01*
X0275724Y0032452D01*
X0277721Y0030454D01*
X0277721Y0022418D01*
X0278285Y0021058D01*
X0284190Y0015152D01*
X0285231Y0014111D01*
X0286591Y0013548D01*
X0445937Y0013548D01*
X0447297Y0014111D01*
X0454383Y0021198D01*
X0455424Y0022239D01*
X0455987Y0023599D01*
X0455987Y0042787D01*
X0455424Y0044147D01*
X0454383Y0045188D01*
X0453832Y0045416D01*
X0444805Y0054443D01*
X0443529Y0054972D01*
X0442148Y0054972D01*
X0441734Y0054800D01*
X0434585Y0054800D01*
X0432353Y0057032D01*
X0432353Y0106992D01*
X0436166Y0110805D01*
X0439085Y0110805D01*
X0440151Y0111246D01*
X0440966Y0112062D01*
X0443722Y0114818D01*
X0444164Y0115884D01*
X0444164Y0118015D01*
X0446796Y0120647D01*
X0452033Y0120647D01*
X0452463Y0120469D01*
X0454406Y0120469D01*
X0454429Y0120460D01*
X0455657Y0120460D01*
X0456792Y0120930D01*
X0457661Y0121798D01*
X0458131Y0122933D01*
X0458131Y0124161D01*
X0458121Y0124184D01*
X0458121Y0126454D01*
X0458131Y0126476D01*
X0458131Y0127705D01*
X0457661Y0128839D01*
X0456792Y0129708D01*
X0455657Y0130178D01*
X0454429Y0130178D01*
X0454406Y0130168D01*
X0452463Y0130168D01*
X0451331Y0129700D01*
X0450465Y0128834D01*
X0449997Y0127703D01*
X0449997Y0126447D01*
X0445018Y0126447D01*
X0443952Y0126006D01*
X0439621Y0121675D01*
X0438805Y0120859D01*
X0438364Y0119793D01*
X0438364Y0117662D01*
X0437307Y0116605D01*
X0434388Y0116605D01*
X0433322Y0116163D01*
X0432506Y0115347D01*
X0427810Y0110651D01*
X0426994Y0109836D01*
X0426553Y0108770D01*
X0426553Y0098957D01*
X0426504Y0098977D01*
X0425315Y0098977D01*
X0424216Y0098522D01*
X0424138Y0098444D01*
X0424059Y0098522D01*
X0422961Y0098977D01*
X0421772Y0098977D01*
X0420673Y0098522D01*
X0419832Y0097681D01*
X0419377Y0096583D01*
X0419377Y0095394D01*
X0419583Y0094896D01*
X0419583Y0056224D01*
X0417642Y0056224D01*
X0417642Y0121847D01*
X0435438Y0121847D01*
X0436665Y0123074D01*
X0436665Y0130240D01*
X0457012Y0130240D01*
X0458193Y0129059D01*
X0458193Y0117642D01*
X0450713Y0109768D01*
X0436539Y0109768D01*
X0434177Y0107406D01*
X0434177Y0056224D01*
X0433160Y0056224D01*
X0432353Y0057032D01*
X0432353Y0058193D01*
X0448744Y0058193D01*
X0458193Y0048744D01*
X0458193Y0011074D01*
X0203862Y0011074D01*
X0203862Y0057012D01*
X0205804Y0057012D01*
X0205804Y0050946D01*
X0206228Y0049924D01*
X0212241Y0043910D01*
X0212241Y0039575D01*
X0213237Y0038580D01*
X0218897Y0038580D01*
X0219893Y0039575D01*
X0219893Y0040450D01*
X0322526Y0040450D01*
X0323549Y0040873D01*
X0324331Y0041656D01*
X0327033Y0044357D01*
X0327271Y0044357D01*
X0328551Y0044887D01*
X0329530Y0045867D01*
X0330060Y0047146D01*
X0330060Y0048531D01*
X0329530Y0049810D01*
X0329048Y0050292D01*
X0356840Y0050292D01*
X0357008Y0050124D01*
X0358288Y0049594D01*
X0359673Y0049594D01*
X0360952Y0050124D01*
X0361931Y0051103D01*
X0362461Y0052382D01*
X0362461Y0053767D01*
X0361931Y0055047D01*
X0360952Y0056026D01*
X0359673Y0056556D01*
X0358288Y0056556D01*
X0357008Y0056026D01*
X0356840Y0055857D01*
X0324569Y0055857D01*
X0323546Y0055434D01*
X0322763Y0054651D01*
X0317670Y0049558D01*
X0231310Y0049558D01*
X0231310Y0050826D01*
X0230314Y0051822D01*
X0224854Y0051822D01*
X0224854Y0052308D01*
X0224235Y0053801D01*
X0224439Y0053309D02*
X0234788Y0053309D01*
X0232972Y0055306D02*
X0222219Y0055306D01*
X0223946Y0055306D01*
X0223468Y0056304D02*
X0218907Y0056304D01*
X0232065Y0056304D01*
X0230825Y0051311D02*
X0319423Y0051311D01*
X0318425Y0050313D02*
X0231310Y0050313D01*
X0224853Y0052310D02*
X0320422Y0052310D01*
X0321420Y0053309D02*
X0317280Y0053309D01*
X0318296Y0054307D02*
X0322419Y0054307D01*
X0322763Y0054651D02*
X0322763Y0054651D01*
X0323417Y0055306D02*
X0319311Y0055306D01*
X0320327Y0056304D02*
X0357680Y0056304D01*
X0360281Y0056304D02*
X0419583Y0056304D01*
X0417642Y0056304D01*
X0417642Y0057303D02*
X0419583Y0057303D01*
X0321342Y0057303D01*
X0329735Y0049314D02*
X0392418Y0049314D01*
X0392418Y0048316D02*
X0330060Y0048316D01*
X0330060Y0047317D02*
X0392418Y0047317D01*
X0392418Y0046319D02*
X0329717Y0046319D01*
X0328984Y0045320D02*
X0392418Y0045320D01*
X0392553Y0044322D02*
X0326997Y0044322D01*
X0325999Y0043323D02*
X0393143Y0043323D01*
X0394141Y0042325D02*
X0325000Y0042325D01*
X0324002Y0041326D02*
X0395140Y0041326D01*
X0396138Y0040328D02*
X0219893Y0040328D01*
X0219647Y0039329D02*
X0222356Y0039329D01*
X0221169Y0038331D02*
X0203862Y0038331D01*
X0203862Y0039329D02*
X0212487Y0039329D01*
X0212241Y0040328D02*
X0203862Y0040328D01*
X0203862Y0041326D02*
X0212241Y0041326D01*
X0212241Y0042325D02*
X0203862Y0042325D01*
X0203862Y0043323D02*
X0212241Y0043323D01*
X0211829Y0044322D02*
X0203862Y0044322D01*
X0203862Y0045320D02*
X0210831Y0045320D01*
X0209832Y0046319D02*
X0203862Y0046319D01*
X0203862Y0047317D02*
X0208834Y0047317D01*
X0207835Y0048316D02*
X0203862Y0048316D01*
X0203862Y0049314D02*
X0206837Y0049314D01*
X0206066Y0050313D02*
X0203862Y0050313D01*
X0203862Y0051311D02*
X0205804Y0051311D01*
X0205804Y0052310D02*
X0203862Y0052310D01*
X0203862Y0053309D02*
X0205804Y0053309D01*
X0203862Y0053309D01*
X0203862Y0054307D02*
X0205804Y0054307D01*
X0203862Y0054307D01*
X0203862Y0055306D02*
X0205804Y0055306D01*
X0203862Y0055306D01*
X0203862Y0056304D02*
X0205804Y0056304D01*
X0203862Y0056304D01*
X0203862Y0057303D02*
X0205804Y0057303D01*
X0205804Y0058301D02*
X0203862Y0058301D01*
X0203862Y0059300D02*
X0205804Y0059300D01*
X0205804Y0060298D02*
X0203862Y0060298D01*
X0203862Y0061297D02*
X0205804Y0061297D01*
X0205804Y0062295D02*
X0203862Y0062295D01*
X0203862Y0063294D02*
X0205804Y0063294D01*
X0205804Y0064292D02*
X0203862Y0064292D01*
X0203862Y0065291D02*
X0205804Y0065291D01*
X0205804Y0066289D02*
X0203862Y0066289D01*
X0203862Y0067288D02*
X0205804Y0067288D01*
X0205804Y0068286D02*
X0203862Y0068286D01*
X0203862Y0069285D02*
X0205804Y0069285D01*
X0205804Y0070283D02*
X0203862Y0070283D01*
X0203862Y0071282D02*
X0205804Y0071282D01*
X0205804Y0072280D02*
X0203862Y0072280D01*
X0203862Y0073279D02*
X0205804Y0073279D01*
X0205804Y0074277D02*
X0203862Y0074277D01*
X0203862Y0075276D02*
X0205804Y0075276D01*
X0205804Y0076274D02*
X0203862Y0076274D01*
X0203862Y0077273D02*
X0205804Y0077273D01*
X0205804Y0078271D02*
X0203862Y0078271D01*
X0203862Y0079270D02*
X0205804Y0079270D01*
X0205804Y0080268D02*
X0203862Y0080268D01*
X0203862Y0081267D02*
X0205804Y0081267D01*
X0205804Y0082265D02*
X0203862Y0082265D01*
X0203862Y0083264D02*
X0205804Y0083264D01*
X0205804Y0084262D02*
X0203862Y0084262D01*
X0203862Y0085261D02*
X0205804Y0085261D01*
X0205804Y0086259D02*
X0203862Y0086259D01*
X0203862Y0087258D02*
X0205804Y0087258D01*
X0205804Y0088256D02*
X0203862Y0088256D01*
X0203862Y0089255D02*
X0205804Y0089255D01*
X0205804Y0090253D02*
X0203862Y0090253D01*
X0203862Y0091252D02*
X0205804Y0091252D01*
X0205598Y0092250D02*
X0203862Y0092250D01*
X0203862Y0093249D02*
X0205598Y0093249D01*
X0205935Y0094247D02*
X0203862Y0094247D01*
X0203862Y0095246D02*
X0206767Y0095246D01*
X0218573Y0095246D02*
X0220579Y0095246D01*
X0220579Y0094247D02*
X0218573Y0094247D01*
X0218573Y0093249D02*
X0220579Y0093249D01*
X0220579Y0092250D02*
X0218573Y0092250D01*
X0218573Y0091252D02*
X0220579Y0091252D01*
X0220579Y0090253D02*
X0218573Y0090253D01*
X0218573Y0089255D02*
X0220579Y0089255D01*
X0220579Y0088256D02*
X0218573Y0088256D01*
X0218573Y0087258D02*
X0220579Y0087258D01*
X0220579Y0086259D02*
X0218573Y0086259D01*
X0218573Y0085261D02*
X0220579Y0085261D01*
X0220579Y0084262D02*
X0218573Y0084262D01*
X0218573Y0083264D02*
X0220579Y0083264D01*
X0220579Y0082265D02*
X0218573Y0082265D01*
X0218573Y0081267D02*
X0220579Y0081267D01*
X0220579Y0080268D02*
X0218573Y0080268D01*
X0218573Y0079270D02*
X0220579Y0079270D01*
X0220579Y0078271D02*
X0218573Y0078271D01*
X0218573Y0077273D02*
X0220579Y0077273D01*
X0220579Y0076274D02*
X0218573Y0076274D01*
X0218573Y0075276D02*
X0220579Y0075276D01*
X0220579Y0074277D02*
X0218573Y0074277D01*
X0218573Y0073279D02*
X0220579Y0073279D01*
X0220579Y0072280D02*
X0218573Y0072280D01*
X0218573Y0071282D02*
X0220579Y0071282D01*
X0220579Y0070283D02*
X0218573Y0070283D01*
X0218573Y0069285D02*
X0220579Y0069285D01*
X0220579Y0068286D02*
X0218573Y0068286D01*
X0218573Y0067288D02*
X0220579Y0067288D01*
X0220579Y0066289D02*
X0218573Y0066289D01*
X0218573Y0065291D02*
X0220579Y0065291D01*
X0220579Y0064292D02*
X0218573Y0064292D01*
X0218573Y0063294D02*
X0220579Y0063294D01*
X0220579Y0062295D02*
X0218573Y0062295D01*
X0218573Y0061297D02*
X0220579Y0061297D01*
X0220579Y0060298D02*
X0218573Y0060298D01*
X0218573Y0059300D02*
X0220579Y0059300D01*
X0221471Y0058301D02*
X0218573Y0058301D01*
X0218573Y0057303D02*
X0222469Y0057303D01*
X0226313Y0039329D02*
X0397137Y0039329D01*
X0399212Y0035958D02*
X0397890Y0034636D01*
X0397174Y0032909D01*
X0397174Y0025039D01*
X0397890Y0023312D01*
X0399212Y0021990D01*
X0400939Y0021274D01*
X0402809Y0021274D01*
X0404536Y0021990D01*
X0405858Y0023312D01*
X0406574Y0025039D01*
X0406574Y0032909D01*
X0405858Y0034636D01*
X0404536Y0035958D01*
X0402809Y0036674D01*
X0400939Y0036674D01*
X0399212Y0035958D01*
X0398589Y0035335D02*
X0395160Y0035335D01*
X0394536Y0035958D02*
X0392809Y0036674D01*
X0390939Y0036674D01*
X0389212Y0035958D01*
X0387890Y0034636D01*
X0387174Y0032909D01*
X0387174Y0025039D01*
X0387890Y0023312D01*
X0389212Y0021990D01*
X0390939Y0021274D01*
X0392809Y0021274D01*
X0394536Y0021990D01*
X0395858Y0023312D01*
X0396574Y0025039D01*
X0396574Y0032909D01*
X0395858Y0034636D01*
X0394536Y0035958D01*
X0393630Y0036334D02*
X0400118Y0036334D01*
X0397765Y0034337D02*
X0395983Y0034337D01*
X0396396Y0033338D02*
X0397352Y0033338D01*
X0397174Y0032340D02*
X0396574Y0032340D01*
X0396574Y0031341D02*
X0397174Y0031341D01*
X0397174Y0030343D02*
X0396574Y0030343D01*
X0396574Y0029344D02*
X0397174Y0029344D01*
X0397174Y0028346D02*
X0396574Y0028346D01*
X0396574Y0027347D02*
X0397174Y0027347D01*
X0397174Y0026349D02*
X0396574Y0026349D01*
X0396574Y0025350D02*
X0397174Y0025350D01*
X0397459Y0024352D02*
X0396289Y0024352D01*
X0395876Y0023353D02*
X0397872Y0023353D01*
X0398847Y0022355D02*
X0394901Y0022355D01*
X0393007Y0021356D02*
X0400741Y0021356D01*
X0403007Y0021356D02*
X0410741Y0021356D01*
X0410939Y0021274D02*
X0412809Y0021274D01*
X0414536Y0021990D01*
X0415858Y0023312D01*
X0416574Y0025039D01*
X0416574Y0032909D01*
X0415858Y0034636D01*
X0414536Y0035958D01*
X0412809Y0036674D01*
X0410939Y0036674D01*
X0409212Y0035958D01*
X0407890Y0034636D01*
X0407174Y0032909D01*
X0407174Y0025039D01*
X0407890Y0023312D01*
X0409212Y0021990D01*
X0410939Y0021274D01*
X0413007Y0021356D02*
X0420741Y0021356D01*
X0420939Y0021274D02*
X0422809Y0021274D01*
X0424536Y0021990D01*
X0425858Y0023312D01*
X0426574Y0025039D01*
X0426574Y0032909D01*
X0425858Y0034636D01*
X0424536Y0035958D01*
X0422809Y0036674D01*
X0420939Y0036674D01*
X0419212Y0035958D01*
X0417890Y0034636D01*
X0417174Y0032909D01*
X0417174Y0025039D01*
X0417890Y0023312D01*
X0419212Y0021990D01*
X0420939Y0021274D01*
X0423007Y0021356D02*
X0444076Y0021356D01*
X0445075Y0022355D02*
X0424901Y0022355D01*
X0425876Y0023353D02*
X0446073Y0023353D01*
X0447072Y0024352D02*
X0426289Y0024352D01*
X0426574Y0025350D02*
X0448070Y0025350D01*
X0448587Y0026349D02*
X0426574Y0026349D01*
X0426574Y0027347D02*
X0448587Y0027347D01*
X0448587Y0028346D02*
X0426574Y0028346D01*
X0426574Y0029344D02*
X0448587Y0029344D01*
X0448587Y0030343D02*
X0426574Y0030343D01*
X0426574Y0031341D02*
X0448587Y0031341D01*
X0448587Y0032340D02*
X0426574Y0032340D01*
X0426396Y0033338D02*
X0448587Y0033338D01*
X0448587Y0034337D02*
X0425983Y0034337D01*
X0425160Y0035335D02*
X0448587Y0035335D01*
X0448587Y0036334D02*
X0423630Y0036334D01*
X0420118Y0036334D02*
X0413630Y0036334D01*
X0415160Y0035335D02*
X0418589Y0035335D01*
X0417765Y0034337D02*
X0415983Y0034337D01*
X0416396Y0033338D02*
X0417352Y0033338D01*
X0417174Y0032340D02*
X0416574Y0032340D01*
X0416574Y0031341D02*
X0417174Y0031341D01*
X0417174Y0030343D02*
X0416574Y0030343D01*
X0416574Y0029344D02*
X0417174Y0029344D01*
X0417174Y0028346D02*
X0416574Y0028346D01*
X0416574Y0027347D02*
X0417174Y0027347D01*
X0417174Y0026349D02*
X0416574Y0026349D01*
X0416574Y0025350D02*
X0417174Y0025350D01*
X0417459Y0024352D02*
X0416289Y0024352D01*
X0415876Y0023353D02*
X0417872Y0023353D01*
X0418847Y0022355D02*
X0414901Y0022355D01*
X0408847Y0022355D02*
X0404901Y0022355D01*
X0405876Y0023353D02*
X0407872Y0023353D01*
X0407459Y0024352D02*
X0406289Y0024352D01*
X0406574Y0025350D02*
X0407174Y0025350D01*
X0407174Y0026349D02*
X0406574Y0026349D01*
X0406574Y0027347D02*
X0407174Y0027347D01*
X0407174Y0028346D02*
X0406574Y0028346D01*
X0406574Y0029344D02*
X0407174Y0029344D01*
X0407174Y0030343D02*
X0406574Y0030343D01*
X0406574Y0031341D02*
X0407174Y0031341D01*
X0407174Y0032340D02*
X0406574Y0032340D01*
X0406396Y0033338D02*
X0407352Y0033338D01*
X0407765Y0034337D02*
X0405983Y0034337D01*
X0405160Y0035335D02*
X0408589Y0035335D01*
X0410118Y0036334D02*
X0403630Y0036334D01*
X0399016Y0045320D02*
X0418701Y0045320D01*
X0418107Y0046319D02*
X0398018Y0046319D01*
X0397983Y0047317D02*
X0418107Y0047317D01*
X0418107Y0048316D02*
X0397983Y0048316D01*
X0397983Y0049314D02*
X0418107Y0049314D01*
X0418107Y0050313D02*
X0398314Y0050313D01*
X0398682Y0051311D02*
X0418107Y0051311D01*
X0418843Y0052310D02*
X0398682Y0052310D01*
X0398383Y0053309D02*
X0419184Y0053309D01*
X0419583Y0054307D02*
X0397710Y0054307D01*
X0396060Y0055306D02*
X0419583Y0055306D01*
X0419583Y0058301D02*
X0417642Y0058301D01*
X0417642Y0059300D02*
X0419583Y0059300D01*
X0419583Y0060298D02*
X0417642Y0060298D01*
X0417642Y0061297D02*
X0419583Y0061297D01*
X0419583Y0062295D02*
X0417642Y0062295D01*
X0417642Y0063294D02*
X0419583Y0063294D01*
X0419583Y0064292D02*
X0417642Y0064292D01*
X0417642Y0065291D02*
X0419583Y0065291D01*
X0419583Y0066289D02*
X0417642Y0066289D01*
X0417642Y0067288D02*
X0419583Y0067288D01*
X0419583Y0068286D02*
X0417642Y0068286D01*
X0417642Y0069285D02*
X0419583Y0069285D01*
X0419583Y0070283D02*
X0417642Y0070283D01*
X0417642Y0071282D02*
X0419583Y0071282D01*
X0419583Y0072280D02*
X0417642Y0072280D01*
X0417642Y0073279D02*
X0419583Y0073279D01*
X0419583Y0074277D02*
X0417642Y0074277D01*
X0417642Y0075276D02*
X0419583Y0075276D01*
X0419583Y0076274D02*
X0417642Y0076274D01*
X0417642Y0077273D02*
X0419583Y0077273D01*
X0419583Y0078271D02*
X0417642Y0078271D01*
X0417642Y0079270D02*
X0419583Y0079270D01*
X0419583Y0080268D02*
X0417642Y0080268D01*
X0417642Y0081267D02*
X0419583Y0081267D01*
X0419583Y0082265D02*
X0417642Y0082265D01*
X0417642Y0083264D02*
X0419583Y0083264D01*
X0419583Y0084262D02*
X0417642Y0084262D01*
X0417642Y0085261D02*
X0419583Y0085261D01*
X0419583Y0086259D02*
X0417642Y0086259D01*
X0417642Y0087258D02*
X0419583Y0087258D01*
X0419583Y0088256D02*
X0417642Y0088256D01*
X0417642Y0089255D02*
X0419583Y0089255D01*
X0419583Y0090253D02*
X0417642Y0090253D01*
X0417642Y0091252D02*
X0419583Y0091252D01*
X0419583Y0092250D02*
X0417642Y0092250D01*
X0417642Y0093249D02*
X0419583Y0093249D01*
X0419583Y0094247D02*
X0417642Y0094247D01*
X0417642Y0095246D02*
X0419438Y0095246D01*
X0419377Y0096245D02*
X0417642Y0096245D01*
X0417642Y0097243D02*
X0419651Y0097243D01*
X0420392Y0098242D02*
X0417642Y0098242D01*
X0417642Y0099240D02*
X0426553Y0099240D01*
X0426553Y0100239D02*
X0417642Y0100239D01*
X0417642Y0101237D02*
X0426553Y0101237D01*
X0426553Y0102236D02*
X0417642Y0102236D01*
X0417642Y0103234D02*
X0426553Y0103234D01*
X0426553Y0104233D02*
X0417642Y0104233D01*
X0417642Y0105231D02*
X0426553Y0105231D01*
X0426553Y0106230D02*
X0417642Y0106230D01*
X0417642Y0107228D02*
X0426553Y0107228D01*
X0426553Y0108227D02*
X0417642Y0108227D01*
X0417642Y0109225D02*
X0426741Y0109225D01*
X0427382Y0110224D02*
X0417642Y0110224D01*
X0417642Y0111222D02*
X0428381Y0111222D01*
X0427810Y0110651D02*
X0427810Y0110651D01*
X0429379Y0112221D02*
X0417642Y0112221D01*
X0417642Y0113219D02*
X0430378Y0113219D01*
X0431376Y0114218D02*
X0417642Y0114218D01*
X0417642Y0115216D02*
X0432375Y0115216D01*
X0432506Y0115347D02*
X0432506Y0115347D01*
X0433446Y0116215D02*
X0417642Y0116215D01*
X0417642Y0117213D02*
X0437915Y0117213D01*
X0438364Y0118212D02*
X0417642Y0118212D01*
X0417642Y0119210D02*
X0438364Y0119210D01*
X0438536Y0120209D02*
X0417642Y0120209D01*
X0417642Y0121207D02*
X0439153Y0121207D01*
X0440152Y0122206D02*
X0435797Y0122206D01*
X0436665Y0123204D02*
X0441150Y0123204D01*
X0442149Y0124203D02*
X0436665Y0124203D01*
X0436665Y0125201D02*
X0443147Y0125201D01*
X0444420Y0126200D02*
X0436665Y0126200D01*
X0436665Y0127198D02*
X0449997Y0127198D01*
X0450202Y0128197D02*
X0436665Y0128197D01*
X0436665Y0129195D02*
X0450827Y0129195D01*
X0457058Y0130194D02*
X0436665Y0130194D01*
X0446357Y0120209D02*
X0458193Y0120209D01*
X0458193Y0121207D02*
X0457070Y0121207D01*
X0457829Y0122206D02*
X0458193Y0122206D01*
X0458193Y0123204D02*
X0458131Y0123204D01*
X0458121Y0124203D02*
X0458193Y0124203D01*
X0458193Y0125201D02*
X0458121Y0125201D01*
X0458121Y0126200D02*
X0458193Y0126200D01*
X0458193Y0127198D02*
X0458131Y0127198D01*
X0458193Y0128197D02*
X0457927Y0128197D01*
X0458057Y0129195D02*
X0457305Y0129195D01*
X0459869Y0132191D02*
X0636395Y0132191D01*
X0636395Y0133189D02*
X0458776Y0133189D01*
X0460868Y0131192D02*
X0636395Y0131192D01*
X0636395Y0130194D02*
X0461403Y0130194D01*
X0461593Y0129195D02*
X0636395Y0129195D01*
X0636395Y0128197D02*
X0461593Y0128197D01*
X0461593Y0127198D02*
X0636395Y0127198D01*
X0636395Y0126200D02*
X0461593Y0126200D01*
X0461593Y0125201D02*
X0636395Y0125201D01*
X0636395Y0124203D02*
X0461593Y0124203D01*
X0461593Y0123204D02*
X0636395Y0123204D01*
X0636395Y0122206D02*
X0461593Y0122206D01*
X0461593Y0121207D02*
X0636395Y0121207D01*
X0636395Y0120209D02*
X0461593Y0120209D01*
X0461593Y0119210D02*
X0636395Y0119210D01*
X0636395Y0118212D02*
X0461593Y0118212D01*
X0461605Y0117213D02*
X0636395Y0117213D01*
X0636395Y0116215D02*
X0461287Y0116215D01*
X0460578Y0115216D02*
X0636395Y0115216D01*
X0636395Y0114218D02*
X0459630Y0114218D01*
X0458681Y0113219D02*
X0636395Y0113219D01*
X0636395Y0112221D02*
X0457733Y0112221D01*
X0456784Y0111222D02*
X0636395Y0111222D01*
X0636395Y0110224D02*
X0455835Y0110224D01*
X0454887Y0109225D02*
X0636395Y0109225D01*
X0636395Y0108227D02*
X0453938Y0108227D01*
X0452990Y0107228D02*
X0636395Y0107228D01*
X0636395Y0106230D02*
X0439080Y0106230D01*
X0437577Y0105231D02*
X0636395Y0105231D01*
X0636395Y0104233D02*
X0437577Y0104233D01*
X0437577Y0103234D02*
X0636395Y0103234D01*
X0636395Y0102236D02*
X0437577Y0102236D01*
X0437577Y0101237D02*
X0636395Y0101237D01*
X0636395Y0100239D02*
X0437577Y0100239D01*
X0437577Y0099240D02*
X0636395Y0099240D01*
X0636395Y0098242D02*
X0437577Y0098242D01*
X0437577Y0097243D02*
X0636395Y0097243D01*
X0636395Y0096245D02*
X0437577Y0096245D01*
X0437577Y0095246D02*
X0636395Y0095246D01*
X0636395Y0094247D02*
X0437577Y0094247D01*
X0437577Y0093249D02*
X0636395Y0093249D01*
X0636395Y0092250D02*
X0437577Y0092250D01*
X0437577Y0091252D02*
X0636395Y0091252D01*
X0636395Y0090253D02*
X0437577Y0090253D01*
X0437577Y0089255D02*
X0636395Y0089255D01*
X0636395Y0088256D02*
X0437577Y0088256D01*
X0437577Y0087258D02*
X0636395Y0087258D01*
X0636395Y0086259D02*
X0437577Y0086259D01*
X0437577Y0085261D02*
X0636395Y0085261D01*
X0636395Y0084262D02*
X0437577Y0084262D01*
X0437577Y0083264D02*
X0636395Y0083264D01*
X0636395Y0082265D02*
X0437577Y0082265D01*
X0437577Y0081267D02*
X0636395Y0081267D01*
X0636395Y0080268D02*
X0437577Y0080268D01*
X0437577Y0079270D02*
X0636395Y0079270D01*
X0636395Y0078271D02*
X0437577Y0078271D01*
X0437577Y0077273D02*
X0636395Y0077273D01*
X0636395Y0076274D02*
X0437577Y0076274D01*
X0437577Y0075276D02*
X0636395Y0075276D01*
X0636395Y0074277D02*
X0437577Y0074277D01*
X0437577Y0073279D02*
X0636395Y0073279D01*
X0636395Y0072280D02*
X0437577Y0072280D01*
X0437577Y0071282D02*
X0636395Y0071282D01*
X0636395Y0070283D02*
X0437577Y0070283D01*
X0437577Y0069285D02*
X0636395Y0069285D01*
X0636395Y0068286D02*
X0437577Y0068286D01*
X0437577Y0067288D02*
X0636395Y0067288D01*
X0636395Y0066289D02*
X0437577Y0066289D01*
X0437577Y0065291D02*
X0636395Y0065291D01*
X0636395Y0064292D02*
X0437577Y0064292D01*
X0437577Y0063294D02*
X0636395Y0063294D01*
X0636395Y0062295D02*
X0437577Y0062295D01*
X0434177Y0062295D02*
X0432353Y0062295D01*
X0432353Y0061297D02*
X0434177Y0061297D01*
X0434177Y0060298D02*
X0432353Y0060298D01*
X0432353Y0059300D02*
X0434177Y0059300D01*
X0434177Y0058301D02*
X0432353Y0058301D01*
X0432353Y0057303D02*
X0434177Y0057303D01*
X0434177Y0056304D02*
X0433081Y0056304D01*
X0450633Y0056304D01*
X0451631Y0055306D02*
X0434079Y0055306D01*
X0432353Y0057303D02*
X0449634Y0057303D01*
X0452446Y0059300D02*
X0636395Y0059300D01*
X0636395Y0060298D02*
X0451447Y0060298D01*
X0450136Y0061297D02*
X0636395Y0061297D01*
X0636395Y0058301D02*
X0453444Y0058301D01*
X0454443Y0057303D02*
X0636395Y0057303D01*
X0636395Y0056304D02*
X0455441Y0056304D01*
X0456440Y0055306D02*
X0636395Y0055306D01*
X0636395Y0054307D02*
X0457438Y0054307D01*
X0458437Y0053309D02*
X0636395Y0053309D01*
X0636395Y0052310D02*
X0459435Y0052310D01*
X0460434Y0051311D02*
X0615396Y0051311D01*
X0611669Y0050313D02*
X0461223Y0050313D01*
X0461593Y0049314D02*
X0609524Y0049314D01*
X0607794Y0048316D02*
X0461593Y0048316D01*
X0461593Y0047317D02*
X0606065Y0047317D01*
X0604930Y0046319D02*
X0461593Y0046319D01*
X0461593Y0045320D02*
X0603932Y0045320D01*
X0602933Y0044322D02*
X0461593Y0044322D01*
X0461593Y0043323D02*
X0601935Y0043323D01*
X0601190Y0042325D02*
X0461593Y0042325D01*
X0461593Y0041326D02*
X0600614Y0041326D01*
X0600037Y0040328D02*
X0461593Y0040328D01*
X0461593Y0039329D02*
X0599461Y0039329D01*
X0598884Y0038331D02*
X0461593Y0038331D01*
X0461593Y0037332D02*
X0598445Y0037332D01*
X0598178Y0036334D02*
X0461593Y0036334D01*
X0461593Y0035335D02*
X0597910Y0035335D01*
X0597643Y0034337D02*
X0461593Y0034337D01*
X0461593Y0033338D02*
X0597375Y0033338D01*
X0597108Y0032340D02*
X0461593Y0032340D01*
X0461593Y0031341D02*
X0597025Y0031341D01*
X0597025Y0030343D02*
X0461593Y0030343D01*
X0461593Y0029344D02*
X0597025Y0029344D01*
X0597025Y0028346D02*
X0461593Y0028346D01*
X0461593Y0027347D02*
X0597025Y0027347D01*
X0597025Y0026349D02*
X0461593Y0026349D01*
X0461593Y0025350D02*
X0597222Y0025350D01*
X0597490Y0024352D02*
X0461593Y0024352D01*
X0461593Y0023353D02*
X0597757Y0023353D01*
X0598025Y0022355D02*
X0461593Y0022355D01*
X0461593Y0021356D02*
X0598292Y0021356D01*
X0598560Y0020358D02*
X0461593Y0020358D01*
X0461593Y0019359D02*
X0599132Y0019359D01*
X0599708Y0018361D02*
X0461593Y0018361D01*
X0461593Y0017362D02*
X0600285Y0017362D01*
X0600861Y0016364D02*
X0461593Y0016364D01*
X0461593Y0015365D02*
X0601437Y0015365D01*
X0602363Y0014367D02*
X0461593Y0014367D01*
X0461593Y0013368D02*
X0603361Y0013368D01*
X0604360Y0012370D02*
X0461593Y0012370D01*
X0458193Y0012370D02*
X0203862Y0012370D01*
X0203862Y0013368D02*
X0458193Y0013368D01*
X0458193Y0014367D02*
X0447552Y0014367D01*
X0448550Y0015365D02*
X0458193Y0015365D01*
X0458193Y0016364D02*
X0449549Y0016364D01*
X0450547Y0017362D02*
X0458193Y0017362D01*
X0458193Y0018361D02*
X0451546Y0018361D01*
X0452544Y0019359D02*
X0458193Y0019359D01*
X0458193Y0020358D02*
X0453543Y0020358D01*
X0454541Y0021356D02*
X0458193Y0021356D01*
X0458193Y0022355D02*
X0455472Y0022355D01*
X0455886Y0023353D02*
X0458193Y0023353D01*
X0458193Y0024352D02*
X0455987Y0024352D01*
X0455987Y0025350D02*
X0458193Y0025350D01*
X0458193Y0026349D02*
X0455987Y0026349D01*
X0455987Y0027347D02*
X0458193Y0027347D01*
X0458193Y0028346D02*
X0455987Y0028346D01*
X0455987Y0029344D02*
X0458193Y0029344D01*
X0458193Y0030343D02*
X0455987Y0030343D01*
X0455987Y0031341D02*
X0458193Y0031341D01*
X0458193Y0032340D02*
X0455987Y0032340D01*
X0455987Y0033338D02*
X0458193Y0033338D01*
X0458193Y0034337D02*
X0455987Y0034337D01*
X0455987Y0035335D02*
X0458193Y0035335D01*
X0458193Y0036334D02*
X0455987Y0036334D01*
X0455987Y0037332D02*
X0458193Y0037332D01*
X0458193Y0038331D02*
X0455987Y0038331D01*
X0455987Y0039329D02*
X0458193Y0039329D01*
X0458193Y0040328D02*
X0455987Y0040328D01*
X0455987Y0041326D02*
X0458193Y0041326D01*
X0458193Y0042325D02*
X0455987Y0042325D01*
X0455765Y0043323D02*
X0458193Y0043323D01*
X0458193Y0044322D02*
X0455249Y0044322D01*
X0454063Y0045320D02*
X0458193Y0045320D01*
X0458193Y0046319D02*
X0452929Y0046319D01*
X0451931Y0047317D02*
X0458193Y0047317D01*
X0458193Y0048316D02*
X0450932Y0048316D01*
X0449934Y0049314D02*
X0457623Y0049314D01*
X0456624Y0050313D02*
X0448935Y0050313D01*
X0447937Y0051311D02*
X0455626Y0051311D01*
X0454627Y0052310D02*
X0446938Y0052310D01*
X0445940Y0053309D02*
X0453628Y0053309D01*
X0452630Y0054307D02*
X0444941Y0054307D01*
X0442111Y0047317D02*
X0431350Y0047317D01*
X0431350Y0046319D02*
X0443110Y0046319D01*
X0444109Y0045320D02*
X0431350Y0045320D01*
X0431350Y0044322D02*
X0445107Y0044322D01*
X0446106Y0043323D02*
X0431121Y0043323D01*
X0429170Y0042325D02*
X0447104Y0042325D01*
X0448103Y0041326D02*
X0428333Y0041326D01*
X0427334Y0040328D02*
X0448587Y0040328D01*
X0448587Y0039329D02*
X0426336Y0039329D01*
X0431350Y0048316D02*
X0432847Y0048316D01*
X0431302Y0049314D02*
X0431247Y0049314D01*
X0430703Y0050313D02*
X0429480Y0050313D01*
X0429480Y0051311D02*
X0429871Y0051311D01*
X0432353Y0063294D02*
X0434177Y0063294D01*
X0434177Y0064292D02*
X0432353Y0064292D01*
X0432353Y0065291D02*
X0434177Y0065291D01*
X0434177Y0066289D02*
X0432353Y0066289D01*
X0432353Y0067288D02*
X0434177Y0067288D01*
X0434177Y0068286D02*
X0432353Y0068286D01*
X0432353Y0069285D02*
X0434177Y0069285D01*
X0434177Y0070283D02*
X0432353Y0070283D01*
X0432353Y0071282D02*
X0434177Y0071282D01*
X0434177Y0072280D02*
X0432353Y0072280D01*
X0432353Y0073279D02*
X0434177Y0073279D01*
X0434177Y0074277D02*
X0432353Y0074277D01*
X0432353Y0075276D02*
X0434177Y0075276D01*
X0434177Y0076274D02*
X0432353Y0076274D01*
X0432353Y0077273D02*
X0434177Y0077273D01*
X0434177Y0078271D02*
X0432353Y0078271D01*
X0432353Y0079270D02*
X0434177Y0079270D01*
X0434177Y0080268D02*
X0432353Y0080268D01*
X0432353Y0081267D02*
X0434177Y0081267D01*
X0434177Y0082265D02*
X0432353Y0082265D01*
X0432353Y0083264D02*
X0434177Y0083264D01*
X0434177Y0084262D02*
X0432353Y0084262D01*
X0432353Y0085261D02*
X0434177Y0085261D01*
X0434177Y0086259D02*
X0432353Y0086259D01*
X0432353Y0087258D02*
X0434177Y0087258D01*
X0434177Y0088256D02*
X0432353Y0088256D01*
X0432353Y0089255D02*
X0434177Y0089255D01*
X0434177Y0090253D02*
X0432353Y0090253D01*
X0432353Y0091252D02*
X0434177Y0091252D01*
X0434177Y0092250D02*
X0432353Y0092250D01*
X0432353Y0093249D02*
X0434177Y0093249D01*
X0434177Y0094247D02*
X0432353Y0094247D01*
X0432353Y0095246D02*
X0434177Y0095246D01*
X0434177Y0096245D02*
X0432353Y0096245D01*
X0432353Y0097243D02*
X0434177Y0097243D01*
X0434177Y0098242D02*
X0432353Y0098242D01*
X0432353Y0099240D02*
X0434177Y0099240D01*
X0434177Y0100239D02*
X0432353Y0100239D01*
X0432353Y0101237D02*
X0434177Y0101237D01*
X0434177Y0102236D02*
X0432353Y0102236D01*
X0432353Y0103234D02*
X0434177Y0103234D01*
X0434177Y0104233D02*
X0432353Y0104233D01*
X0432353Y0105231D02*
X0434177Y0105231D01*
X0434177Y0106230D02*
X0432353Y0106230D01*
X0432589Y0107228D02*
X0434177Y0107228D01*
X0433588Y0108227D02*
X0434998Y0108227D01*
X0434586Y0109225D02*
X0435997Y0109225D01*
X0435585Y0110224D02*
X0451146Y0110224D01*
X0452094Y0111222D02*
X0440093Y0111222D01*
X0441125Y0112221D02*
X0453043Y0112221D01*
X0453992Y0113219D02*
X0442124Y0113219D01*
X0443122Y0114218D02*
X0454940Y0114218D01*
X0455889Y0115216D02*
X0443887Y0115216D01*
X0444164Y0116215D02*
X0456837Y0116215D01*
X0457786Y0117213D02*
X0444164Y0117213D01*
X0444360Y0118212D02*
X0458193Y0118212D01*
X0458193Y0119210D02*
X0445359Y0119210D01*
X0415877Y0133189D02*
X0012274Y0133189D01*
X0012274Y0132191D02*
X0414784Y0132191D01*
X0414356Y0131192D02*
X0012274Y0131192D01*
X0012274Y0134188D02*
X0636395Y0134188D01*
X0636395Y0135186D02*
X0012274Y0135186D01*
X0012274Y0136185D02*
X0636395Y0136185D01*
X0636395Y0137183D02*
X0408897Y0137183D01*
X0409905Y0138182D02*
X0636395Y0138182D01*
X0636395Y0139180D02*
X0410318Y0139180D01*
X0410412Y0140179D02*
X0636395Y0140179D01*
X0636395Y0141178D02*
X0410412Y0141178D01*
X0410412Y0142176D02*
X0636395Y0142176D01*
X0636395Y0143175D02*
X0410412Y0143175D01*
X0407012Y0143175D02*
X0325909Y0143175D01*
X0325909Y0144173D02*
X0407012Y0144173D01*
X0407012Y0145172D02*
X0325909Y0145172D01*
X0325909Y0146170D02*
X0407012Y0146170D01*
X0407012Y0147169D02*
X0325909Y0147169D01*
X0325909Y0148167D02*
X0438508Y0148167D01*
X0438508Y0147169D02*
X0407012Y0147169D01*
X0407012Y0140083D01*
X0325909Y0140083D01*
X0325909Y0245254D01*
X0331211Y0245254D01*
X0332277Y0245695D01*
X0333092Y0246511D01*
X0333534Y0247577D01*
X0333534Y0254636D01*
X0333092Y0255702D01*
X0332277Y0256518D01*
X0331211Y0256959D01*
X0329703Y0256959D01*
X0329703Y0267248D01*
X0383927Y0267248D01*
X0383927Y0252792D01*
X0384444Y0251543D01*
X0385401Y0250586D01*
X0386650Y0250069D01*
X0439045Y0250069D01*
X0439045Y0157910D01*
X0439562Y0156661D01*
X0440041Y0156182D01*
X0438508Y0154650D01*
X0438508Y0147169D01*
X0438508Y0149166D02*
X0325909Y0149166D01*
X0325909Y0150164D02*
X0438508Y0150164D01*
X0438508Y0151163D02*
X0427991Y0151163D01*
X0427004Y0150175D02*
X0430778Y0153949D01*
X0430778Y0159287D01*
X0427004Y0163061D01*
X0426191Y0163061D01*
X0426191Y0206511D01*
X0425369Y0208496D01*
X0420855Y0213010D01*
X0420855Y0215485D01*
X0416666Y0219674D01*
X0410743Y0219674D01*
X0406555Y0215485D01*
X0406555Y0209562D01*
X0410743Y0205374D01*
X0413218Y0205374D01*
X0415391Y0203200D01*
X0415391Y0159087D01*
X0416213Y0157103D01*
X0417732Y0155584D01*
X0417891Y0155425D01*
X0417891Y0153949D01*
X0421666Y0150175D01*
X0427004Y0150175D01*
X0428990Y0152161D02*
X0438508Y0152161D01*
X0438508Y0153160D02*
X0429988Y0153160D01*
X0430778Y0154158D02*
X0438508Y0154158D01*
X0439015Y0155157D02*
X0430778Y0155157D01*
X0430778Y0156155D02*
X0440013Y0156155D01*
X0439358Y0157154D02*
X0430778Y0157154D01*
X0430778Y0158152D02*
X0439045Y0158152D01*
X0439045Y0159151D02*
X0430778Y0159151D01*
X0429916Y0160149D02*
X0439045Y0160149D01*
X0439045Y0161148D02*
X0428917Y0161148D01*
X0427919Y0162146D02*
X0439045Y0162146D01*
X0439045Y0163145D02*
X0426191Y0163145D01*
X0426191Y0164143D02*
X0439045Y0164143D01*
X0439045Y0165142D02*
X0426191Y0165142D01*
X0426191Y0166140D02*
X0439045Y0166140D01*
X0439045Y0167139D02*
X0426191Y0167139D01*
X0426191Y0168137D02*
X0439045Y0168137D01*
X0439045Y0169136D02*
X0426191Y0169136D01*
X0426191Y0170134D02*
X0439045Y0170134D01*
X0439045Y0171133D02*
X0426191Y0171133D01*
X0426191Y0172131D02*
X0439045Y0172131D01*
X0439045Y0173130D02*
X0426191Y0173130D01*
X0426191Y0174128D02*
X0439045Y0174128D01*
X0439045Y0175127D02*
X0426191Y0175127D01*
X0426191Y0176125D02*
X0439045Y0176125D01*
X0439045Y0177124D02*
X0426191Y0177124D01*
X0426191Y0178122D02*
X0439045Y0178122D01*
X0439045Y0179121D02*
X0426191Y0179121D01*
X0426191Y0180119D02*
X0439045Y0180119D01*
X0439045Y0181118D02*
X0426191Y0181118D01*
X0426191Y0182116D02*
X0439045Y0182116D01*
X0439045Y0183115D02*
X0426191Y0183115D01*
X0426191Y0184113D02*
X0439045Y0184113D01*
X0439045Y0185112D02*
X0426191Y0185112D01*
X0426191Y0186111D02*
X0439045Y0186111D01*
X0439045Y0187109D02*
X0426191Y0187109D01*
X0426191Y0188108D02*
X0439045Y0188108D01*
X0439045Y0189106D02*
X0426191Y0189106D01*
X0426191Y0190105D02*
X0439045Y0190105D01*
X0439045Y0191103D02*
X0426191Y0191103D01*
X0426191Y0192102D02*
X0439045Y0192102D01*
X0439045Y0193100D02*
X0426191Y0193100D01*
X0426191Y0194099D02*
X0439045Y0194099D01*
X0439045Y0195097D02*
X0426191Y0195097D01*
X0426191Y0196096D02*
X0439045Y0196096D01*
X0439045Y0197094D02*
X0426191Y0197094D01*
X0426191Y0198093D02*
X0439045Y0198093D01*
X0439045Y0199091D02*
X0426191Y0199091D01*
X0426191Y0200090D02*
X0439045Y0200090D01*
X0439045Y0201088D02*
X0426191Y0201088D01*
X0426191Y0202087D02*
X0439045Y0202087D01*
X0439045Y0203085D02*
X0426191Y0203085D01*
X0426191Y0204084D02*
X0439045Y0204084D01*
X0439045Y0205082D02*
X0426191Y0205082D01*
X0426191Y0206081D02*
X0439045Y0206081D01*
X0439045Y0207079D02*
X0425956Y0207079D01*
X0425542Y0208078D02*
X0439045Y0208078D01*
X0439045Y0209076D02*
X0424789Y0209076D01*
X0423790Y0210075D02*
X0439045Y0210075D01*
X0439045Y0211073D02*
X0422792Y0211073D01*
X0421793Y0212072D02*
X0439045Y0212072D01*
X0439045Y0213070D02*
X0420855Y0213070D01*
X0420855Y0214069D02*
X0439045Y0214069D01*
X0439045Y0215067D02*
X0420855Y0215067D01*
X0420274Y0216066D02*
X0439045Y0216066D01*
X0439045Y0217064D02*
X0419276Y0217064D01*
X0418277Y0218063D02*
X0439045Y0218063D01*
X0439045Y0219061D02*
X0417279Y0219061D01*
X0410131Y0219061D02*
X0325909Y0219061D01*
X0325909Y0218063D02*
X0409132Y0218063D01*
X0408134Y0217064D02*
X0325909Y0217064D01*
X0325909Y0216066D02*
X0407135Y0216066D01*
X0406555Y0215067D02*
X0325909Y0215067D01*
X0325909Y0214069D02*
X0406555Y0214069D01*
X0406555Y0213070D02*
X0325909Y0213070D01*
X0325909Y0212072D02*
X0406555Y0212072D01*
X0406555Y0211073D02*
X0325909Y0211073D01*
X0325909Y0210075D02*
X0406555Y0210075D01*
X0407040Y0209076D02*
X0325909Y0209076D01*
X0325909Y0208078D02*
X0408039Y0208078D01*
X0409037Y0207079D02*
X0325909Y0207079D01*
X0325909Y0206081D02*
X0410036Y0206081D01*
X0413509Y0205082D02*
X0325909Y0205082D01*
X0325909Y0204084D02*
X0340429Y0204084D01*
X0341058Y0204713D02*
X0336870Y0200525D01*
X0336870Y0194601D01*
X0341058Y0190413D01*
X0346981Y0190413D01*
X0351170Y0194601D01*
X0351170Y0200525D01*
X0346981Y0204713D01*
X0341058Y0204713D01*
X0339430Y0203085D02*
X0325909Y0203085D01*
X0325909Y0202087D02*
X0338432Y0202087D01*
X0337433Y0201088D02*
X0325909Y0201088D01*
X0325909Y0200090D02*
X0336870Y0200090D01*
X0336870Y0199091D02*
X0325909Y0199091D01*
X0325909Y0198093D02*
X0336870Y0198093D01*
X0336870Y0197094D02*
X0325909Y0197094D01*
X0325909Y0196096D02*
X0336870Y0196096D01*
X0336870Y0195097D02*
X0325909Y0195097D01*
X0325909Y0194099D02*
X0337372Y0194099D01*
X0338371Y0193100D02*
X0325909Y0193100D01*
X0325909Y0192102D02*
X0339369Y0192102D01*
X0340368Y0191103D02*
X0325909Y0191103D01*
X0325909Y0190105D02*
X0415391Y0190105D01*
X0415391Y0191103D02*
X0347671Y0191103D01*
X0348670Y0192102D02*
X0415391Y0192102D01*
X0415391Y0193100D02*
X0349668Y0193100D01*
X0350667Y0194099D02*
X0415391Y0194099D01*
X0415391Y0195097D02*
X0351170Y0195097D01*
X0351170Y0196096D02*
X0415391Y0196096D01*
X0415391Y0197094D02*
X0351170Y0197094D01*
X0351170Y0198093D02*
X0415391Y0198093D01*
X0415391Y0199091D02*
X0351170Y0199091D01*
X0351170Y0200090D02*
X0415391Y0200090D01*
X0415391Y0201088D02*
X0350606Y0201088D01*
X0349608Y0202087D02*
X0415391Y0202087D01*
X0415391Y0203085D02*
X0348609Y0203085D01*
X0347611Y0204084D02*
X0414508Y0204084D01*
X0415391Y0189106D02*
X0325909Y0189106D01*
X0325909Y0188108D02*
X0415391Y0188108D01*
X0415391Y0187109D02*
X0325909Y0187109D01*
X0325909Y0186111D02*
X0415391Y0186111D01*
X0415391Y0185112D02*
X0325909Y0185112D01*
X0325909Y0184113D02*
X0415391Y0184113D01*
X0415391Y0183115D02*
X0325909Y0183115D01*
X0325909Y0182116D02*
X0415391Y0182116D01*
X0415391Y0181118D02*
X0325909Y0181118D01*
X0325909Y0180119D02*
X0415391Y0180119D01*
X0415391Y0179121D02*
X0325909Y0179121D01*
X0325909Y0178122D02*
X0415391Y0178122D01*
X0415391Y0177124D02*
X0325909Y0177124D01*
X0325909Y0176125D02*
X0415391Y0176125D01*
X0415391Y0175127D02*
X0325909Y0175127D01*
X0325909Y0174128D02*
X0415391Y0174128D01*
X0415391Y0173130D02*
X0325909Y0173130D01*
X0325909Y0172131D02*
X0415391Y0172131D01*
X0415391Y0171133D02*
X0325909Y0171133D01*
X0325909Y0170134D02*
X0415391Y0170134D01*
X0415391Y0169136D02*
X0325909Y0169136D01*
X0325909Y0168137D02*
X0415391Y0168137D01*
X0415391Y0167139D02*
X0325909Y0167139D01*
X0325909Y0166140D02*
X0415391Y0166140D01*
X0415391Y0165142D02*
X0325909Y0165142D01*
X0325909Y0164143D02*
X0415391Y0164143D01*
X0415391Y0163145D02*
X0325909Y0163145D01*
X0325909Y0162146D02*
X0415391Y0162146D01*
X0415391Y0161148D02*
X0325909Y0161148D01*
X0325909Y0160149D02*
X0415391Y0160149D01*
X0415391Y0159151D02*
X0325909Y0159151D01*
X0325909Y0158152D02*
X0415779Y0158152D01*
X0416192Y0157154D02*
X0325909Y0157154D01*
X0325909Y0156155D02*
X0417161Y0156155D01*
X0417891Y0155157D02*
X0325909Y0155157D01*
X0325909Y0154158D02*
X0417891Y0154158D01*
X0418681Y0153160D02*
X0325909Y0153160D01*
X0325909Y0152161D02*
X0419679Y0152161D01*
X0420678Y0151163D02*
X0325909Y0151163D01*
X0322509Y0151163D02*
X0209624Y0151163D01*
X0209624Y0152161D02*
X0322509Y0152161D01*
X0322509Y0153160D02*
X0209624Y0153160D01*
X0209624Y0154158D02*
X0322509Y0154158D01*
X0322509Y0155157D02*
X0209624Y0155157D01*
X0209624Y0156155D02*
X0322509Y0156155D01*
X0322509Y0157154D02*
X0209624Y0157154D01*
X0209624Y0158152D02*
X0223319Y0158152D01*
X0223735Y0157736D02*
X0229658Y0157736D01*
X0233847Y0161924D01*
X0233847Y0167847D01*
X0229658Y0172036D01*
X0223735Y0172036D01*
X0219547Y0167847D01*
X0219547Y0161924D01*
X0223735Y0157736D01*
X0222320Y0159151D02*
X0209624Y0159151D01*
X0209624Y0160149D02*
X0221322Y0160149D01*
X0220323Y0161148D02*
X0209624Y0161148D01*
X0209624Y0162146D02*
X0219547Y0162146D01*
X0219547Y0163145D02*
X0209624Y0163145D01*
X0209624Y0164143D02*
X0219547Y0164143D01*
X0219547Y0165142D02*
X0209624Y0165142D01*
X0209624Y0166140D02*
X0219547Y0166140D01*
X0219547Y0167139D02*
X0209624Y0167139D01*
X0209624Y0168137D02*
X0219837Y0168137D01*
X0220835Y0169136D02*
X0209624Y0169136D01*
X0209624Y0170134D02*
X0221834Y0170134D01*
X0222832Y0171133D02*
X0209624Y0171133D01*
X0209624Y0172131D02*
X0322509Y0172131D01*
X0322509Y0171133D02*
X0230561Y0171133D01*
X0231560Y0170134D02*
X0322509Y0170134D01*
X0322509Y0169136D02*
X0232558Y0169136D01*
X0233557Y0168137D02*
X0322509Y0168137D01*
X0322509Y0167139D02*
X0233847Y0167139D01*
X0233847Y0166140D02*
X0322509Y0166140D01*
X0322509Y0165142D02*
X0233847Y0165142D01*
X0233847Y0164143D02*
X0322509Y0164143D01*
X0322509Y0163145D02*
X0233847Y0163145D01*
X0233847Y0162146D02*
X0322509Y0162146D01*
X0322509Y0161148D02*
X0233070Y0161148D01*
X0232072Y0160149D02*
X0322509Y0160149D01*
X0322509Y0159151D02*
X0231073Y0159151D01*
X0230075Y0158152D02*
X0322509Y0158152D01*
X0322509Y0150164D02*
X0209624Y0150164D01*
X0209624Y0149166D02*
X0322509Y0149166D01*
X0322509Y0148167D02*
X0209624Y0148167D01*
X0209624Y0147169D02*
X0209624Y0250069D01*
X0262019Y0250069D01*
X0263268Y0250586D01*
X0264225Y0251543D01*
X0264743Y0252792D01*
X0264743Y0267248D01*
X0318966Y0267248D01*
X0318966Y0256959D01*
X0317459Y0256959D01*
X0316393Y0256518D01*
X0315577Y0255702D01*
X0315135Y0254636D01*
X0315135Y0247577D01*
X0315577Y0246511D01*
X0316393Y0245695D01*
X0317459Y0245254D01*
X0322509Y0245254D01*
X0322509Y0140083D01*
X0241657Y0140083D01*
X0241657Y0147169D01*
X0209624Y0147169D01*
X0206224Y0147169D02*
X0080240Y0147169D01*
X0080240Y0244020D01*
X0135358Y0292839D01*
X0261343Y0292839D01*
X0261343Y0253469D01*
X0206224Y0253469D01*
X0206224Y0147169D01*
X0206224Y0148167D02*
X0080240Y0148167D01*
X0080240Y0149166D02*
X0206224Y0149166D01*
X0206224Y0150164D02*
X0080240Y0150164D01*
X0080240Y0151163D02*
X0206224Y0151163D01*
X0206224Y0152161D02*
X0080240Y0152161D01*
X0080240Y0153160D02*
X0206224Y0153160D01*
X0206224Y0154158D02*
X0080240Y0154158D01*
X0080240Y0155157D02*
X0206224Y0155157D01*
X0206224Y0156155D02*
X0080240Y0156155D01*
X0080240Y0157154D02*
X0206224Y0157154D01*
X0206224Y0158152D02*
X0080240Y0158152D01*
X0080240Y0159151D02*
X0206224Y0159151D01*
X0206224Y0160149D02*
X0080240Y0160149D01*
X0080240Y0161148D02*
X0206224Y0161148D01*
X0206224Y0162146D02*
X0080240Y0162146D01*
X0080240Y0163145D02*
X0206224Y0163145D01*
X0206224Y0164143D02*
X0080240Y0164143D01*
X0080240Y0165142D02*
X0206224Y0165142D01*
X0206224Y0166140D02*
X0080240Y0166140D01*
X0080240Y0167139D02*
X0206224Y0167139D01*
X0206224Y0168137D02*
X0080240Y0168137D01*
X0080240Y0169136D02*
X0206224Y0169136D01*
X0206224Y0170134D02*
X0080240Y0170134D01*
X0080240Y0171133D02*
X0206224Y0171133D01*
X0206224Y0172131D02*
X0080240Y0172131D01*
X0080240Y0173130D02*
X0206224Y0173130D01*
X0206224Y0174128D02*
X0080240Y0174128D01*
X0080240Y0175127D02*
X0206224Y0175127D01*
X0206224Y0176125D02*
X0080240Y0176125D01*
X0080240Y0177124D02*
X0206224Y0177124D01*
X0206224Y0178122D02*
X0080240Y0178122D01*
X0080240Y0179121D02*
X0206224Y0179121D01*
X0206224Y0180119D02*
X0080240Y0180119D01*
X0080240Y0181118D02*
X0206224Y0181118D01*
X0206224Y0182116D02*
X0080240Y0182116D01*
X0080240Y0183115D02*
X0206224Y0183115D01*
X0206224Y0184113D02*
X0080240Y0184113D01*
X0080240Y0185112D02*
X0206224Y0185112D01*
X0206224Y0186111D02*
X0080240Y0186111D01*
X0080240Y0187109D02*
X0206224Y0187109D01*
X0206224Y0188108D02*
X0080240Y0188108D01*
X0080240Y0189106D02*
X0206224Y0189106D01*
X0206224Y0190105D02*
X0080240Y0190105D01*
X0080240Y0191103D02*
X0206224Y0191103D01*
X0206224Y0192102D02*
X0080240Y0192102D01*
X0080240Y0193100D02*
X0206224Y0193100D01*
X0206224Y0194099D02*
X0080240Y0194099D01*
X0080240Y0195097D02*
X0206224Y0195097D01*
X0206224Y0196096D02*
X0080240Y0196096D01*
X0080240Y0197094D02*
X0206224Y0197094D01*
X0206224Y0198093D02*
X0080240Y0198093D01*
X0080240Y0199091D02*
X0206224Y0199091D01*
X0206224Y0200090D02*
X0080240Y0200090D01*
X0080240Y0201088D02*
X0206224Y0201088D01*
X0206224Y0202087D02*
X0080240Y0202087D01*
X0080240Y0203085D02*
X0206224Y0203085D01*
X0206224Y0204084D02*
X0080240Y0204084D01*
X0080240Y0205082D02*
X0206224Y0205082D01*
X0206224Y0206081D02*
X0080240Y0206081D01*
X0080240Y0207079D02*
X0206224Y0207079D01*
X0206224Y0208078D02*
X0080240Y0208078D01*
X0080240Y0209076D02*
X0206224Y0209076D01*
X0206224Y0210075D02*
X0080240Y0210075D01*
X0080240Y0211073D02*
X0206224Y0211073D01*
X0206224Y0212072D02*
X0080240Y0212072D01*
X0080240Y0213070D02*
X0206224Y0213070D01*
X0206224Y0214069D02*
X0080240Y0214069D01*
X0080240Y0215067D02*
X0206224Y0215067D01*
X0206224Y0216066D02*
X0080240Y0216066D01*
X0080240Y0217064D02*
X0206224Y0217064D01*
X0206224Y0218063D02*
X0080240Y0218063D01*
X0080240Y0219061D02*
X0206224Y0219061D01*
X0206224Y0220060D02*
X0080240Y0220060D01*
X0080240Y0221058D02*
X0206224Y0221058D01*
X0206224Y0222057D02*
X0080240Y0222057D01*
X0080240Y0223055D02*
X0206224Y0223055D01*
X0206224Y0224054D02*
X0080240Y0224054D01*
X0080240Y0225052D02*
X0206224Y0225052D01*
X0206224Y0226051D02*
X0080240Y0226051D01*
X0080240Y0227049D02*
X0206224Y0227049D01*
X0206224Y0228048D02*
X0080240Y0228048D01*
X0080240Y0229047D02*
X0206224Y0229047D01*
X0206224Y0230045D02*
X0080240Y0230045D01*
X0080240Y0231044D02*
X0206224Y0231044D01*
X0206224Y0232042D02*
X0080240Y0232042D01*
X0080240Y0233041D02*
X0206224Y0233041D01*
X0206224Y0234039D02*
X0080240Y0234039D01*
X0080240Y0235038D02*
X0206224Y0235038D01*
X0206224Y0236036D02*
X0080240Y0236036D01*
X0080240Y0237035D02*
X0206224Y0237035D01*
X0206224Y0238033D02*
X0080240Y0238033D01*
X0080240Y0239032D02*
X0206224Y0239032D01*
X0206224Y0240030D02*
X0080240Y0240030D01*
X0080240Y0241029D02*
X0206224Y0241029D01*
X0206224Y0242027D02*
X0080240Y0242027D01*
X0080240Y0243026D02*
X0206224Y0243026D01*
X0206224Y0244024D02*
X0080245Y0244024D01*
X0081373Y0245023D02*
X0206224Y0245023D01*
X0206224Y0246021D02*
X0082500Y0246021D01*
X0083627Y0247020D02*
X0206224Y0247020D01*
X0206224Y0248018D02*
X0084755Y0248018D01*
X0085882Y0249017D02*
X0206224Y0249017D01*
X0206224Y0250015D02*
X0087009Y0250015D01*
X0088137Y0251014D02*
X0206224Y0251014D01*
X0206224Y0252012D02*
X0089264Y0252012D01*
X0090391Y0253011D02*
X0206224Y0253011D01*
X0209624Y0250015D02*
X0315135Y0250015D01*
X0315135Y0249017D02*
X0209624Y0249017D01*
X0209624Y0248018D02*
X0315135Y0248018D01*
X0315366Y0247020D02*
X0209624Y0247020D01*
X0209624Y0246021D02*
X0316067Y0246021D01*
X0315135Y0251014D02*
X0263696Y0251014D01*
X0264419Y0252012D02*
X0315135Y0252012D01*
X0315135Y0253011D02*
X0264743Y0253011D01*
X0264743Y0254009D02*
X0315135Y0254009D01*
X0315289Y0255008D02*
X0264743Y0255008D01*
X0264743Y0256006D02*
X0315881Y0256006D01*
X0318966Y0257005D02*
X0264743Y0257005D01*
X0264743Y0258003D02*
X0318966Y0258003D01*
X0318966Y0259002D02*
X0264743Y0259002D01*
X0264743Y0260000D02*
X0318966Y0260000D01*
X0318966Y0260999D02*
X0264743Y0260999D01*
X0264743Y0261997D02*
X0318966Y0261997D01*
X0318966Y0262996D02*
X0264743Y0262996D01*
X0264743Y0263994D02*
X0318966Y0263994D01*
X0318966Y0264993D02*
X0264743Y0264993D01*
X0264743Y0265991D02*
X0318966Y0265991D01*
X0318966Y0266990D02*
X0264743Y0266990D01*
X0261343Y0266990D02*
X0106174Y0266990D01*
X0105047Y0265991D02*
X0261343Y0265991D01*
X0261343Y0264993D02*
X0103920Y0264993D01*
X0102792Y0263994D02*
X0261343Y0263994D01*
X0261343Y0262996D02*
X0101665Y0262996D01*
X0100538Y0261997D02*
X0261343Y0261997D01*
X0261343Y0260999D02*
X0099410Y0260999D01*
X0098283Y0260000D02*
X0261343Y0260000D01*
X0261343Y0259002D02*
X0097155Y0259002D01*
X0096028Y0258003D02*
X0261343Y0258003D01*
X0261343Y0257005D02*
X0094901Y0257005D01*
X0093773Y0256006D02*
X0261343Y0256006D01*
X0261343Y0255008D02*
X0092646Y0255008D01*
X0091519Y0254009D02*
X0261343Y0254009D01*
X0261343Y0267988D02*
X0107302Y0267988D01*
X0108429Y0268987D02*
X0261343Y0268987D01*
X0261343Y0269985D02*
X0109556Y0269985D01*
X0110684Y0270984D02*
X0261343Y0270984D01*
X0261343Y0271982D02*
X0111811Y0271982D01*
X0112938Y0272981D02*
X0261343Y0272981D01*
X0261343Y0273980D02*
X0114066Y0273980D01*
X0115193Y0274978D02*
X0261343Y0274978D01*
X0261343Y0275977D02*
X0116320Y0275977D01*
X0117448Y0276975D02*
X0261343Y0276975D01*
X0261343Y0277974D02*
X0118575Y0277974D01*
X0119703Y0278972D02*
X0261343Y0278972D01*
X0261343Y0279971D02*
X0120830Y0279971D01*
X0121957Y0280969D02*
X0261343Y0280969D01*
X0261343Y0281968D02*
X0123085Y0281968D01*
X0124212Y0282966D02*
X0261343Y0282966D01*
X0261343Y0283965D02*
X0125339Y0283965D01*
X0126467Y0284963D02*
X0261343Y0284963D01*
X0261343Y0285962D02*
X0127594Y0285962D01*
X0128721Y0286960D02*
X0261343Y0286960D01*
X0261343Y0287959D02*
X0129849Y0287959D01*
X0130976Y0288957D02*
X0261343Y0288957D01*
X0261343Y0289956D02*
X0132103Y0289956D01*
X0133231Y0290954D02*
X0261343Y0290954D01*
X0261343Y0291953D02*
X0134358Y0291953D01*
X0132612Y0294948D02*
X0090333Y0294948D01*
X0090333Y0295947D02*
X0133942Y0295947D01*
X0131485Y0293950D02*
X0090258Y0293950D01*
X0089844Y0292951D02*
X0130358Y0292951D01*
X0129230Y0291953D02*
X0088887Y0291953D01*
X0086933Y0294807D02*
X0071972Y0294807D01*
X0071972Y0304650D01*
X0011474Y0304650D01*
X0011474Y0370278D01*
X0011627Y0370013D01*
X0015683Y0365957D01*
X0020650Y0363089D01*
X0026191Y0361605D01*
X0031927Y0361605D01*
X0037468Y0363089D01*
X0042435Y0365957D01*
X0046491Y0370013D01*
X0049359Y0374981D01*
X0050844Y0380522D01*
X0050844Y0386258D01*
X0049359Y0391798D01*
X0046491Y0396766D01*
X0042435Y0400822D01*
X0042171Y0400975D01*
X0606498Y0400975D01*
X0606234Y0400822D01*
X0602178Y0396766D01*
X0599310Y0391798D01*
X0597825Y0386258D01*
X0597825Y0380522D01*
X0599310Y0374981D01*
X0602178Y0370013D01*
X0606234Y0365957D01*
X0611202Y0363089D01*
X0616742Y0361605D01*
X0622478Y0361605D01*
X0628019Y0363089D01*
X0632987Y0365957D01*
X0637043Y0370013D01*
X0637195Y0370278D01*
X0637195Y0304650D01*
X0581075Y0304650D01*
X0549075Y0336146D01*
X0324075Y0336146D01*
X0309612Y0350608D01*
X0309612Y0354171D01*
X0309801Y0354360D01*
X0310302Y0355570D01*
X0310302Y0356879D01*
X0309801Y0358088D01*
X0308876Y0359014D01*
X0307666Y0359515D01*
X0306357Y0359515D01*
X0305148Y0359014D01*
X0304222Y0358088D01*
X0303721Y0356879D01*
X0303721Y0355570D01*
X0304222Y0354360D01*
X0304412Y0354171D01*
X0304412Y0349014D01*
X0304808Y0348059D01*
X0305539Y0347327D01*
X0316721Y0336146D01*
X0179059Y0336146D01*
X0173161Y0330248D01*
X0173161Y0316461D01*
X0086933Y0316461D01*
X0086933Y0294807D01*
X0086933Y0294948D02*
X0071972Y0294948D01*
X0071972Y0295947D02*
X0086933Y0295947D01*
X0086933Y0296945D02*
X0071972Y0296945D01*
X0071972Y0297944D02*
X0086933Y0297944D01*
X0086933Y0298942D02*
X0071972Y0298942D01*
X0071972Y0299941D02*
X0086933Y0299941D01*
X0086933Y0300939D02*
X0071972Y0300939D01*
X0071972Y0301938D02*
X0086933Y0301938D01*
X0086933Y0302936D02*
X0071972Y0302936D01*
X0071972Y0303935D02*
X0086933Y0303935D01*
X0086933Y0304933D02*
X0011474Y0304933D01*
X0011474Y0305932D02*
X0086933Y0305932D01*
X0086933Y0306930D02*
X0011474Y0306930D01*
X0011474Y0307929D02*
X0086933Y0307929D01*
X0086933Y0308927D02*
X0011474Y0308927D01*
X0011474Y0309926D02*
X0086933Y0309926D01*
X0086933Y0310924D02*
X0011474Y0310924D01*
X0011474Y0311923D02*
X0086933Y0311923D01*
X0086933Y0312921D02*
X0011474Y0312921D01*
X0011474Y0313920D02*
X0086933Y0313920D01*
X0086933Y0314918D02*
X0011474Y0314918D01*
X0011474Y0315917D02*
X0086933Y0315917D01*
X0109984Y0312921D02*
X0318966Y0312921D01*
X0318966Y0311923D02*
X0110324Y0311923D01*
X0110324Y0310924D02*
X0318966Y0310924D01*
X0318966Y0309926D02*
X0110324Y0309926D01*
X0110324Y0308927D02*
X0318966Y0308927D01*
X0318966Y0307929D02*
X0110324Y0307929D01*
X0110324Y0306930D02*
X0318966Y0306930D01*
X0318966Y0305932D02*
X0110324Y0305932D01*
X0110324Y0304933D02*
X0318966Y0304933D01*
X0318966Y0303935D02*
X0110324Y0303935D01*
X0109985Y0302936D02*
X0318966Y0302936D01*
X0318966Y0301938D02*
X0109572Y0301938D01*
X0108780Y0300939D02*
X0318966Y0300939D01*
X0318966Y0299941D02*
X0107781Y0299941D01*
X0101067Y0299941D02*
X0097781Y0299941D01*
X0098780Y0300939D02*
X0100068Y0300939D01*
X0091067Y0299941D02*
X0090333Y0299941D01*
X0090333Y0298942D02*
X0318966Y0298942D01*
X0318966Y0297944D02*
X0090333Y0297944D01*
X0090333Y0296945D02*
X0318966Y0296945D01*
X0318966Y0295947D02*
X0262723Y0295947D01*
X0264041Y0294948D02*
X0318966Y0294948D01*
X0318966Y0293950D02*
X0264562Y0293950D01*
X0264743Y0292951D02*
X0318966Y0292951D01*
X0318966Y0291953D02*
X0264743Y0291953D01*
X0264743Y0290954D02*
X0318966Y0290954D01*
X0318966Y0289956D02*
X0264743Y0289956D01*
X0264743Y0288957D02*
X0318966Y0288957D01*
X0318966Y0287959D02*
X0264743Y0287959D01*
X0264743Y0286960D02*
X0318966Y0286960D01*
X0318966Y0285962D02*
X0264743Y0285962D01*
X0264743Y0284963D02*
X0318966Y0284963D01*
X0318966Y0283965D02*
X0264743Y0283965D01*
X0264743Y0282966D02*
X0318966Y0282966D01*
X0318966Y0281968D02*
X0264743Y0281968D01*
X0264743Y0280969D02*
X0318966Y0280969D01*
X0318966Y0279971D02*
X0264743Y0279971D01*
X0264743Y0278972D02*
X0318966Y0278972D01*
X0318966Y0277974D02*
X0264743Y0277974D01*
X0264743Y0276975D02*
X0318966Y0276975D01*
X0318966Y0275977D02*
X0264743Y0275977D01*
X0264743Y0274978D02*
X0318966Y0274978D01*
X0318966Y0273980D02*
X0264743Y0273980D01*
X0264743Y0272981D02*
X0318966Y0272981D01*
X0318966Y0271982D02*
X0264743Y0271982D01*
X0264743Y0270984D02*
X0318966Y0270984D01*
X0329703Y0270984D02*
X0383927Y0270984D01*
X0383927Y0271982D02*
X0329703Y0271982D01*
X0329703Y0272981D02*
X0383927Y0272981D01*
X0383927Y0273980D02*
X0329703Y0273980D01*
X0329703Y0274978D02*
X0383927Y0274978D01*
X0383927Y0275977D02*
X0329703Y0275977D01*
X0329703Y0276975D02*
X0383927Y0276975D01*
X0383927Y0277974D02*
X0329703Y0277974D01*
X0329703Y0278972D02*
X0383927Y0278972D01*
X0383927Y0279971D02*
X0329703Y0279971D01*
X0329703Y0280969D02*
X0383927Y0280969D01*
X0383927Y0281968D02*
X0329703Y0281968D01*
X0329703Y0282966D02*
X0383927Y0282966D01*
X0383927Y0283965D02*
X0329703Y0283965D01*
X0329703Y0284963D02*
X0383927Y0284963D01*
X0383927Y0285962D02*
X0329703Y0285962D01*
X0329703Y0286960D02*
X0383927Y0286960D01*
X0383927Y0287959D02*
X0329703Y0287959D01*
X0329703Y0288957D02*
X0383927Y0288957D01*
X0383927Y0289956D02*
X0329703Y0289956D01*
X0329703Y0290954D02*
X0383927Y0290954D01*
X0383927Y0291953D02*
X0329703Y0291953D01*
X0329703Y0292951D02*
X0383927Y0292951D01*
X0384107Y0293950D02*
X0329703Y0293950D01*
X0329703Y0294948D02*
X0384628Y0294948D01*
X0385946Y0295947D02*
X0329703Y0295947D01*
X0329703Y0296945D02*
X0428363Y0296945D01*
X0428118Y0297944D02*
X0329703Y0297944D01*
X0329703Y0298942D02*
X0428118Y0298942D01*
X0428440Y0299941D02*
X0329703Y0299941D01*
X0329703Y0300939D02*
X0429013Y0300939D01*
X0430180Y0301938D02*
X0329703Y0301938D01*
X0329703Y0302936D02*
X0577969Y0302936D01*
X0578978Y0301938D02*
X0438568Y0301938D01*
X0439735Y0300939D02*
X0636395Y0300939D01*
X0636395Y0299941D02*
X0440308Y0299941D01*
X0440630Y0298942D02*
X0636395Y0298942D01*
X0636395Y0297944D02*
X0440630Y0297944D01*
X0440385Y0296945D02*
X0636395Y0296945D01*
X0636395Y0295947D02*
X0516278Y0295947D01*
X0517605Y0294948D02*
X0636395Y0294948D01*
X0636395Y0293950D02*
X0518666Y0293950D01*
X0519727Y0292951D02*
X0636395Y0292951D01*
X0636395Y0291953D02*
X0520788Y0291953D01*
X0521849Y0290954D02*
X0636395Y0290954D01*
X0636395Y0289956D02*
X0522910Y0289956D01*
X0523971Y0288957D02*
X0636395Y0288957D01*
X0636395Y0287959D02*
X0525032Y0287959D01*
X0526092Y0286960D02*
X0636395Y0286960D01*
X0636395Y0285962D02*
X0527153Y0285962D01*
X0528214Y0284963D02*
X0636395Y0284963D01*
X0636395Y0283965D02*
X0529275Y0283965D01*
X0530336Y0282966D02*
X0636395Y0282966D01*
X0636395Y0281968D02*
X0531397Y0281968D01*
X0532458Y0280969D02*
X0636395Y0280969D01*
X0636395Y0279971D02*
X0533519Y0279971D01*
X0534580Y0278972D02*
X0636395Y0278972D01*
X0636395Y0277974D02*
X0535641Y0277974D01*
X0536702Y0276975D02*
X0636395Y0276975D01*
X0636395Y0275977D02*
X0537763Y0275977D01*
X0538824Y0274978D02*
X0636395Y0274978D01*
X0636395Y0273980D02*
X0539884Y0273980D01*
X0540945Y0272981D02*
X0636395Y0272981D01*
X0636395Y0271982D02*
X0542006Y0271982D01*
X0543067Y0270984D02*
X0636395Y0270984D01*
X0636395Y0269985D02*
X0544128Y0269985D01*
X0545189Y0268987D02*
X0636395Y0268987D01*
X0636395Y0267988D02*
X0546250Y0267988D01*
X0547311Y0266990D02*
X0636395Y0266990D01*
X0636395Y0265991D02*
X0548372Y0265991D01*
X0549433Y0264993D02*
X0636395Y0264993D01*
X0636395Y0263994D02*
X0550494Y0263994D01*
X0551555Y0262996D02*
X0636395Y0262996D01*
X0636395Y0261997D02*
X0552615Y0261997D01*
X0553676Y0260999D02*
X0636395Y0260999D01*
X0636395Y0260000D02*
X0554737Y0260000D01*
X0555798Y0259002D02*
X0636395Y0259002D01*
X0636395Y0258003D02*
X0556859Y0258003D01*
X0557920Y0257005D02*
X0636395Y0257005D01*
X0636395Y0256006D02*
X0558981Y0256006D01*
X0560042Y0255008D02*
X0636395Y0255008D01*
X0636395Y0254009D02*
X0561103Y0254009D01*
X0562164Y0253011D02*
X0636395Y0253011D01*
X0636395Y0252012D02*
X0627241Y0252012D01*
X0626509Y0252744D02*
X0620586Y0252744D01*
X0616397Y0248556D01*
X0616397Y0242633D01*
X0620586Y0238444D01*
X0626509Y0238444D01*
X0630697Y0242633D01*
X0630697Y0248556D01*
X0626509Y0252744D01*
X0628240Y0251014D02*
X0636395Y0251014D01*
X0636395Y0250015D02*
X0629238Y0250015D01*
X0630237Y0249017D02*
X0636395Y0249017D01*
X0636395Y0248018D02*
X0630697Y0248018D01*
X0630697Y0247020D02*
X0636395Y0247020D01*
X0636395Y0246021D02*
X0630697Y0246021D01*
X0630697Y0245023D02*
X0636395Y0245023D01*
X0636395Y0244024D02*
X0630697Y0244024D01*
X0630697Y0243026D02*
X0636395Y0243026D01*
X0636395Y0242027D02*
X0630092Y0242027D01*
X0629093Y0241029D02*
X0636395Y0241029D01*
X0636395Y0240030D02*
X0628095Y0240030D01*
X0627096Y0239032D02*
X0636395Y0239032D01*
X0636395Y0238033D02*
X0571829Y0238033D01*
X0571829Y0237035D02*
X0636395Y0237035D01*
X0636395Y0236036D02*
X0571829Y0236036D01*
X0571829Y0235038D02*
X0636395Y0235038D01*
X0636395Y0234039D02*
X0571829Y0234039D01*
X0571829Y0233041D02*
X0636395Y0233041D01*
X0636395Y0232042D02*
X0571829Y0232042D01*
X0571829Y0231044D02*
X0636395Y0231044D01*
X0636395Y0230045D02*
X0571829Y0230045D01*
X0571829Y0229047D02*
X0636395Y0229047D01*
X0636395Y0228048D02*
X0571829Y0228048D01*
X0571829Y0227049D02*
X0636395Y0227049D01*
X0636395Y0226051D02*
X0571829Y0226051D01*
X0571829Y0225052D02*
X0636395Y0225052D01*
X0636395Y0224054D02*
X0571829Y0224054D01*
X0571829Y0223055D02*
X0636395Y0223055D01*
X0636395Y0222057D02*
X0571829Y0222057D01*
X0571829Y0221058D02*
X0636395Y0221058D01*
X0636395Y0220060D02*
X0610807Y0220060D01*
X0609567Y0220604D02*
X0613671Y0218804D01*
X0613671Y0218804D01*
X0616969Y0215768D01*
X0616969Y0215768D01*
X0616969Y0215768D01*
X0619102Y0211826D01*
X0619102Y0211826D01*
X0619839Y0207406D01*
X0619102Y0202985D01*
X0619102Y0202985D01*
X0616969Y0199043D01*
X0616969Y0199043D01*
X0613671Y0196007D01*
X0613671Y0196007D01*
X0609567Y0194207D01*
X0605100Y0193837D01*
X0600755Y0194937D01*
X0597003Y0197389D01*
X0597003Y0197389D01*
X0594250Y0200925D01*
X0594250Y0200925D01*
X0592795Y0205165D01*
X0592795Y0209646D01*
X0594250Y0213886D01*
X0594250Y0213886D01*
X0597003Y0217422D01*
X0597003Y0217422D01*
X0597003Y0217422D01*
X0600755Y0219874D01*
X0600755Y0219874D01*
X0605100Y0220974D01*
X0605100Y0220974D01*
X0609567Y0220604D01*
X0609567Y0220604D01*
X0613083Y0219061D02*
X0636395Y0219061D01*
X0636395Y0218063D02*
X0614476Y0218063D01*
X0615560Y0217064D02*
X0636395Y0217064D01*
X0636395Y0216066D02*
X0616645Y0216066D01*
X0617348Y0215067D02*
X0636395Y0215067D01*
X0636395Y0214069D02*
X0617888Y0214069D01*
X0618428Y0213070D02*
X0636395Y0213070D01*
X0636395Y0212072D02*
X0618969Y0212072D01*
X0619227Y0211073D02*
X0636395Y0211073D01*
X0636395Y0210075D02*
X0619394Y0210075D01*
X0619561Y0209076D02*
X0636395Y0209076D01*
X0636395Y0208078D02*
X0619727Y0208078D01*
X0619785Y0207079D02*
X0636395Y0207079D01*
X0636395Y0206081D02*
X0619618Y0206081D01*
X0619452Y0205082D02*
X0636395Y0205082D01*
X0636395Y0204084D02*
X0619285Y0204084D01*
X0619118Y0203085D02*
X0636395Y0203085D01*
X0636395Y0202087D02*
X0618616Y0202087D01*
X0618075Y0201088D02*
X0636395Y0201088D01*
X0636395Y0200090D02*
X0617535Y0200090D01*
X0616995Y0199091D02*
X0636395Y0199091D01*
X0636395Y0198093D02*
X0615936Y0198093D01*
X0614852Y0197094D02*
X0636395Y0197094D01*
X0636395Y0196096D02*
X0613767Y0196096D01*
X0611596Y0195097D02*
X0636395Y0195097D01*
X0636395Y0194099D02*
X0608257Y0194099D01*
X0604067Y0194099D02*
X0571829Y0194099D01*
X0571829Y0195097D02*
X0600511Y0195097D01*
X0598982Y0196096D02*
X0571829Y0196096D01*
X0571829Y0197094D02*
X0597454Y0197094D01*
X0596455Y0198093D02*
X0571829Y0198093D01*
X0571829Y0199091D02*
X0595678Y0199091D01*
X0594901Y0200090D02*
X0571829Y0200090D01*
X0571829Y0201088D02*
X0594195Y0201088D01*
X0593852Y0202087D02*
X0571829Y0202087D01*
X0571829Y0203085D02*
X0593509Y0203085D01*
X0593166Y0204084D02*
X0571829Y0204084D01*
X0571829Y0205082D02*
X0592823Y0205082D01*
X0592795Y0206081D02*
X0571829Y0206081D01*
X0571829Y0207079D02*
X0592795Y0207079D01*
X0592795Y0208078D02*
X0571829Y0208078D01*
X0571829Y0209076D02*
X0592795Y0209076D01*
X0592942Y0210075D02*
X0571829Y0210075D01*
X0571829Y0211073D02*
X0593285Y0211073D01*
X0593628Y0212072D02*
X0571829Y0212072D01*
X0571829Y0213070D02*
X0593971Y0213070D01*
X0594393Y0214069D02*
X0571829Y0214069D01*
X0571829Y0215067D02*
X0595170Y0215067D01*
X0595947Y0216066D02*
X0571829Y0216066D01*
X0571829Y0217064D02*
X0596725Y0217064D01*
X0597984Y0218063D02*
X0571829Y0218063D01*
X0571829Y0219061D02*
X0599512Y0219061D01*
X0601490Y0220060D02*
X0571829Y0220060D01*
X0568429Y0220060D02*
X0442445Y0220060D01*
X0442445Y0221058D02*
X0568429Y0221058D01*
X0568429Y0222057D02*
X0442445Y0222057D01*
X0442445Y0223055D02*
X0568429Y0223055D01*
X0568429Y0224054D02*
X0442445Y0224054D01*
X0442445Y0225052D02*
X0568429Y0225052D01*
X0568429Y0226051D02*
X0442445Y0226051D01*
X0442445Y0227049D02*
X0568429Y0227049D01*
X0568429Y0228048D02*
X0442445Y0228048D01*
X0442445Y0229047D02*
X0568429Y0229047D01*
X0568429Y0230045D02*
X0442445Y0230045D01*
X0442445Y0231044D02*
X0568429Y0231044D01*
X0568429Y0232042D02*
X0442445Y0232042D01*
X0442445Y0233041D02*
X0568429Y0233041D01*
X0568429Y0234039D02*
X0442445Y0234039D01*
X0442445Y0235038D02*
X0568429Y0235038D01*
X0568429Y0236036D02*
X0442445Y0236036D01*
X0442445Y0237035D02*
X0568429Y0237035D01*
X0568429Y0238033D02*
X0442445Y0238033D01*
X0442445Y0239032D02*
X0568429Y0239032D01*
X0568429Y0240030D02*
X0442445Y0240030D01*
X0442445Y0241029D02*
X0568429Y0241029D01*
X0568429Y0242027D02*
X0442445Y0242027D01*
X0442445Y0243026D02*
X0567812Y0243026D01*
X0568429Y0242445D02*
X0514886Y0292839D01*
X0387327Y0292839D01*
X0387327Y0253469D01*
X0442445Y0253469D01*
X0442445Y0158587D01*
X0568429Y0158587D01*
X0568429Y0242445D01*
X0566751Y0244024D02*
X0442445Y0244024D01*
X0442445Y0245023D02*
X0565690Y0245023D01*
X0564629Y0246021D02*
X0442445Y0246021D01*
X0442445Y0247020D02*
X0563568Y0247020D01*
X0562507Y0248018D02*
X0442445Y0248018D01*
X0442445Y0249017D02*
X0561447Y0249017D01*
X0560386Y0250015D02*
X0442445Y0250015D01*
X0442445Y0251014D02*
X0559325Y0251014D01*
X0558264Y0252012D02*
X0442445Y0252012D01*
X0442445Y0253011D02*
X0557203Y0253011D01*
X0556142Y0254009D02*
X0387327Y0254009D01*
X0387327Y0255008D02*
X0555081Y0255008D01*
X0554020Y0256006D02*
X0387327Y0256006D01*
X0387327Y0257005D02*
X0552959Y0257005D01*
X0551898Y0258003D02*
X0387327Y0258003D01*
X0387327Y0259002D02*
X0550837Y0259002D01*
X0549776Y0260000D02*
X0387327Y0260000D01*
X0387327Y0260999D02*
X0548716Y0260999D01*
X0547655Y0261997D02*
X0387327Y0261997D01*
X0387327Y0262996D02*
X0546594Y0262996D01*
X0545533Y0263994D02*
X0387327Y0263994D01*
X0387327Y0264993D02*
X0544472Y0264993D01*
X0543411Y0265991D02*
X0387327Y0265991D01*
X0387327Y0266990D02*
X0542350Y0266990D01*
X0541289Y0267988D02*
X0387327Y0267988D01*
X0387327Y0268987D02*
X0540228Y0268987D01*
X0539167Y0269985D02*
X0387327Y0269985D01*
X0387327Y0270984D02*
X0538106Y0270984D01*
X0537045Y0271982D02*
X0387327Y0271982D01*
X0387327Y0272981D02*
X0535984Y0272981D01*
X0534924Y0273980D02*
X0387327Y0273980D01*
X0387327Y0274978D02*
X0533863Y0274978D01*
X0532802Y0275977D02*
X0387327Y0275977D01*
X0387327Y0276975D02*
X0531741Y0276975D01*
X0530680Y0277974D02*
X0387327Y0277974D01*
X0387327Y0278972D02*
X0529619Y0278972D01*
X0528558Y0279971D02*
X0387327Y0279971D01*
X0387327Y0280969D02*
X0527497Y0280969D01*
X0526436Y0281968D02*
X0387327Y0281968D01*
X0387327Y0282966D02*
X0525375Y0282966D01*
X0524314Y0283965D02*
X0387327Y0283965D01*
X0387327Y0284963D02*
X0523253Y0284963D01*
X0522193Y0285962D02*
X0387327Y0285962D01*
X0387327Y0286960D02*
X0521132Y0286960D01*
X0520071Y0287959D02*
X0387327Y0287959D01*
X0387327Y0288957D02*
X0519010Y0288957D01*
X0517949Y0289956D02*
X0387327Y0289956D01*
X0387327Y0290954D02*
X0516888Y0290954D01*
X0515827Y0291953D02*
X0387327Y0291953D01*
X0388696Y0312460D02*
X0394619Y0312460D01*
X0398807Y0316649D01*
X0398807Y0322572D01*
X0394619Y0326760D01*
X0388696Y0326760D01*
X0384507Y0322572D01*
X0384507Y0316649D01*
X0388696Y0312460D01*
X0388235Y0312921D02*
X0329703Y0312921D01*
X0329703Y0311923D02*
X0568838Y0311923D01*
X0567824Y0312921D02*
X0395080Y0312921D01*
X0396079Y0313920D02*
X0566809Y0313920D01*
X0565795Y0314918D02*
X0397077Y0314918D01*
X0398076Y0315917D02*
X0564780Y0315917D01*
X0563766Y0316916D02*
X0398807Y0316916D01*
X0398807Y0317914D02*
X0562751Y0317914D01*
X0561737Y0318913D02*
X0398807Y0318913D01*
X0398807Y0319911D02*
X0560722Y0319911D01*
X0559708Y0320910D02*
X0398807Y0320910D01*
X0398807Y0321908D02*
X0558693Y0321908D01*
X0557679Y0322907D02*
X0398473Y0322907D01*
X0397474Y0323905D02*
X0556664Y0323905D01*
X0555650Y0324904D02*
X0396476Y0324904D01*
X0395477Y0325902D02*
X0554635Y0325902D01*
X0553621Y0326901D02*
X0329703Y0326901D01*
X0329703Y0327899D02*
X0552606Y0327899D01*
X0551592Y0328898D02*
X0329703Y0328898D01*
X0329703Y0329896D02*
X0550577Y0329896D01*
X0549563Y0330895D02*
X0329703Y0330895D01*
X0329703Y0331893D02*
X0548548Y0331893D01*
X0551366Y0333890D02*
X0637195Y0333890D01*
X0637195Y0332892D02*
X0552381Y0332892D01*
X0553395Y0331893D02*
X0637195Y0331893D01*
X0637195Y0330895D02*
X0554410Y0330895D01*
X0555424Y0329896D02*
X0637195Y0329896D01*
X0637195Y0328898D02*
X0556439Y0328898D01*
X0557453Y0327899D02*
X0637195Y0327899D01*
X0637195Y0326901D02*
X0558468Y0326901D01*
X0559482Y0325902D02*
X0637195Y0325902D01*
X0637195Y0324904D02*
X0560497Y0324904D01*
X0561511Y0323905D02*
X0637195Y0323905D01*
X0637195Y0322907D02*
X0562526Y0322907D01*
X0563540Y0321908D02*
X0637195Y0321908D01*
X0637195Y0320910D02*
X0564555Y0320910D01*
X0565569Y0319911D02*
X0637195Y0319911D01*
X0637195Y0318913D02*
X0566584Y0318913D01*
X0567598Y0317914D02*
X0637195Y0317914D01*
X0637195Y0316916D02*
X0568613Y0316916D01*
X0569627Y0315917D02*
X0637195Y0315917D01*
X0637195Y0314918D02*
X0570642Y0314918D01*
X0571656Y0313920D02*
X0637195Y0313920D01*
X0637195Y0312921D02*
X0572671Y0312921D01*
X0573685Y0311923D02*
X0637195Y0311923D01*
X0637195Y0310924D02*
X0574700Y0310924D01*
X0575714Y0309926D02*
X0637195Y0309926D01*
X0637195Y0308927D02*
X0576729Y0308927D01*
X0577743Y0307929D02*
X0637195Y0307929D01*
X0637195Y0306930D02*
X0578758Y0306930D01*
X0579772Y0305932D02*
X0637195Y0305932D01*
X0637195Y0304933D02*
X0580787Y0304933D01*
X0576954Y0303935D02*
X0329703Y0303935D01*
X0329703Y0304933D02*
X0575940Y0304933D01*
X0574925Y0305932D02*
X0329703Y0305932D01*
X0329703Y0306930D02*
X0573911Y0306930D01*
X0572896Y0307929D02*
X0329703Y0307929D01*
X0329703Y0308927D02*
X0571882Y0308927D01*
X0570867Y0309926D02*
X0329703Y0309926D01*
X0329703Y0310924D02*
X0569853Y0310924D01*
X0550352Y0334889D02*
X0611119Y0334889D01*
X0611752Y0334627D02*
X0613296Y0334627D01*
X0614722Y0335218D01*
X0615814Y0336309D01*
X0616405Y0337736D01*
X0616405Y0339280D01*
X0615814Y0340706D01*
X0614722Y0341798D01*
X0613319Y0342379D01*
X0587762Y0367936D01*
X0587762Y0367936D01*
X0586834Y0368865D01*
X0585621Y0369367D01*
X0455174Y0369367D01*
X0453961Y0368865D01*
X0453033Y0367936D01*
X0436566Y0351469D01*
X0331001Y0351469D01*
X0323754Y0358716D01*
X0324082Y0359507D01*
X0324082Y0360816D01*
X0323581Y0362025D01*
X0322655Y0362951D01*
X0321446Y0363452D01*
X0320137Y0363452D01*
X0319346Y0363124D01*
X0303369Y0379101D01*
X0302156Y0379603D01*
X0158324Y0379603D01*
X0157111Y0379101D01*
X0146087Y0368077D01*
X0145159Y0367149D01*
X0144657Y0365936D01*
X0144657Y0346982D01*
X0144633Y0346926D01*
X0110368Y0346926D01*
X0108965Y0347507D01*
X0107421Y0347507D01*
X0105994Y0346916D01*
X0104903Y0345824D01*
X0104312Y0344398D01*
X0104312Y0342854D01*
X0104903Y0341428D01*
X0105994Y0340336D01*
X0107421Y0339745D01*
X0108965Y0339745D01*
X0110368Y0340326D01*
X0147432Y0340326D01*
X0148645Y0340828D01*
X0148752Y0340936D01*
X0150155Y0341517D01*
X0151247Y0342609D01*
X0151838Y0344035D01*
X0151838Y0345579D01*
X0151257Y0346982D01*
X0151257Y0363913D01*
X0160347Y0373003D01*
X0300133Y0373003D01*
X0316419Y0356717D01*
X0327765Y0345372D01*
X0328977Y0344869D01*
X0438589Y0344869D01*
X0439802Y0345372D01*
X0440731Y0346300D01*
X0457198Y0362767D01*
X0583598Y0362767D01*
X0608652Y0337712D01*
X0609233Y0336309D01*
X0610325Y0335218D01*
X0611752Y0334627D01*
X0613928Y0334889D02*
X0637195Y0334889D01*
X0637195Y0335887D02*
X0615392Y0335887D01*
X0616053Y0336886D02*
X0637195Y0336886D01*
X0637195Y0337884D02*
X0616405Y0337884D01*
X0616405Y0338883D02*
X0637195Y0338883D01*
X0637195Y0339881D02*
X0616156Y0339881D01*
X0615640Y0340880D02*
X0637195Y0340880D01*
X0637195Y0341878D02*
X0614529Y0341878D01*
X0612822Y0342877D02*
X0637195Y0342877D01*
X0637195Y0343875D02*
X0611823Y0343875D01*
X0610825Y0344874D02*
X0637195Y0344874D01*
X0637195Y0345872D02*
X0609826Y0345872D01*
X0608828Y0346871D02*
X0637195Y0346871D01*
X0637195Y0347869D02*
X0607829Y0347869D01*
X0606830Y0348868D02*
X0637195Y0348868D01*
X0637195Y0349866D02*
X0605832Y0349866D01*
X0604833Y0350865D02*
X0637195Y0350865D01*
X0637195Y0351863D02*
X0603835Y0351863D01*
X0602836Y0352862D02*
X0637195Y0352862D01*
X0637195Y0353860D02*
X0601838Y0353860D01*
X0600839Y0354859D02*
X0637195Y0354859D01*
X0637195Y0355857D02*
X0599841Y0355857D01*
X0598842Y0356856D02*
X0637195Y0356856D01*
X0637195Y0357854D02*
X0597844Y0357854D01*
X0596845Y0358853D02*
X0637195Y0358853D01*
X0637195Y0359851D02*
X0595847Y0359851D01*
X0594848Y0360850D02*
X0637195Y0360850D01*
X0637195Y0361849D02*
X0623388Y0361849D01*
X0627115Y0362847D02*
X0637195Y0362847D01*
X0637195Y0363846D02*
X0629329Y0363846D01*
X0631058Y0364844D02*
X0637195Y0364844D01*
X0637195Y0365843D02*
X0632788Y0365843D01*
X0633870Y0366841D02*
X0637195Y0366841D01*
X0637195Y0367840D02*
X0634869Y0367840D01*
X0635867Y0368838D02*
X0637195Y0368838D01*
X0637195Y0369837D02*
X0636866Y0369837D01*
X0615832Y0361849D02*
X0593850Y0361849D01*
X0592851Y0362847D02*
X0612106Y0362847D01*
X0609892Y0363846D02*
X0591853Y0363846D01*
X0590854Y0364844D02*
X0608162Y0364844D01*
X0606433Y0365843D02*
X0589856Y0365843D01*
X0588857Y0366841D02*
X0605350Y0366841D01*
X0604352Y0367840D02*
X0587859Y0367840D01*
X0586860Y0368838D02*
X0603353Y0368838D01*
X0602355Y0369837D02*
X0312633Y0369837D01*
X0311635Y0370835D02*
X0601703Y0370835D01*
X0601127Y0371834D02*
X0310636Y0371834D01*
X0309638Y0372832D02*
X0343816Y0372832D01*
X0344560Y0372524D02*
X0346588Y0372524D01*
X0348463Y0373300D01*
X0349898Y0374735D01*
X0350574Y0376368D01*
X0351250Y0374735D01*
X0352685Y0373300D01*
X0354560Y0372524D01*
X0356588Y0372524D01*
X0358463Y0373300D01*
X0359898Y0374735D01*
X0360574Y0376368D01*
X0361250Y0374735D01*
X0362685Y0373300D01*
X0364560Y0372524D01*
X0366588Y0372524D01*
X0368463Y0373300D01*
X0369898Y0374735D01*
X0370574Y0376368D01*
X0371250Y0374735D01*
X0372685Y0373300D01*
X0374560Y0372524D01*
X0376588Y0372524D01*
X0378463Y0373300D01*
X0379898Y0374735D01*
X0380574Y0376368D01*
X0381250Y0374735D01*
X0382685Y0373300D01*
X0384560Y0372524D01*
X0386588Y0372524D01*
X0388463Y0373300D01*
X0389898Y0374735D01*
X0390574Y0376368D01*
X0391250Y0374735D01*
X0392685Y0373300D01*
X0394560Y0372524D01*
X0396588Y0372524D01*
X0398463Y0373300D01*
X0399898Y0374735D01*
X0400574Y0376368D01*
X0401250Y0374735D01*
X0402685Y0373300D01*
X0404560Y0372524D01*
X0406588Y0372524D01*
X0408463Y0373300D01*
X0409898Y0374735D01*
X0410574Y0376368D01*
X0411250Y0374735D01*
X0412685Y0373300D01*
X0414560Y0372524D01*
X0416588Y0372524D01*
X0418463Y0373300D01*
X0419898Y0374735D01*
X0420674Y0376610D01*
X0420674Y0384638D01*
X0419898Y0386513D01*
X0418463Y0387948D01*
X0416588Y0388724D01*
X0414560Y0388724D01*
X0412685Y0387948D01*
X0411250Y0386513D01*
X0410574Y0384880D01*
X0409898Y0386513D01*
X0408463Y0387948D01*
X0406588Y0388724D01*
X0404560Y0388724D01*
X0402685Y0387948D01*
X0401250Y0386513D01*
X0400574Y0384880D01*
X0399898Y0386513D01*
X0398463Y0387948D01*
X0396588Y0388724D01*
X0394560Y0388724D01*
X0392685Y0387948D01*
X0391250Y0386513D01*
X0390574Y0384880D01*
X0389898Y0386513D01*
X0388463Y0387948D01*
X0386588Y0388724D01*
X0384560Y0388724D01*
X0382685Y0387948D01*
X0381250Y0386513D01*
X0380574Y0384880D01*
X0379898Y0386513D01*
X0378463Y0387948D01*
X0376588Y0388724D01*
X0374560Y0388724D01*
X0372685Y0387948D01*
X0371250Y0386513D01*
X0370574Y0384880D01*
X0369898Y0386513D01*
X0368463Y0387948D01*
X0366588Y0388724D01*
X0364560Y0388724D01*
X0362685Y0387948D01*
X0361250Y0386513D01*
X0360574Y0384880D01*
X0359898Y0386513D01*
X0358463Y0387948D01*
X0356588Y0388724D01*
X0354560Y0388724D01*
X0352685Y0387948D01*
X0351250Y0386513D01*
X0350574Y0384880D01*
X0349898Y0386513D01*
X0348463Y0387948D01*
X0346588Y0388724D01*
X0344560Y0388724D01*
X0342685Y0387948D01*
X0341250Y0386513D01*
X0340474Y0384638D01*
X0340474Y0376610D01*
X0341250Y0374735D01*
X0342685Y0373300D01*
X0344560Y0372524D01*
X0342155Y0373831D02*
X0308639Y0373831D01*
X0307641Y0374829D02*
X0341211Y0374829D01*
X0340798Y0375828D02*
X0306642Y0375828D01*
X0305644Y0376826D02*
X0340474Y0376826D01*
X0340474Y0377825D02*
X0304645Y0377825D01*
X0303647Y0378823D02*
X0340474Y0378823D01*
X0340474Y0379822D02*
X0050657Y0379822D01*
X0050844Y0380820D02*
X0340474Y0380820D01*
X0340474Y0381819D02*
X0050844Y0381819D01*
X0050844Y0382817D02*
X0340474Y0382817D01*
X0340474Y0383816D02*
X0050844Y0383816D01*
X0050844Y0384814D02*
X0340547Y0384814D01*
X0340960Y0385813D02*
X0050844Y0385813D01*
X0050696Y0386811D02*
X0341549Y0386811D01*
X0342547Y0387810D02*
X0050428Y0387810D01*
X0050161Y0388808D02*
X0598509Y0388808D01*
X0598241Y0387810D02*
X0418601Y0387810D01*
X0419599Y0386811D02*
X0597974Y0386811D01*
X0597825Y0385813D02*
X0420188Y0385813D01*
X0420601Y0384814D02*
X0597825Y0384814D01*
X0597825Y0383816D02*
X0420674Y0383816D01*
X0420674Y0382817D02*
X0597825Y0382817D01*
X0597825Y0381819D02*
X0420674Y0381819D01*
X0420674Y0380820D02*
X0597825Y0380820D01*
X0598013Y0379822D02*
X0420674Y0379822D01*
X0420674Y0378823D02*
X0598280Y0378823D01*
X0598548Y0377825D02*
X0420674Y0377825D01*
X0420674Y0376826D02*
X0598815Y0376826D01*
X0599083Y0375828D02*
X0420350Y0375828D01*
X0419937Y0374829D02*
X0599397Y0374829D01*
X0599974Y0373831D02*
X0418993Y0373831D01*
X0417332Y0372832D02*
X0600550Y0372832D01*
X0587512Y0358853D02*
X0453284Y0358853D01*
X0454282Y0359851D02*
X0586513Y0359851D01*
X0585515Y0360850D02*
X0455281Y0360850D01*
X0456279Y0361849D02*
X0584516Y0361849D01*
X0588510Y0357854D02*
X0452285Y0357854D01*
X0451287Y0356856D02*
X0589509Y0356856D01*
X0590507Y0355857D02*
X0450288Y0355857D01*
X0449290Y0354859D02*
X0591506Y0354859D01*
X0592504Y0353860D02*
X0448291Y0353860D01*
X0447293Y0352862D02*
X0593503Y0352862D01*
X0594501Y0351863D02*
X0446294Y0351863D01*
X0445296Y0350865D02*
X0595500Y0350865D01*
X0596498Y0349866D02*
X0444297Y0349866D01*
X0443299Y0348868D02*
X0597497Y0348868D01*
X0598495Y0347869D02*
X0442300Y0347869D01*
X0441302Y0346871D02*
X0599494Y0346871D01*
X0600492Y0345872D02*
X0440303Y0345872D01*
X0440731Y0346300D02*
X0440731Y0346300D01*
X0438600Y0344874D02*
X0601491Y0344874D01*
X0602489Y0343875D02*
X0316345Y0343875D01*
X0317343Y0342877D02*
X0603488Y0342877D01*
X0604486Y0341878D02*
X0318342Y0341878D01*
X0319340Y0340880D02*
X0605485Y0340880D01*
X0606483Y0339881D02*
X0320339Y0339881D01*
X0321337Y0338883D02*
X0607482Y0338883D01*
X0608480Y0337884D02*
X0322336Y0337884D01*
X0323335Y0336886D02*
X0608995Y0336886D01*
X0609656Y0335887D02*
X0549337Y0335887D01*
X0598776Y0389807D02*
X0049893Y0389807D01*
X0049626Y0390805D02*
X0599044Y0390805D01*
X0599313Y0391804D02*
X0049356Y0391804D01*
X0048780Y0392802D02*
X0599889Y0392802D01*
X0600466Y0393801D02*
X0048203Y0393801D01*
X0047627Y0394799D02*
X0601042Y0394799D01*
X0601619Y0395798D02*
X0047050Y0395798D01*
X0046461Y0396796D02*
X0602208Y0396796D01*
X0603207Y0397795D02*
X0045463Y0397795D01*
X0044464Y0398793D02*
X0604205Y0398793D01*
X0605204Y0399792D02*
X0043466Y0399792D01*
X0042467Y0400790D02*
X0606202Y0400790D01*
X0453935Y0368838D02*
X0313632Y0368838D01*
X0314630Y0367840D02*
X0452936Y0367840D01*
X0453033Y0367936D02*
X0453033Y0367936D01*
X0451938Y0366841D02*
X0315629Y0366841D01*
X0316627Y0365843D02*
X0450939Y0365843D01*
X0449941Y0364844D02*
X0317626Y0364844D01*
X0318624Y0363846D02*
X0448942Y0363846D01*
X0447944Y0362847D02*
X0322759Y0362847D01*
X0323654Y0361849D02*
X0446945Y0361849D01*
X0445947Y0360850D02*
X0324068Y0360850D01*
X0324082Y0359851D02*
X0444948Y0359851D01*
X0443950Y0358853D02*
X0323811Y0358853D01*
X0324616Y0357854D02*
X0442951Y0357854D01*
X0441953Y0356856D02*
X0325614Y0356856D01*
X0326613Y0355857D02*
X0440954Y0355857D01*
X0439956Y0354859D02*
X0327611Y0354859D01*
X0328610Y0353860D02*
X0438957Y0353860D01*
X0437959Y0352862D02*
X0329608Y0352862D01*
X0330607Y0351863D02*
X0436960Y0351863D01*
X0413816Y0372832D02*
X0407332Y0372832D01*
X0408993Y0373831D02*
X0412155Y0373831D01*
X0411211Y0374829D02*
X0409937Y0374829D01*
X0410350Y0375828D02*
X0410798Y0375828D01*
X0403816Y0372832D02*
X0397332Y0372832D01*
X0398993Y0373831D02*
X0402155Y0373831D01*
X0401211Y0374829D02*
X0399937Y0374829D01*
X0400350Y0375828D02*
X0400798Y0375828D01*
X0393816Y0372832D02*
X0387332Y0372832D01*
X0388993Y0373831D02*
X0392155Y0373831D01*
X0391211Y0374829D02*
X0389937Y0374829D01*
X0390350Y0375828D02*
X0390798Y0375828D01*
X0383816Y0372832D02*
X0377332Y0372832D01*
X0378993Y0373831D02*
X0382155Y0373831D01*
X0381211Y0374829D02*
X0379937Y0374829D01*
X0380350Y0375828D02*
X0380798Y0375828D01*
X0373816Y0372832D02*
X0367332Y0372832D01*
X0368993Y0373831D02*
X0372155Y0373831D01*
X0371211Y0374829D02*
X0369937Y0374829D01*
X0370350Y0375828D02*
X0370798Y0375828D01*
X0363816Y0372832D02*
X0357332Y0372832D01*
X0358993Y0373831D02*
X0362155Y0373831D01*
X0361211Y0374829D02*
X0359937Y0374829D01*
X0360350Y0375828D02*
X0360798Y0375828D01*
X0353816Y0372832D02*
X0347332Y0372832D01*
X0348993Y0373831D02*
X0352155Y0373831D01*
X0351211Y0374829D02*
X0349937Y0374829D01*
X0350350Y0375828D02*
X0350798Y0375828D01*
X0350960Y0385813D02*
X0350188Y0385813D01*
X0349599Y0386811D02*
X0351549Y0386811D01*
X0352547Y0387810D02*
X0348601Y0387810D01*
X0358601Y0387810D02*
X0362547Y0387810D01*
X0361549Y0386811D02*
X0359599Y0386811D01*
X0360188Y0385813D02*
X0360960Y0385813D01*
X0368601Y0387810D02*
X0372547Y0387810D01*
X0371549Y0386811D02*
X0369599Y0386811D01*
X0370188Y0385813D02*
X0370960Y0385813D01*
X0378601Y0387810D02*
X0382547Y0387810D01*
X0381549Y0386811D02*
X0379599Y0386811D01*
X0380188Y0385813D02*
X0380960Y0385813D01*
X0388601Y0387810D02*
X0392547Y0387810D01*
X0391549Y0386811D02*
X0389599Y0386811D01*
X0390188Y0385813D02*
X0390960Y0385813D01*
X0398601Y0387810D02*
X0402547Y0387810D01*
X0401549Y0386811D02*
X0399599Y0386811D01*
X0400188Y0385813D02*
X0400960Y0385813D01*
X0408601Y0387810D02*
X0412547Y0387810D01*
X0411549Y0386811D02*
X0409599Y0386811D01*
X0410188Y0385813D02*
X0410960Y0385813D01*
X0328966Y0344874D02*
X0315346Y0344874D01*
X0314348Y0345872D02*
X0327264Y0345872D01*
X0326265Y0346871D02*
X0313349Y0346871D01*
X0312351Y0347869D02*
X0325267Y0347869D01*
X0324268Y0348868D02*
X0311352Y0348868D01*
X0310354Y0349866D02*
X0323270Y0349866D01*
X0322271Y0350865D02*
X0309612Y0350865D01*
X0309612Y0351863D02*
X0321273Y0351863D01*
X0320274Y0352862D02*
X0309612Y0352862D01*
X0309612Y0353860D02*
X0319276Y0353860D01*
X0318277Y0354859D02*
X0310008Y0354859D01*
X0310302Y0355857D02*
X0317279Y0355857D01*
X0316280Y0356856D02*
X0310302Y0356856D01*
X0309898Y0357854D02*
X0315282Y0357854D01*
X0314283Y0358853D02*
X0309037Y0358853D01*
X0307012Y0356224D02*
X0307012Y0349531D01*
X0322366Y0334177D01*
X0322366Y0253075D01*
X0320594Y0251303D01*
X0320594Y0251106D01*
X0326303Y0253469D02*
X0326303Y0338114D01*
X0325909Y0338508D01*
X0315981Y0336886D02*
X0099153Y0336886D01*
X0098568Y0336301D02*
X0100045Y0337778D01*
X0100844Y0339708D01*
X0100844Y0341796D01*
X0100045Y0343726D01*
X0098568Y0345203D01*
X0096639Y0346002D01*
X0094550Y0346002D01*
X0092621Y0345203D01*
X0091144Y0343726D01*
X0090344Y0341796D01*
X0090344Y0339708D01*
X0091144Y0337778D01*
X0092621Y0336301D01*
X0094550Y0335502D01*
X0096639Y0335502D01*
X0098568Y0336301D01*
X0097569Y0335887D02*
X0178801Y0335887D01*
X0177802Y0334889D02*
X0011474Y0334889D01*
X0011474Y0335887D02*
X0093620Y0335887D01*
X0092036Y0336886D02*
X0011474Y0336886D01*
X0011474Y0337884D02*
X0091100Y0337884D01*
X0090686Y0338883D02*
X0011474Y0338883D01*
X0011474Y0339881D02*
X0090344Y0339881D01*
X0090344Y0340880D02*
X0011474Y0340880D01*
X0011474Y0341878D02*
X0090378Y0341878D01*
X0090792Y0342877D02*
X0011474Y0342877D01*
X0011474Y0343875D02*
X0091293Y0343875D01*
X0092292Y0344874D02*
X0011474Y0344874D01*
X0011474Y0345872D02*
X0094237Y0345872D01*
X0096952Y0345872D02*
X0104951Y0345872D01*
X0104509Y0344874D02*
X0098897Y0344874D01*
X0099896Y0343875D02*
X0104312Y0343875D01*
X0104312Y0342877D02*
X0100397Y0342877D01*
X0100811Y0341878D02*
X0104716Y0341878D01*
X0105450Y0340880D02*
X0100844Y0340880D01*
X0100844Y0339881D02*
X0107092Y0339881D01*
X0109294Y0339881D02*
X0312985Y0339881D01*
X0313984Y0338883D02*
X0100503Y0338883D01*
X0100089Y0337884D02*
X0314982Y0337884D01*
X0311987Y0340880D02*
X0148696Y0340880D01*
X0150517Y0341878D02*
X0310988Y0341878D01*
X0309990Y0342877D02*
X0151358Y0342877D01*
X0151772Y0343875D02*
X0308991Y0343875D01*
X0307993Y0344874D02*
X0151838Y0344874D01*
X0151716Y0345872D02*
X0306994Y0345872D01*
X0305996Y0346871D02*
X0151303Y0346871D01*
X0151257Y0347869D02*
X0304997Y0347869D01*
X0304472Y0348868D02*
X0151257Y0348868D01*
X0151257Y0349866D02*
X0304412Y0349866D01*
X0304412Y0350865D02*
X0151257Y0350865D01*
X0151257Y0351863D02*
X0304412Y0351863D01*
X0304412Y0352862D02*
X0151257Y0352862D01*
X0151257Y0353860D02*
X0304412Y0353860D01*
X0304016Y0354859D02*
X0151257Y0354859D01*
X0151257Y0355857D02*
X0303721Y0355857D01*
X0303721Y0356856D02*
X0151257Y0356856D01*
X0151257Y0357854D02*
X0304125Y0357854D01*
X0304987Y0358853D02*
X0151257Y0358853D01*
X0151257Y0359851D02*
X0313285Y0359851D01*
X0312286Y0360850D02*
X0151257Y0360850D01*
X0151257Y0361849D02*
X0311288Y0361849D01*
X0310289Y0362847D02*
X0151257Y0362847D01*
X0151257Y0363846D02*
X0309291Y0363846D01*
X0308292Y0364844D02*
X0152188Y0364844D01*
X0153187Y0365843D02*
X0307294Y0365843D01*
X0306295Y0366841D02*
X0154185Y0366841D01*
X0155184Y0367840D02*
X0305297Y0367840D01*
X0304298Y0368838D02*
X0156182Y0368838D01*
X0157181Y0369837D02*
X0303300Y0369837D01*
X0302301Y0370835D02*
X0158179Y0370835D01*
X0159178Y0371834D02*
X0301303Y0371834D01*
X0300304Y0372832D02*
X0160176Y0372832D01*
X0155835Y0377825D02*
X0135041Y0377825D01*
X0135398Y0377468D02*
X0133963Y0378902D01*
X0132088Y0379679D01*
X0130060Y0379679D01*
X0128185Y0378902D01*
X0126750Y0377468D01*
X0125974Y0375593D01*
X0125974Y0367564D01*
X0126750Y0365690D01*
X0128185Y0364255D01*
X0130060Y0363479D01*
X0132088Y0363479D01*
X0133963Y0364255D01*
X0135398Y0365690D01*
X0136174Y0367564D01*
X0136174Y0375593D01*
X0135398Y0377468D01*
X0135663Y0376826D02*
X0154836Y0376826D01*
X0153838Y0375828D02*
X0136077Y0375828D01*
X0136174Y0374829D02*
X0152839Y0374829D01*
X0151841Y0373831D02*
X0136174Y0373831D01*
X0136174Y0372832D02*
X0150842Y0372832D01*
X0149844Y0371834D02*
X0136174Y0371834D01*
X0136174Y0370835D02*
X0148845Y0370835D01*
X0147847Y0369837D02*
X0136174Y0369837D01*
X0136174Y0368838D02*
X0146848Y0368838D01*
X0145850Y0367840D02*
X0136174Y0367840D01*
X0135874Y0366841D02*
X0145032Y0366841D01*
X0144657Y0365843D02*
X0135461Y0365843D01*
X0134552Y0364844D02*
X0144657Y0364844D01*
X0144657Y0363846D02*
X0132974Y0363846D01*
X0129174Y0363846D02*
X0112974Y0363846D01*
X0112088Y0363479D02*
X0113963Y0364255D01*
X0115398Y0365690D01*
X0116174Y0367564D01*
X0116174Y0375593D01*
X0115398Y0377468D01*
X0113963Y0378902D01*
X0112088Y0379679D01*
X0110060Y0379679D01*
X0108185Y0378902D01*
X0106750Y0377468D01*
X0105974Y0375593D01*
X0105974Y0367564D01*
X0106750Y0365690D01*
X0108185Y0364255D01*
X0110060Y0363479D01*
X0112088Y0363479D01*
X0114552Y0364844D02*
X0127596Y0364844D01*
X0126687Y0365843D02*
X0115461Y0365843D01*
X0115874Y0366841D02*
X0126274Y0366841D01*
X0125974Y0367840D02*
X0116174Y0367840D01*
X0116174Y0368838D02*
X0125974Y0368838D01*
X0125974Y0369837D02*
X0116174Y0369837D01*
X0116174Y0370835D02*
X0125974Y0370835D01*
X0125974Y0371834D02*
X0116174Y0371834D01*
X0116174Y0372832D02*
X0125974Y0372832D01*
X0125974Y0373831D02*
X0116174Y0373831D01*
X0116174Y0374829D02*
X0125974Y0374829D01*
X0126071Y0375828D02*
X0116077Y0375828D01*
X0115663Y0376826D02*
X0126485Y0376826D01*
X0127107Y0377825D02*
X0115041Y0377825D01*
X0114042Y0378823D02*
X0128106Y0378823D01*
X0134042Y0378823D02*
X0156833Y0378823D01*
X0144657Y0362847D02*
X0036563Y0362847D01*
X0038778Y0363846D02*
X0089174Y0363846D01*
X0090060Y0363479D02*
X0092088Y0363479D01*
X0093963Y0364255D01*
X0095398Y0365690D01*
X0096174Y0367564D01*
X0096174Y0375593D01*
X0095398Y0377468D01*
X0093963Y0378902D01*
X0092088Y0379679D01*
X0090060Y0379679D01*
X0088185Y0378902D01*
X0086750Y0377468D01*
X0085974Y0375593D01*
X0085974Y0367564D01*
X0086750Y0365690D01*
X0088185Y0364255D01*
X0090060Y0363479D01*
X0087596Y0364844D02*
X0040507Y0364844D01*
X0042236Y0365843D02*
X0086687Y0365843D01*
X0086274Y0366841D02*
X0043319Y0366841D01*
X0044318Y0367840D02*
X0085974Y0367840D01*
X0085974Y0368838D02*
X0045316Y0368838D01*
X0046315Y0369837D02*
X0085974Y0369837D01*
X0085974Y0370835D02*
X0046966Y0370835D01*
X0047542Y0371834D02*
X0085974Y0371834D01*
X0085974Y0372832D02*
X0048119Y0372832D01*
X0048695Y0373831D02*
X0085974Y0373831D01*
X0085974Y0374829D02*
X0049272Y0374829D01*
X0049586Y0375828D02*
X0086071Y0375828D01*
X0086485Y0376826D02*
X0049854Y0376826D01*
X0050121Y0377825D02*
X0087107Y0377825D01*
X0088106Y0378823D02*
X0050389Y0378823D01*
X0032837Y0361849D02*
X0144657Y0361849D01*
X0144657Y0360850D02*
X0011474Y0360850D01*
X0011474Y0361849D02*
X0025281Y0361849D01*
X0021555Y0362847D02*
X0011474Y0362847D01*
X0011474Y0363846D02*
X0019341Y0363846D01*
X0017611Y0364844D02*
X0011474Y0364844D01*
X0011474Y0365843D02*
X0015882Y0365843D01*
X0014799Y0366841D02*
X0011474Y0366841D01*
X0011474Y0367840D02*
X0013801Y0367840D01*
X0012802Y0368838D02*
X0011474Y0368838D01*
X0011474Y0369837D02*
X0011804Y0369837D01*
X0011474Y0359851D02*
X0144657Y0359851D01*
X0144657Y0358853D02*
X0011474Y0358853D01*
X0011474Y0357854D02*
X0144657Y0357854D01*
X0144657Y0356856D02*
X0011474Y0356856D01*
X0011474Y0355857D02*
X0144657Y0355857D01*
X0144657Y0354859D02*
X0011474Y0354859D01*
X0011474Y0353860D02*
X0144657Y0353860D01*
X0144657Y0352862D02*
X0011474Y0352862D01*
X0011474Y0351863D02*
X0144657Y0351863D01*
X0144657Y0350865D02*
X0011474Y0350865D01*
X0011474Y0349866D02*
X0144657Y0349866D01*
X0144657Y0348868D02*
X0011474Y0348868D01*
X0011474Y0347869D02*
X0144657Y0347869D01*
X0173808Y0330895D02*
X0011474Y0330895D01*
X0011474Y0331893D02*
X0174807Y0331893D01*
X0175805Y0332892D02*
X0011474Y0332892D01*
X0011474Y0333890D02*
X0176804Y0333890D01*
X0179615Y0331893D02*
X0243041Y0331893D01*
X0242775Y0330895D02*
X0178616Y0330895D01*
X0177618Y0329896D02*
X0242775Y0329896D01*
X0242775Y0328898D02*
X0176619Y0328898D01*
X0176561Y0327899D02*
X0242775Y0327899D01*
X0242775Y0326901D02*
X0176561Y0326901D01*
X0176561Y0325902D02*
X0242775Y0325902D01*
X0243575Y0324904D02*
X0176561Y0324904D01*
X0176561Y0323905D02*
X0244574Y0323905D01*
X0245572Y0322907D02*
X0176561Y0322907D01*
X0176561Y0321908D02*
X0246571Y0321908D01*
X0253280Y0321908D02*
X0259169Y0321908D01*
X0258171Y0322907D02*
X0254278Y0322907D01*
X0255277Y0323905D02*
X0257172Y0323905D01*
X0265878Y0321908D02*
X0318966Y0321908D01*
X0318966Y0320910D02*
X0176561Y0320910D01*
X0176561Y0319911D02*
X0318966Y0319911D01*
X0318966Y0318913D02*
X0176561Y0318913D01*
X0176561Y0317914D02*
X0318966Y0317914D01*
X0318966Y0316916D02*
X0176561Y0316916D01*
X0176561Y0315917D02*
X0318966Y0315917D01*
X0318966Y0314918D02*
X0176203Y0314918D01*
X0175429Y0313920D02*
X0318966Y0313920D01*
X0318966Y0322907D02*
X0266876Y0322907D01*
X0267875Y0323905D02*
X0318966Y0323905D01*
X0318966Y0324904D02*
X0268873Y0324904D01*
X0269674Y0325902D02*
X0318966Y0325902D01*
X0318966Y0326901D02*
X0269674Y0326901D01*
X0269674Y0327899D02*
X0318966Y0327899D01*
X0318966Y0328898D02*
X0269674Y0328898D01*
X0269674Y0329896D02*
X0318966Y0329896D01*
X0318966Y0330895D02*
X0269674Y0330895D01*
X0269407Y0331893D02*
X0318966Y0331893D01*
X0329703Y0325902D02*
X0387838Y0325902D01*
X0386839Y0324904D02*
X0329703Y0324904D01*
X0329703Y0323905D02*
X0385841Y0323905D01*
X0384842Y0322907D02*
X0329703Y0322907D01*
X0329703Y0321908D02*
X0384507Y0321908D01*
X0384507Y0320910D02*
X0329703Y0320910D01*
X0329703Y0319911D02*
X0384507Y0319911D01*
X0384507Y0318913D02*
X0329703Y0318913D01*
X0329703Y0317914D02*
X0384507Y0317914D01*
X0384507Y0316916D02*
X0329703Y0316916D01*
X0329703Y0315917D02*
X0385239Y0315917D01*
X0386238Y0314918D02*
X0329703Y0314918D01*
X0329703Y0313920D02*
X0387236Y0313920D01*
X0434237Y0301938D02*
X0434511Y0301938D01*
X0383927Y0266990D02*
X0329703Y0266990D01*
X0329703Y0265991D02*
X0383927Y0265991D01*
X0383927Y0264993D02*
X0329703Y0264993D01*
X0329703Y0263994D02*
X0383927Y0263994D01*
X0383927Y0262996D02*
X0329703Y0262996D01*
X0329703Y0261997D02*
X0383927Y0261997D01*
X0383927Y0260999D02*
X0329703Y0260999D01*
X0329703Y0260000D02*
X0383927Y0260000D01*
X0383927Y0259002D02*
X0329703Y0259002D01*
X0329703Y0258003D02*
X0383927Y0258003D01*
X0383927Y0257005D02*
X0329703Y0257005D01*
X0332788Y0256006D02*
X0383927Y0256006D01*
X0383927Y0255008D02*
X0333380Y0255008D01*
X0333534Y0254009D02*
X0383927Y0254009D01*
X0383927Y0253011D02*
X0333534Y0253011D01*
X0333534Y0252012D02*
X0384250Y0252012D01*
X0384973Y0251014D02*
X0333534Y0251014D01*
X0333534Y0250015D02*
X0439045Y0250015D01*
X0439045Y0249017D02*
X0333534Y0249017D01*
X0333534Y0248018D02*
X0439045Y0248018D01*
X0439045Y0247020D02*
X0333303Y0247020D01*
X0332603Y0246021D02*
X0439045Y0246021D01*
X0439045Y0245023D02*
X0325909Y0245023D01*
X0325909Y0244024D02*
X0439045Y0244024D01*
X0439045Y0243026D02*
X0325909Y0243026D01*
X0325909Y0242027D02*
X0439045Y0242027D01*
X0439045Y0241029D02*
X0325909Y0241029D01*
X0325909Y0240030D02*
X0439045Y0240030D01*
X0439045Y0239032D02*
X0325909Y0239032D01*
X0325909Y0238033D02*
X0439045Y0238033D01*
X0439045Y0237035D02*
X0325909Y0237035D01*
X0325909Y0236036D02*
X0439045Y0236036D01*
X0439045Y0235038D02*
X0325909Y0235038D01*
X0325909Y0234039D02*
X0439045Y0234039D01*
X0439045Y0233041D02*
X0325909Y0233041D01*
X0325909Y0232042D02*
X0439045Y0232042D01*
X0439045Y0231044D02*
X0325909Y0231044D01*
X0325909Y0230045D02*
X0439045Y0230045D01*
X0439045Y0229047D02*
X0325909Y0229047D01*
X0325909Y0228048D02*
X0439045Y0228048D01*
X0439045Y0227049D02*
X0325909Y0227049D01*
X0325909Y0226051D02*
X0439045Y0226051D01*
X0439045Y0225052D02*
X0325909Y0225052D01*
X0325909Y0224054D02*
X0439045Y0224054D01*
X0439045Y0223055D02*
X0325909Y0223055D01*
X0325909Y0222057D02*
X0439045Y0222057D01*
X0439045Y0221058D02*
X0325909Y0221058D01*
X0325909Y0220060D02*
X0439045Y0220060D01*
X0442445Y0219061D02*
X0568429Y0219061D01*
X0568429Y0218063D02*
X0442445Y0218063D01*
X0442445Y0217064D02*
X0568429Y0217064D01*
X0568429Y0216066D02*
X0442445Y0216066D01*
X0442445Y0215067D02*
X0568429Y0215067D01*
X0568429Y0214069D02*
X0442445Y0214069D01*
X0442445Y0213070D02*
X0568429Y0213070D01*
X0568429Y0212072D02*
X0442445Y0212072D01*
X0442445Y0211073D02*
X0568429Y0211073D01*
X0568429Y0210075D02*
X0442445Y0210075D01*
X0442445Y0209076D02*
X0568429Y0209076D01*
X0568429Y0208078D02*
X0442445Y0208078D01*
X0442445Y0207079D02*
X0568429Y0207079D01*
X0568429Y0206081D02*
X0442445Y0206081D01*
X0442445Y0205082D02*
X0568429Y0205082D01*
X0568429Y0204084D02*
X0442445Y0204084D01*
X0442445Y0203085D02*
X0568429Y0203085D01*
X0568429Y0202087D02*
X0442445Y0202087D01*
X0442445Y0201088D02*
X0568429Y0201088D01*
X0568429Y0200090D02*
X0442445Y0200090D01*
X0442445Y0199091D02*
X0568429Y0199091D01*
X0568429Y0198093D02*
X0442445Y0198093D01*
X0442445Y0197094D02*
X0568429Y0197094D01*
X0568429Y0196096D02*
X0442445Y0196096D01*
X0442445Y0195097D02*
X0568429Y0195097D01*
X0568429Y0194099D02*
X0442445Y0194099D01*
X0442445Y0193100D02*
X0568429Y0193100D01*
X0568429Y0192102D02*
X0442445Y0192102D01*
X0442445Y0191103D02*
X0568429Y0191103D01*
X0568429Y0190105D02*
X0442445Y0190105D01*
X0442445Y0189106D02*
X0568429Y0189106D01*
X0568429Y0188108D02*
X0442445Y0188108D01*
X0442445Y0187109D02*
X0568429Y0187109D01*
X0568429Y0186111D02*
X0442445Y0186111D01*
X0442445Y0185112D02*
X0568429Y0185112D01*
X0568429Y0184113D02*
X0442445Y0184113D01*
X0442445Y0183115D02*
X0568429Y0183115D01*
X0568429Y0182116D02*
X0442445Y0182116D01*
X0442445Y0181118D02*
X0568429Y0181118D01*
X0568429Y0180119D02*
X0442445Y0180119D01*
X0442445Y0179121D02*
X0568429Y0179121D01*
X0568429Y0178122D02*
X0442445Y0178122D01*
X0442445Y0177124D02*
X0568429Y0177124D01*
X0568429Y0176125D02*
X0442445Y0176125D01*
X0442445Y0175127D02*
X0568429Y0175127D01*
X0568429Y0174128D02*
X0442445Y0174128D01*
X0442445Y0173130D02*
X0568429Y0173130D01*
X0568429Y0172131D02*
X0442445Y0172131D01*
X0442445Y0171133D02*
X0568429Y0171133D01*
X0568429Y0170134D02*
X0442445Y0170134D01*
X0442445Y0169136D02*
X0568429Y0169136D01*
X0568429Y0168137D02*
X0442445Y0168137D01*
X0442445Y0167139D02*
X0568429Y0167139D01*
X0568429Y0166140D02*
X0442445Y0166140D01*
X0442445Y0165142D02*
X0568429Y0165142D01*
X0568429Y0164143D02*
X0442445Y0164143D01*
X0442445Y0163145D02*
X0568429Y0163145D01*
X0568429Y0162146D02*
X0442445Y0162146D01*
X0442445Y0161148D02*
X0568429Y0161148D01*
X0568429Y0160149D02*
X0442445Y0160149D01*
X0442445Y0159151D02*
X0568429Y0159151D01*
X0571829Y0159151D02*
X0598283Y0159151D01*
X0597003Y0159987D02*
X0600755Y0157536D01*
X0600755Y0157536D01*
X0605100Y0156435D01*
X0609567Y0156806D01*
X0613671Y0158606D01*
X0613671Y0158606D01*
X0616969Y0161641D01*
X0619102Y0165583D01*
X0619102Y0165583D01*
X0619839Y0170004D01*
X0619102Y0174425D01*
X0616969Y0178366D01*
X0613671Y0181402D01*
X0609567Y0183202D01*
X0605100Y0183572D01*
X0600755Y0182472D01*
X0597003Y0180021D01*
X0597003Y0180021D01*
X0597003Y0180021D01*
X0594250Y0176484D01*
X0592795Y0172245D01*
X0592795Y0167763D01*
X0594250Y0163524D01*
X0594250Y0163524D01*
X0597003Y0159987D01*
X0597003Y0159987D01*
X0597003Y0159987D01*
X0596877Y0160149D02*
X0571829Y0160149D01*
X0571829Y0161148D02*
X0596100Y0161148D01*
X0595323Y0162146D02*
X0571829Y0162146D01*
X0571829Y0163145D02*
X0594545Y0163145D01*
X0594038Y0164143D02*
X0571829Y0164143D01*
X0571829Y0165142D02*
X0593695Y0165142D01*
X0593352Y0166140D02*
X0571829Y0166140D01*
X0571829Y0167139D02*
X0593009Y0167139D01*
X0592795Y0168137D02*
X0571829Y0168137D01*
X0571829Y0169136D02*
X0592795Y0169136D01*
X0592795Y0170134D02*
X0571829Y0170134D01*
X0571829Y0171133D02*
X0592795Y0171133D01*
X0592795Y0172131D02*
X0571829Y0172131D01*
X0571829Y0173130D02*
X0593099Y0173130D01*
X0593442Y0174128D02*
X0571829Y0174128D01*
X0571829Y0175127D02*
X0593784Y0175127D01*
X0594127Y0176125D02*
X0571829Y0176125D01*
X0571829Y0177124D02*
X0594748Y0177124D01*
X0594250Y0176484D02*
X0594250Y0176484D01*
X0595526Y0178122D02*
X0571829Y0178122D01*
X0571829Y0179121D02*
X0596303Y0179121D01*
X0597154Y0180119D02*
X0571829Y0180119D01*
X0571829Y0181118D02*
X0598683Y0181118D01*
X0600211Y0182116D02*
X0571829Y0182116D01*
X0571829Y0183115D02*
X0603294Y0183115D01*
X0605100Y0183572D02*
X0605100Y0183572D01*
X0600755Y0182472D02*
X0600755Y0182472D01*
X0609567Y0183202D02*
X0609567Y0183202D01*
X0609766Y0183115D02*
X0636395Y0183115D01*
X0636395Y0184113D02*
X0571829Y0184113D01*
X0571829Y0185112D02*
X0636395Y0185112D01*
X0636395Y0186111D02*
X0571829Y0186111D01*
X0571829Y0187109D02*
X0636395Y0187109D01*
X0636395Y0188108D02*
X0571829Y0188108D01*
X0571829Y0189106D02*
X0636395Y0189106D01*
X0636395Y0190105D02*
X0571829Y0190105D01*
X0571829Y0191103D02*
X0636395Y0191103D01*
X0636395Y0192102D02*
X0571829Y0192102D01*
X0571829Y0193100D02*
X0636395Y0193100D01*
X0636395Y0182116D02*
X0612042Y0182116D01*
X0613671Y0181402D02*
X0613671Y0181402D01*
X0613980Y0181118D02*
X0636395Y0181118D01*
X0636395Y0180119D02*
X0615064Y0180119D01*
X0616149Y0179121D02*
X0636395Y0179121D01*
X0636395Y0178122D02*
X0617101Y0178122D01*
X0616969Y0178366D02*
X0616969Y0178366D01*
X0617641Y0177124D02*
X0636395Y0177124D01*
X0636395Y0176125D02*
X0618181Y0176125D01*
X0618722Y0175127D02*
X0636395Y0175127D01*
X0636395Y0174128D02*
X0619151Y0174128D01*
X0619102Y0174425D02*
X0619102Y0174425D01*
X0619318Y0173130D02*
X0636395Y0173130D01*
X0636395Y0172131D02*
X0619484Y0172131D01*
X0619651Y0171133D02*
X0636395Y0171133D01*
X0636395Y0170134D02*
X0619818Y0170134D01*
X0619695Y0169136D02*
X0636395Y0169136D01*
X0636395Y0168137D02*
X0619528Y0168137D01*
X0619361Y0167139D02*
X0636395Y0167139D01*
X0636395Y0166140D02*
X0619195Y0166140D01*
X0618863Y0165142D02*
X0636395Y0165142D01*
X0636395Y0164143D02*
X0618322Y0164143D01*
X0617782Y0163145D02*
X0636395Y0163145D01*
X0636395Y0162146D02*
X0617242Y0162146D01*
X0616969Y0161641D02*
X0616969Y0161641D01*
X0616432Y0161148D02*
X0636395Y0161148D01*
X0636395Y0160149D02*
X0615348Y0160149D01*
X0614263Y0159151D02*
X0636395Y0159151D01*
X0636395Y0158152D02*
X0612637Y0158152D01*
X0610360Y0157154D02*
X0636395Y0157154D01*
X0636395Y0156155D02*
X0570806Y0156155D01*
X0571516Y0157154D02*
X0602264Y0157154D01*
X0599812Y0158152D02*
X0571829Y0158152D01*
X0605100Y0156435D02*
X0605100Y0156435D01*
X0609567Y0156806D02*
X0609567Y0156806D01*
X0636395Y0155157D02*
X0443823Y0155157D01*
X0442825Y0154158D02*
X0636395Y0154158D01*
X0636395Y0153160D02*
X0441908Y0153160D01*
X0441908Y0152161D02*
X0636395Y0152161D01*
X0636395Y0151163D02*
X0441908Y0151163D01*
X0441908Y0150164D02*
X0636395Y0150164D01*
X0636395Y0149166D02*
X0441908Y0149166D01*
X0441908Y0148167D02*
X0636395Y0148167D01*
X0636395Y0147169D02*
X0441908Y0147169D01*
X0441774Y0146170D02*
X0636395Y0146170D01*
X0636395Y0145172D02*
X0441318Y0145172D01*
X0440159Y0144173D02*
X0636395Y0144173D01*
X0636395Y0051311D02*
X0623825Y0051311D01*
X0627551Y0050313D02*
X0636395Y0050313D01*
X0636395Y0049314D02*
X0629697Y0049314D01*
X0631426Y0048316D02*
X0636395Y0048316D01*
X0636395Y0047317D02*
X0633156Y0047317D01*
X0634290Y0046319D02*
X0636395Y0046319D01*
X0636395Y0045320D02*
X0635289Y0045320D01*
X0636287Y0044322D02*
X0636395Y0044322D01*
X0458193Y0011371D02*
X0203862Y0011371D01*
X0203862Y0014367D02*
X0284976Y0014367D01*
X0283977Y0015365D02*
X0272144Y0015365D01*
X0272751Y0015617D02*
X0274116Y0016981D01*
X0274854Y0018764D01*
X0274854Y0020693D01*
X0274116Y0022476D01*
X0272751Y0023840D01*
X0270969Y0024578D01*
X0269039Y0024578D01*
X0267257Y0023840D01*
X0265892Y0022476D01*
X0265154Y0020693D01*
X0265154Y0018764D01*
X0265892Y0016981D01*
X0267257Y0015617D01*
X0269039Y0014878D01*
X0270969Y0014878D01*
X0272751Y0015617D01*
X0273498Y0016364D02*
X0282979Y0016364D01*
X0281980Y0017362D02*
X0274273Y0017362D01*
X0274687Y0018361D02*
X0280982Y0018361D01*
X0279983Y0019359D02*
X0274854Y0019359D01*
X0274854Y0020358D02*
X0278985Y0020358D01*
X0278161Y0021356D02*
X0274579Y0021356D01*
X0274166Y0022355D02*
X0277747Y0022355D01*
X0277721Y0023353D02*
X0273238Y0023353D01*
X0271516Y0024352D02*
X0277721Y0024352D01*
X0277721Y0025350D02*
X0203862Y0025350D01*
X0203862Y0024352D02*
X0268492Y0024352D01*
X0266770Y0023353D02*
X0203862Y0023353D01*
X0203862Y0022355D02*
X0265842Y0022355D01*
X0265429Y0021356D02*
X0203862Y0021356D01*
X0203862Y0020358D02*
X0265154Y0020358D01*
X0265154Y0019359D02*
X0203862Y0019359D01*
X0203862Y0018361D02*
X0265321Y0018361D01*
X0265734Y0017362D02*
X0203862Y0017362D01*
X0203862Y0016364D02*
X0266510Y0016364D01*
X0267864Y0015365D02*
X0203862Y0015365D01*
X0203862Y0026349D02*
X0277721Y0026349D01*
X0277721Y0027347D02*
X0203862Y0027347D01*
X0203862Y0028346D02*
X0277721Y0028346D01*
X0277721Y0029344D02*
X0203862Y0029344D01*
X0203862Y0030343D02*
X0277721Y0030343D01*
X0276834Y0031341D02*
X0203862Y0031341D01*
X0203862Y0032340D02*
X0222002Y0032340D01*
X0221003Y0033338D02*
X0203862Y0033338D01*
X0203862Y0034337D02*
X0220524Y0034337D01*
X0220272Y0035335D02*
X0203862Y0035335D01*
X0203862Y0036334D02*
X0220272Y0036334D01*
X0220592Y0037332D02*
X0203862Y0037332D01*
X0226667Y0032340D02*
X0275836Y0032340D01*
X0281176Y0036334D02*
X0300118Y0036334D01*
X0300939Y0036674D02*
X0299212Y0035958D01*
X0297890Y0034636D01*
X0297174Y0032909D01*
X0297174Y0025039D01*
X0297890Y0023312D01*
X0299212Y0021990D01*
X0300939Y0021274D01*
X0302809Y0021274D01*
X0304536Y0021990D01*
X0305858Y0023312D01*
X0306574Y0025039D01*
X0306574Y0032909D01*
X0305858Y0034636D01*
X0304536Y0035958D01*
X0302809Y0036674D01*
X0300939Y0036674D01*
X0298589Y0035335D02*
X0282174Y0035335D01*
X0283738Y0034337D02*
X0297765Y0034337D01*
X0297352Y0033338D02*
X0284632Y0033338D01*
X0285046Y0032340D02*
X0297174Y0032340D01*
X0297174Y0031341D02*
X0285121Y0031341D01*
X0285121Y0030343D02*
X0297174Y0030343D01*
X0297174Y0029344D02*
X0285121Y0029344D01*
X0285121Y0028346D02*
X0297174Y0028346D01*
X0297174Y0027347D02*
X0285121Y0027347D01*
X0285121Y0026349D02*
X0297174Y0026349D01*
X0297174Y0025350D02*
X0285121Y0025350D01*
X0285456Y0024352D02*
X0297459Y0024352D01*
X0297872Y0023353D02*
X0286454Y0023353D01*
X0287453Y0022355D02*
X0298847Y0022355D01*
X0300741Y0021356D02*
X0288451Y0021356D01*
X0303007Y0021356D02*
X0320741Y0021356D01*
X0320939Y0021274D02*
X0322809Y0021274D01*
X0324536Y0021990D01*
X0325858Y0023312D01*
X0326574Y0025039D01*
X0326574Y0032909D01*
X0325858Y0034636D01*
X0324536Y0035958D01*
X0322809Y0036674D01*
X0320939Y0036674D01*
X0319212Y0035958D01*
X0317890Y0034636D01*
X0317174Y0032909D01*
X0317174Y0025039D01*
X0317890Y0023312D01*
X0319212Y0021990D01*
X0320939Y0021274D01*
X0323007Y0021356D02*
X0340741Y0021356D01*
X0340939Y0021274D02*
X0339212Y0021990D01*
X0337890Y0023312D01*
X0337174Y0025039D01*
X0337174Y0032909D01*
X0337890Y0034636D01*
X0339212Y0035958D01*
X0340939Y0036674D01*
X0342809Y0036674D01*
X0344536Y0035958D01*
X0345858Y0034636D01*
X0346574Y0032909D01*
X0346574Y0025039D01*
X0345858Y0023312D01*
X0344536Y0021990D01*
X0342809Y0021274D01*
X0340939Y0021274D01*
X0343007Y0021356D02*
X0350741Y0021356D01*
X0350939Y0021274D02*
X0352809Y0021274D01*
X0354536Y0021990D01*
X0355858Y0023312D01*
X0356574Y0025039D01*
X0356574Y0032909D01*
X0355858Y0034636D01*
X0354536Y0035958D01*
X0352809Y0036674D01*
X0350939Y0036674D01*
X0349212Y0035958D01*
X0347890Y0034636D01*
X0347174Y0032909D01*
X0347174Y0025039D01*
X0347890Y0023312D01*
X0349212Y0021990D01*
X0350939Y0021274D01*
X0353007Y0021356D02*
X0360741Y0021356D01*
X0360939Y0021274D02*
X0362809Y0021274D01*
X0364536Y0021990D01*
X0365858Y0023312D01*
X0366574Y0025039D01*
X0366574Y0032909D01*
X0365858Y0034636D01*
X0364536Y0035958D01*
X0362809Y0036674D01*
X0360939Y0036674D01*
X0359212Y0035958D01*
X0357890Y0034636D01*
X0357174Y0032909D01*
X0357174Y0025039D01*
X0357890Y0023312D01*
X0359212Y0021990D01*
X0360939Y0021274D01*
X0363007Y0021356D02*
X0370741Y0021356D01*
X0370939Y0021274D02*
X0372809Y0021274D01*
X0374536Y0021990D01*
X0375858Y0023312D01*
X0376574Y0025039D01*
X0376574Y0032909D01*
X0375858Y0034636D01*
X0374536Y0035958D01*
X0372809Y0036674D01*
X0370939Y0036674D01*
X0369212Y0035958D01*
X0367890Y0034636D01*
X0367174Y0032909D01*
X0367174Y0025039D01*
X0367890Y0023312D01*
X0369212Y0021990D01*
X0370939Y0021274D01*
X0373007Y0021356D02*
X0390741Y0021356D01*
X0388847Y0022355D02*
X0374901Y0022355D01*
X0375876Y0023353D02*
X0387872Y0023353D01*
X0387459Y0024352D02*
X0376289Y0024352D01*
X0376574Y0025350D02*
X0387174Y0025350D01*
X0387174Y0026349D02*
X0376574Y0026349D01*
X0376574Y0027347D02*
X0387174Y0027347D01*
X0387174Y0028346D02*
X0376574Y0028346D01*
X0376574Y0029344D02*
X0387174Y0029344D01*
X0387174Y0030343D02*
X0376574Y0030343D01*
X0376574Y0031341D02*
X0387174Y0031341D01*
X0387174Y0032340D02*
X0376574Y0032340D01*
X0376396Y0033338D02*
X0387352Y0033338D01*
X0387765Y0034337D02*
X0375983Y0034337D01*
X0375160Y0035335D02*
X0388589Y0035335D01*
X0390118Y0036334D02*
X0373630Y0036334D01*
X0370118Y0036334D02*
X0363630Y0036334D01*
X0365160Y0035335D02*
X0368589Y0035335D01*
X0367765Y0034337D02*
X0365983Y0034337D01*
X0366396Y0033338D02*
X0367352Y0033338D01*
X0367174Y0032340D02*
X0366574Y0032340D01*
X0366574Y0031341D02*
X0367174Y0031341D01*
X0367174Y0030343D02*
X0366574Y0030343D01*
X0366574Y0029344D02*
X0367174Y0029344D01*
X0367174Y0028346D02*
X0366574Y0028346D01*
X0366574Y0027347D02*
X0367174Y0027347D01*
X0367174Y0026349D02*
X0366574Y0026349D01*
X0366574Y0025350D02*
X0367174Y0025350D01*
X0367459Y0024352D02*
X0366289Y0024352D01*
X0365876Y0023353D02*
X0367872Y0023353D01*
X0368847Y0022355D02*
X0364901Y0022355D01*
X0358847Y0022355D02*
X0354901Y0022355D01*
X0355876Y0023353D02*
X0357872Y0023353D01*
X0357459Y0024352D02*
X0356289Y0024352D01*
X0356574Y0025350D02*
X0357174Y0025350D01*
X0357174Y0026349D02*
X0356574Y0026349D01*
X0356574Y0027347D02*
X0357174Y0027347D01*
X0357174Y0028346D02*
X0356574Y0028346D01*
X0356574Y0029344D02*
X0357174Y0029344D01*
X0357174Y0030343D02*
X0356574Y0030343D01*
X0356574Y0031341D02*
X0357174Y0031341D01*
X0357174Y0032340D02*
X0356574Y0032340D01*
X0356396Y0033338D02*
X0357352Y0033338D01*
X0357765Y0034337D02*
X0355983Y0034337D01*
X0355160Y0035335D02*
X0358589Y0035335D01*
X0360118Y0036334D02*
X0353630Y0036334D01*
X0350118Y0036334D02*
X0343630Y0036334D01*
X0345160Y0035335D02*
X0348589Y0035335D01*
X0347765Y0034337D02*
X0345983Y0034337D01*
X0346396Y0033338D02*
X0347352Y0033338D01*
X0347174Y0032340D02*
X0346574Y0032340D01*
X0346574Y0031341D02*
X0347174Y0031341D01*
X0347174Y0030343D02*
X0346574Y0030343D01*
X0346574Y0029344D02*
X0347174Y0029344D01*
X0347174Y0028346D02*
X0346574Y0028346D01*
X0346574Y0027347D02*
X0347174Y0027347D01*
X0347174Y0026349D02*
X0346574Y0026349D01*
X0346574Y0025350D02*
X0347174Y0025350D01*
X0347459Y0024352D02*
X0346289Y0024352D01*
X0345876Y0023353D02*
X0347872Y0023353D01*
X0348847Y0022355D02*
X0344901Y0022355D01*
X0338847Y0022355D02*
X0324901Y0022355D01*
X0325876Y0023353D02*
X0337872Y0023353D01*
X0337459Y0024352D02*
X0326289Y0024352D01*
X0326574Y0025350D02*
X0337174Y0025350D01*
X0337174Y0026349D02*
X0326574Y0026349D01*
X0326574Y0027347D02*
X0337174Y0027347D01*
X0337174Y0028346D02*
X0326574Y0028346D01*
X0326574Y0029344D02*
X0337174Y0029344D01*
X0337174Y0030343D02*
X0326574Y0030343D01*
X0326574Y0031341D02*
X0337174Y0031341D01*
X0337174Y0032340D02*
X0326574Y0032340D01*
X0326396Y0033338D02*
X0337352Y0033338D01*
X0337765Y0034337D02*
X0325983Y0034337D01*
X0325160Y0035335D02*
X0338589Y0035335D01*
X0340118Y0036334D02*
X0323630Y0036334D01*
X0320118Y0036334D02*
X0303630Y0036334D01*
X0305160Y0035335D02*
X0318589Y0035335D01*
X0317765Y0034337D02*
X0305983Y0034337D01*
X0306396Y0033338D02*
X0317352Y0033338D01*
X0317174Y0032340D02*
X0306574Y0032340D01*
X0306574Y0031341D02*
X0317174Y0031341D01*
X0317174Y0030343D02*
X0306574Y0030343D01*
X0306574Y0029344D02*
X0317174Y0029344D01*
X0317174Y0028346D02*
X0306574Y0028346D01*
X0306574Y0027347D02*
X0317174Y0027347D01*
X0317174Y0026349D02*
X0306574Y0026349D01*
X0306574Y0025350D02*
X0317174Y0025350D01*
X0317459Y0024352D02*
X0306289Y0024352D01*
X0305876Y0023353D02*
X0317872Y0023353D01*
X0318847Y0022355D02*
X0304901Y0022355D01*
X0280177Y0037332D02*
X0448587Y0037332D01*
X0448587Y0038331D02*
X0279179Y0038331D01*
X0252002Y0093249D02*
X0223979Y0093249D01*
X0223979Y0094247D02*
X0251003Y0094247D01*
X0250005Y0095246D02*
X0223979Y0095246D01*
X0223979Y0096245D02*
X0249006Y0096245D01*
X0248681Y0097243D02*
X0223979Y0097243D01*
X0223979Y0098242D02*
X0248681Y0098242D01*
X0248681Y0099240D02*
X0224521Y0099240D01*
X0225519Y0100239D02*
X0248681Y0100239D01*
X0248681Y0101237D02*
X0226518Y0101237D01*
X0227516Y0102236D02*
X0248681Y0102236D01*
X0249422Y0103234D02*
X0228515Y0103234D01*
X0229513Y0104233D02*
X0250420Y0104233D01*
X0251419Y0105231D02*
X0230512Y0105231D01*
X0246471Y0106230D02*
X0252417Y0106230D01*
X0229438Y0123204D02*
X0222491Y0123204D01*
X0222491Y0122206D02*
X0227947Y0122206D01*
X0226949Y0121207D02*
X0222491Y0121207D01*
X0222491Y0120209D02*
X0225950Y0120209D01*
X0224952Y0119210D02*
X0221777Y0119210D01*
X0222491Y0124203D02*
X0235824Y0124203D01*
X0236092Y0125201D02*
X0222491Y0125201D01*
X0222491Y0126200D02*
X0236808Y0126200D01*
X0244625Y0130194D02*
X0414242Y0130194D01*
X0407012Y0140179D02*
X0325909Y0140179D01*
X0325909Y0141178D02*
X0407012Y0141178D01*
X0407012Y0142176D02*
X0325909Y0142176D01*
X0322509Y0142176D02*
X0241657Y0142176D01*
X0241657Y0141178D02*
X0322509Y0141178D01*
X0322509Y0140179D02*
X0241657Y0140179D01*
X0241657Y0143175D02*
X0322509Y0143175D01*
X0322509Y0144173D02*
X0241657Y0144173D01*
X0241657Y0145172D02*
X0322509Y0145172D01*
X0322509Y0146170D02*
X0241657Y0146170D01*
X0241657Y0147169D02*
X0322509Y0147169D01*
X0322509Y0173130D02*
X0209624Y0173130D01*
X0209624Y0174128D02*
X0322509Y0174128D01*
X0322509Y0175127D02*
X0209624Y0175127D01*
X0209624Y0176125D02*
X0322509Y0176125D01*
X0322509Y0177124D02*
X0209624Y0177124D01*
X0209624Y0178122D02*
X0322509Y0178122D01*
X0322509Y0179121D02*
X0209624Y0179121D01*
X0209624Y0180119D02*
X0322509Y0180119D01*
X0322509Y0181118D02*
X0209624Y0181118D01*
X0209624Y0182116D02*
X0322509Y0182116D01*
X0322509Y0183115D02*
X0209624Y0183115D01*
X0209624Y0184113D02*
X0322509Y0184113D01*
X0322509Y0185112D02*
X0209624Y0185112D01*
X0209624Y0186111D02*
X0322509Y0186111D01*
X0322509Y0187109D02*
X0209624Y0187109D01*
X0209624Y0188108D02*
X0322509Y0188108D01*
X0322509Y0189106D02*
X0209624Y0189106D01*
X0209624Y0190105D02*
X0322509Y0190105D01*
X0322509Y0191103D02*
X0209624Y0191103D01*
X0209624Y0192102D02*
X0322509Y0192102D01*
X0322509Y0193100D02*
X0209624Y0193100D01*
X0209624Y0194099D02*
X0322509Y0194099D01*
X0322509Y0195097D02*
X0209624Y0195097D01*
X0209624Y0196096D02*
X0322509Y0196096D01*
X0322509Y0197094D02*
X0209624Y0197094D01*
X0209624Y0198093D02*
X0322509Y0198093D01*
X0322509Y0199091D02*
X0209624Y0199091D01*
X0209624Y0200090D02*
X0322509Y0200090D01*
X0322509Y0201088D02*
X0209624Y0201088D01*
X0209624Y0202087D02*
X0322509Y0202087D01*
X0322509Y0203085D02*
X0209624Y0203085D01*
X0209624Y0204084D02*
X0322509Y0204084D01*
X0322509Y0205082D02*
X0209624Y0205082D01*
X0209624Y0206081D02*
X0322509Y0206081D01*
X0322509Y0207079D02*
X0209624Y0207079D01*
X0209624Y0208078D02*
X0322509Y0208078D01*
X0322509Y0209076D02*
X0209624Y0209076D01*
X0209624Y0210075D02*
X0322509Y0210075D01*
X0322509Y0211073D02*
X0209624Y0211073D01*
X0209624Y0212072D02*
X0322509Y0212072D01*
X0322509Y0213070D02*
X0209624Y0213070D01*
X0209624Y0214069D02*
X0322509Y0214069D01*
X0322509Y0215067D02*
X0209624Y0215067D01*
X0209624Y0216066D02*
X0322509Y0216066D01*
X0322509Y0217064D02*
X0209624Y0217064D01*
X0209624Y0218063D02*
X0322509Y0218063D01*
X0322509Y0219061D02*
X0209624Y0219061D01*
X0209624Y0220060D02*
X0322509Y0220060D01*
X0322509Y0221058D02*
X0209624Y0221058D01*
X0209624Y0222057D02*
X0322509Y0222057D01*
X0322509Y0223055D02*
X0209624Y0223055D01*
X0209624Y0224054D02*
X0322509Y0224054D01*
X0322509Y0225052D02*
X0209624Y0225052D01*
X0209624Y0226051D02*
X0322509Y0226051D01*
X0322509Y0227049D02*
X0209624Y0227049D01*
X0209624Y0228048D02*
X0322509Y0228048D01*
X0322509Y0229047D02*
X0209624Y0229047D01*
X0209624Y0230045D02*
X0322509Y0230045D01*
X0322509Y0231044D02*
X0209624Y0231044D01*
X0209624Y0232042D02*
X0322509Y0232042D01*
X0322509Y0233041D02*
X0209624Y0233041D01*
X0209624Y0234039D02*
X0322509Y0234039D01*
X0322509Y0235038D02*
X0209624Y0235038D01*
X0209624Y0236036D02*
X0322509Y0236036D01*
X0322509Y0237035D02*
X0209624Y0237035D01*
X0209624Y0238033D02*
X0322509Y0238033D01*
X0322509Y0239032D02*
X0209624Y0239032D01*
X0209624Y0240030D02*
X0322509Y0240030D01*
X0322509Y0241029D02*
X0209624Y0241029D01*
X0209624Y0242027D02*
X0322509Y0242027D01*
X0322509Y0243026D02*
X0209624Y0243026D01*
X0209624Y0244024D02*
X0322509Y0244024D01*
X0322509Y0245023D02*
X0209624Y0245023D01*
X0128103Y0290954D02*
X0012274Y0290954D01*
X0012274Y0289956D02*
X0126975Y0289956D01*
X0125848Y0288957D02*
X0012274Y0288957D01*
X0012274Y0287959D02*
X0124721Y0287959D01*
X0123593Y0286960D02*
X0012274Y0286960D01*
X0012274Y0285962D02*
X0122466Y0285962D01*
X0121339Y0284963D02*
X0012274Y0284963D01*
X0012274Y0283965D02*
X0120211Y0283965D01*
X0119084Y0282966D02*
X0012274Y0282966D01*
X0012274Y0281968D02*
X0117957Y0281968D01*
X0116829Y0280969D02*
X0012274Y0280969D01*
X0012274Y0279971D02*
X0115702Y0279971D01*
X0114575Y0278972D02*
X0012274Y0278972D01*
X0012274Y0277974D02*
X0113447Y0277974D01*
X0112320Y0276975D02*
X0012274Y0276975D01*
X0012274Y0275977D02*
X0111193Y0275977D01*
X0110065Y0274978D02*
X0012274Y0274978D01*
X0012274Y0273980D02*
X0108938Y0273980D01*
X0107811Y0272981D02*
X0012274Y0272981D01*
X0012274Y0271982D02*
X0106683Y0271982D01*
X0105556Y0270984D02*
X0012274Y0270984D01*
X0012274Y0269985D02*
X0104428Y0269985D01*
X0103301Y0268987D02*
X0012274Y0268987D01*
X0012274Y0267988D02*
X0102174Y0267988D01*
X0101046Y0266990D02*
X0012274Y0266990D01*
X0012274Y0265991D02*
X0099919Y0265991D01*
X0098792Y0264993D02*
X0012274Y0264993D01*
X0012274Y0263994D02*
X0097664Y0263994D01*
X0096537Y0262996D02*
X0012274Y0262996D01*
X0012274Y0261997D02*
X0095410Y0261997D01*
X0094282Y0260999D02*
X0012274Y0260999D01*
X0012274Y0260000D02*
X0093155Y0260000D01*
X0092028Y0259002D02*
X0012274Y0259002D01*
X0012274Y0258003D02*
X0090900Y0258003D01*
X0089773Y0257005D02*
X0012274Y0257005D01*
X0012274Y0256006D02*
X0088646Y0256006D01*
X0087518Y0255008D02*
X0012274Y0255008D01*
X0012274Y0254009D02*
X0086391Y0254009D01*
X0085263Y0253011D02*
X0012274Y0253011D01*
X0012274Y0252012D02*
X0084136Y0252012D01*
X0083009Y0251014D02*
X0012274Y0251014D01*
X0012274Y0250015D02*
X0081881Y0250015D01*
X0080754Y0249017D02*
X0012274Y0249017D01*
X0012274Y0248018D02*
X0021253Y0248018D01*
X0022013Y0248778D02*
X0017824Y0244590D01*
X0017824Y0238666D01*
X0022013Y0234478D01*
X0027936Y0234478D01*
X0032124Y0238666D01*
X0032124Y0244590D01*
X0027936Y0248778D01*
X0022013Y0248778D01*
X0020255Y0247020D02*
X0012274Y0247020D01*
X0012274Y0246021D02*
X0019256Y0246021D01*
X0018258Y0245023D02*
X0012274Y0245023D01*
X0012274Y0244024D02*
X0017824Y0244024D01*
X0017824Y0243026D02*
X0012274Y0243026D01*
X0012274Y0242027D02*
X0017824Y0242027D01*
X0017824Y0241029D02*
X0012274Y0241029D01*
X0012274Y0240030D02*
X0017824Y0240030D01*
X0017824Y0239032D02*
X0012274Y0239032D01*
X0012274Y0238033D02*
X0018458Y0238033D01*
X0019456Y0237035D02*
X0012274Y0237035D01*
X0012274Y0236036D02*
X0020455Y0236036D01*
X0021453Y0235038D02*
X0012274Y0235038D01*
X0012274Y0234039D02*
X0076840Y0234039D01*
X0076840Y0233041D02*
X0012274Y0233041D01*
X0012274Y0232042D02*
X0076840Y0232042D01*
X0076840Y0231044D02*
X0012274Y0231044D01*
X0012274Y0230045D02*
X0076840Y0230045D01*
X0076840Y0229047D02*
X0012274Y0229047D01*
X0012274Y0228048D02*
X0076840Y0228048D01*
X0076840Y0227049D02*
X0012274Y0227049D01*
X0012274Y0226051D02*
X0076840Y0226051D01*
X0076840Y0225052D02*
X0012274Y0225052D01*
X0012274Y0224054D02*
X0076840Y0224054D01*
X0076840Y0223055D02*
X0012274Y0223055D01*
X0012274Y0222057D02*
X0076840Y0222057D01*
X0076840Y0221058D02*
X0012274Y0221058D01*
X0012274Y0220060D02*
X0076840Y0220060D01*
X0076840Y0219061D02*
X0012274Y0219061D01*
X0012274Y0218063D02*
X0076840Y0218063D01*
X0076840Y0217064D02*
X0047070Y0217064D01*
X0046181Y0217454D02*
X0041714Y0217824D01*
X0037370Y0216724D01*
X0037369Y0216724D01*
X0033617Y0214273D01*
X0030865Y0210736D01*
X0029409Y0206497D01*
X0029409Y0202015D01*
X0030865Y0197776D01*
X0033617Y0194239D01*
X0033617Y0194239D01*
X0037369Y0191788D01*
X0037369Y0191788D01*
X0041714Y0190687D01*
X0041714Y0190687D01*
X0046181Y0191058D01*
X0050285Y0192858D01*
X0050285Y0192858D01*
X0053583Y0195893D01*
X0053583Y0195893D01*
X0055716Y0199835D01*
X0055716Y0199835D01*
X0056454Y0204256D01*
X0055716Y0208677D01*
X0053583Y0212618D01*
X0053583Y0212618D01*
X0053583Y0212618D01*
X0050285Y0215654D01*
X0046181Y0217454D01*
X0046181Y0217454D01*
X0049346Y0216066D02*
X0076840Y0216066D01*
X0076840Y0215067D02*
X0050922Y0215067D01*
X0050285Y0215654D02*
X0050285Y0215654D01*
X0052007Y0214069D02*
X0076840Y0214069D01*
X0076840Y0213070D02*
X0053092Y0213070D01*
X0053879Y0212072D02*
X0076840Y0212072D01*
X0076840Y0211073D02*
X0054419Y0211073D01*
X0054959Y0210075D02*
X0076840Y0210075D01*
X0076840Y0209076D02*
X0055500Y0209076D01*
X0055716Y0208677D02*
X0055716Y0208677D01*
X0055816Y0208078D02*
X0076840Y0208078D01*
X0076840Y0207079D02*
X0055982Y0207079D01*
X0056149Y0206081D02*
X0076840Y0206081D01*
X0076840Y0205082D02*
X0056316Y0205082D01*
X0056425Y0204084D02*
X0076840Y0204084D01*
X0076840Y0203085D02*
X0056258Y0203085D01*
X0056092Y0202087D02*
X0076840Y0202087D01*
X0076840Y0201088D02*
X0055925Y0201088D01*
X0055758Y0200090D02*
X0076840Y0200090D01*
X0076840Y0199091D02*
X0055313Y0199091D01*
X0054773Y0198093D02*
X0076840Y0198093D01*
X0076840Y0197094D02*
X0054233Y0197094D01*
X0053692Y0196096D02*
X0076840Y0196096D01*
X0076840Y0195097D02*
X0052718Y0195097D01*
X0051633Y0194099D02*
X0076840Y0194099D01*
X0076840Y0193100D02*
X0050548Y0193100D01*
X0048561Y0192102D02*
X0076840Y0192102D01*
X0076840Y0191103D02*
X0046285Y0191103D01*
X0046181Y0191058D02*
X0046181Y0191058D01*
X0040073Y0191103D02*
X0012274Y0191103D01*
X0012274Y0190105D02*
X0076840Y0190105D01*
X0076840Y0189106D02*
X0012274Y0189106D01*
X0012274Y0188108D02*
X0076840Y0188108D01*
X0076840Y0187109D02*
X0012274Y0187109D01*
X0012274Y0186111D02*
X0076840Y0186111D01*
X0076840Y0185112D02*
X0012274Y0185112D01*
X0012274Y0184113D02*
X0076840Y0184113D01*
X0076840Y0183115D02*
X0012274Y0183115D01*
X0012274Y0182116D02*
X0076840Y0182116D01*
X0076840Y0181118D02*
X0012274Y0181118D01*
X0012274Y0180119D02*
X0040516Y0180119D01*
X0041714Y0180423D02*
X0037370Y0179323D01*
X0037369Y0179323D01*
X0033617Y0176871D01*
X0030865Y0173334D01*
X0029409Y0169095D01*
X0029409Y0164613D01*
X0030865Y0160374D01*
X0033617Y0156837D01*
X0033617Y0156837D01*
X0033617Y0156837D01*
X0037369Y0154386D01*
X0037370Y0154386D01*
X0041714Y0153286D01*
X0041714Y0153286D01*
X0046181Y0153656D01*
X0050285Y0155456D01*
X0050285Y0155456D01*
X0053583Y0158492D01*
X0055716Y0162434D01*
X0056454Y0166854D01*
X0055716Y0171275D01*
X0053583Y0175217D01*
X0050285Y0178252D01*
X0046181Y0180053D01*
X0041714Y0180423D01*
X0041714Y0180423D01*
X0045376Y0180119D02*
X0076840Y0180119D01*
X0076840Y0179121D02*
X0048305Y0179121D01*
X0050285Y0178252D02*
X0050285Y0178252D01*
X0050426Y0178122D02*
X0076840Y0178122D01*
X0076840Y0177124D02*
X0051511Y0177124D01*
X0052596Y0176125D02*
X0076840Y0176125D01*
X0076840Y0175127D02*
X0053631Y0175127D01*
X0053583Y0175217D02*
X0053583Y0175217D01*
X0054172Y0174128D02*
X0076840Y0174128D01*
X0076840Y0173130D02*
X0054712Y0173130D01*
X0055253Y0172131D02*
X0076840Y0172131D01*
X0076840Y0171133D02*
X0055740Y0171133D01*
X0055716Y0171275D02*
X0055716Y0171275D01*
X0055906Y0170134D02*
X0076840Y0170134D01*
X0076840Y0169136D02*
X0056073Y0169136D01*
X0056239Y0168137D02*
X0076840Y0168137D01*
X0076840Y0167139D02*
X0056406Y0167139D01*
X0056334Y0166140D02*
X0076840Y0166140D01*
X0076840Y0165142D02*
X0056168Y0165142D01*
X0056001Y0164143D02*
X0076840Y0164143D01*
X0076840Y0163145D02*
X0055835Y0163145D01*
X0055716Y0162434D02*
X0055716Y0162434D01*
X0055560Y0162146D02*
X0076840Y0162146D01*
X0076840Y0161148D02*
X0055020Y0161148D01*
X0054480Y0160149D02*
X0076840Y0160149D01*
X0076840Y0159151D02*
X0053939Y0159151D01*
X0053583Y0158492D02*
X0053583Y0158492D01*
X0053214Y0158152D02*
X0076840Y0158152D01*
X0076840Y0157154D02*
X0052129Y0157154D01*
X0051044Y0156155D02*
X0076840Y0156155D01*
X0076840Y0155157D02*
X0049602Y0155157D01*
X0047326Y0154158D02*
X0076840Y0154158D01*
X0076840Y0153160D02*
X0012274Y0153160D01*
X0012274Y0154158D02*
X0038270Y0154158D01*
X0036190Y0155157D02*
X0012274Y0155157D01*
X0012274Y0156155D02*
X0034662Y0156155D01*
X0033371Y0157154D02*
X0012274Y0157154D01*
X0012274Y0158152D02*
X0032594Y0158152D01*
X0031817Y0159151D02*
X0012274Y0159151D01*
X0012274Y0160149D02*
X0031040Y0160149D01*
X0030865Y0160374D02*
X0030865Y0160374D01*
X0030599Y0161148D02*
X0012274Y0161148D01*
X0012274Y0162146D02*
X0030256Y0162146D01*
X0029913Y0163145D02*
X0012274Y0163145D01*
X0012274Y0164143D02*
X0029571Y0164143D01*
X0029409Y0165142D02*
X0012274Y0165142D01*
X0012274Y0166140D02*
X0029409Y0166140D01*
X0029409Y0167139D02*
X0012274Y0167139D01*
X0012274Y0168137D02*
X0029409Y0168137D01*
X0029423Y0169136D02*
X0012274Y0169136D01*
X0012274Y0170134D02*
X0029766Y0170134D01*
X0030109Y0171133D02*
X0012274Y0171133D01*
X0012274Y0172131D02*
X0030452Y0172131D01*
X0030794Y0173130D02*
X0012274Y0173130D01*
X0012274Y0174128D02*
X0031483Y0174128D01*
X0030865Y0173334D02*
X0030865Y0173334D01*
X0032260Y0175127D02*
X0012274Y0175127D01*
X0012274Y0176125D02*
X0033037Y0176125D01*
X0033617Y0176871D02*
X0033617Y0176871D01*
X0033617Y0176871D01*
X0034004Y0177124D02*
X0012274Y0177124D01*
X0012274Y0178122D02*
X0035533Y0178122D01*
X0037061Y0179121D02*
X0012274Y0179121D01*
X0012274Y0192102D02*
X0036889Y0192102D01*
X0035361Y0193100D02*
X0012274Y0193100D01*
X0012274Y0194099D02*
X0033832Y0194099D01*
X0032949Y0195097D02*
X0012274Y0195097D01*
X0012274Y0196096D02*
X0032172Y0196096D01*
X0031395Y0197094D02*
X0012274Y0197094D01*
X0012274Y0198093D02*
X0030756Y0198093D01*
X0030865Y0197776D02*
X0030865Y0197776D01*
X0030413Y0199091D02*
X0012274Y0199091D01*
X0012274Y0200090D02*
X0030070Y0200090D01*
X0029727Y0201088D02*
X0012274Y0201088D01*
X0012274Y0202087D02*
X0029409Y0202087D01*
X0029409Y0203085D02*
X0012274Y0203085D01*
X0012274Y0204084D02*
X0029409Y0204084D01*
X0029409Y0205082D02*
X0012274Y0205082D01*
X0012274Y0206081D02*
X0029409Y0206081D01*
X0029609Y0207079D02*
X0012274Y0207079D01*
X0012274Y0208078D02*
X0029952Y0208078D01*
X0030295Y0209076D02*
X0012274Y0209076D01*
X0012274Y0210075D02*
X0030638Y0210075D01*
X0030865Y0210736D02*
X0030865Y0210736D01*
X0031127Y0211073D02*
X0012274Y0211073D01*
X0012274Y0212072D02*
X0031904Y0212072D01*
X0032681Y0213070D02*
X0012274Y0213070D01*
X0012274Y0214069D02*
X0033459Y0214069D01*
X0033617Y0214273D02*
X0033617Y0214273D01*
X0033617Y0214273D01*
X0034834Y0215067D02*
X0012274Y0215067D01*
X0012274Y0216066D02*
X0036362Y0216066D01*
X0038713Y0217064D02*
X0012274Y0217064D01*
X0028496Y0235038D02*
X0076840Y0235038D01*
X0076840Y0236036D02*
X0029494Y0236036D01*
X0030493Y0237035D02*
X0076840Y0237035D01*
X0076840Y0238033D02*
X0031491Y0238033D01*
X0032124Y0239032D02*
X0076840Y0239032D01*
X0076840Y0240030D02*
X0032124Y0240030D01*
X0032124Y0241029D02*
X0076840Y0241029D01*
X0076840Y0242027D02*
X0032124Y0242027D01*
X0032124Y0243026D02*
X0076840Y0243026D01*
X0076834Y0244024D02*
X0032124Y0244024D01*
X0031691Y0245023D02*
X0076947Y0245023D01*
X0077433Y0246021D02*
X0030693Y0246021D01*
X0029694Y0247020D02*
X0078499Y0247020D01*
X0079627Y0248018D02*
X0028696Y0248018D01*
X0041714Y0217824D02*
X0041714Y0217824D01*
X0046181Y0180053D02*
X0046181Y0180053D01*
X0046181Y0153656D02*
X0046181Y0153656D01*
X0076840Y0152161D02*
X0012274Y0152161D01*
X0012274Y0151163D02*
X0076840Y0151163D01*
X0076840Y0150164D02*
X0012274Y0150164D01*
X0012274Y0149166D02*
X0076840Y0149166D01*
X0076840Y0148167D02*
X0012274Y0148167D01*
X0012274Y0147169D02*
X0076840Y0147169D01*
X0076974Y0146170D02*
X0012274Y0146170D01*
X0012274Y0145172D02*
X0077430Y0145172D01*
X0078589Y0144173D02*
X0012274Y0144173D01*
X0012274Y0143175D02*
X0238257Y0143175D01*
X0238257Y0142176D02*
X0012274Y0142176D01*
X0012274Y0141178D02*
X0238257Y0141178D01*
X0238257Y0140179D02*
X0012274Y0140179D01*
X0012274Y0139180D02*
X0238351Y0139180D01*
X0238765Y0138182D02*
X0012274Y0138182D01*
X0012274Y0137183D02*
X0239772Y0137183D01*
X0363221Y0117213D02*
X0397098Y0117213D01*
X0397025Y0116215D02*
X0364220Y0116215D01*
X0365218Y0115216D02*
X0397025Y0115216D01*
X0397025Y0114218D02*
X0366217Y0114218D01*
X0366918Y0113219D02*
X0397025Y0113219D01*
X0397025Y0112221D02*
X0366918Y0112221D01*
X0366918Y0111222D02*
X0397325Y0111222D01*
X0398124Y0110224D02*
X0366918Y0110224D01*
X0366918Y0109225D02*
X0414242Y0109225D01*
X0414242Y0108227D02*
X0366918Y0108227D01*
X0366552Y0107228D02*
X0414242Y0107228D01*
X0414242Y0106230D02*
X0365554Y0106230D01*
X0364555Y0105231D02*
X0414242Y0105231D01*
X0414242Y0104233D02*
X0363557Y0104233D01*
X0361673Y0055306D02*
X0394341Y0055306D01*
X0392691Y0054307D02*
X0362238Y0054307D01*
X0362461Y0053309D02*
X0392019Y0053309D01*
X0391720Y0052310D02*
X0362431Y0052310D01*
X0362018Y0051311D02*
X0391720Y0051311D01*
X0392088Y0050313D02*
X0361141Y0050313D01*
X0571829Y0239032D02*
X0619998Y0239032D01*
X0619000Y0240030D02*
X0571829Y0240030D01*
X0571829Y0241029D02*
X0618001Y0241029D01*
X0617003Y0242027D02*
X0571843Y0242027D01*
X0571829Y0243026D02*
X0616397Y0243026D01*
X0616397Y0244024D02*
X0571455Y0244024D01*
X0570660Y0245023D02*
X0616397Y0245023D01*
X0616397Y0246021D02*
X0569590Y0246021D01*
X0568529Y0247020D02*
X0616397Y0247020D01*
X0616397Y0248018D02*
X0567468Y0248018D01*
X0566407Y0249017D02*
X0616858Y0249017D01*
X0617856Y0250015D02*
X0565346Y0250015D01*
X0564286Y0251014D02*
X0618855Y0251014D01*
X0619853Y0252012D02*
X0563225Y0252012D01*
X0328075Y0251697D02*
X0328075Y0251106D01*
X0328075Y0251697D02*
X0326303Y0253469D01*
X0173161Y0316916D02*
X0011474Y0316916D01*
X0011474Y0317914D02*
X0173161Y0317914D01*
X0173161Y0318913D02*
X0011474Y0318913D01*
X0011474Y0319911D02*
X0173161Y0319911D01*
X0173161Y0320910D02*
X0011474Y0320910D01*
X0011474Y0321908D02*
X0173161Y0321908D01*
X0173161Y0322907D02*
X0011474Y0322907D01*
X0011474Y0323905D02*
X0173161Y0323905D01*
X0173161Y0324904D02*
X0011474Y0324904D01*
X0011474Y0325902D02*
X0173161Y0325902D01*
X0173161Y0326901D02*
X0011474Y0326901D01*
X0011474Y0327899D02*
X0173161Y0327899D01*
X0173161Y0328898D02*
X0011474Y0328898D01*
X0011474Y0329896D02*
X0173161Y0329896D01*
X0105949Y0346871D02*
X0011474Y0346871D01*
X0012274Y0300939D02*
X0068572Y0300939D01*
X0068572Y0299941D02*
X0012274Y0299941D01*
X0012274Y0298942D02*
X0068572Y0298942D01*
X0068572Y0297944D02*
X0012274Y0297944D01*
X0012274Y0296945D02*
X0068572Y0296945D01*
X0068572Y0295947D02*
X0012274Y0295947D01*
X0012274Y0294948D02*
X0068572Y0294948D01*
X0068647Y0293950D02*
X0012274Y0293950D01*
X0012274Y0292951D02*
X0069061Y0292951D01*
X0070018Y0291953D02*
X0012274Y0291953D01*
X0092974Y0363846D02*
X0109174Y0363846D01*
X0107596Y0364844D02*
X0094552Y0364844D01*
X0095461Y0365843D02*
X0106687Y0365843D01*
X0106274Y0366841D02*
X0095874Y0366841D01*
X0096174Y0367840D02*
X0105974Y0367840D01*
X0105974Y0368838D02*
X0096174Y0368838D01*
X0096174Y0369837D02*
X0105974Y0369837D01*
X0105974Y0370835D02*
X0096174Y0370835D01*
X0096174Y0371834D02*
X0105974Y0371834D01*
X0105974Y0372832D02*
X0096174Y0372832D01*
X0096174Y0373831D02*
X0105974Y0373831D01*
X0105974Y0374829D02*
X0096174Y0374829D01*
X0096077Y0375828D02*
X0106071Y0375828D01*
X0106485Y0376826D02*
X0095663Y0376826D01*
X0095041Y0377825D02*
X0107107Y0377825D01*
X0108106Y0378823D02*
X0094042Y0378823D01*
D27*
X0419217Y0129453D03*
X0419217Y0126303D03*
X0432209Y0126303D03*
X0432209Y0129453D03*
X0218429Y0126303D03*
X0218429Y0123154D03*
X0205043Y0123154D03*
X0205043Y0126303D03*
D28*
X0205043Y0123154D01*
X0224335Y0035752D02*
X0277091Y0035752D01*
X0281421Y0031421D01*
X0419217Y0126303D02*
X0419217Y0129453D01*
X0420004Y0129453D01*
X0421579Y0127878D01*
X0429453Y0127878D02*
X0431028Y0129453D01*
X0432209Y0129453D01*
X0432209Y0126303D01*
X0433783Y0051500D02*
X0442839Y0051500D01*
D29*
X0433783Y0051500D02*
X0429453Y0055831D01*
X0429453Y0108193D01*
X0434965Y0113705D01*
X0438508Y0113705D01*
X0441264Y0116461D01*
X0441264Y0119217D01*
X0445594Y0123547D01*
X0455043Y0123547D01*
X0240870Y0120398D02*
X0230240Y0120398D01*
X0227091Y0117248D01*
X0227091Y0112524D01*
X0224728Y0110161D01*
X0221185Y0110161D01*
X0215673Y0104650D01*
X0215673Y0055437D01*
X0219610Y0051500D01*
X0220791Y0051500D01*
X0218429Y0122760D02*
X0218429Y0123154D01*
X0217248Y0123154D01*
X0215673Y0124728D01*
X0217248Y0126303D01*
X0218429Y0126303D01*
X0218429Y0126697D02*
X0218429Y0123154D01*
X0207799Y0124728D02*
X0206618Y0124728D01*
X0205043Y0126303D01*
X0146776Y0343626D02*
X0108193Y0343626D01*
X0146776Y0343626D02*
X0147957Y0344807D01*
X0147957Y0365280D01*
X0158980Y0376303D01*
X0301500Y0376303D01*
X0319217Y0358587D01*
X0329634Y0348169D01*
X0437933Y0348169D01*
X0455831Y0366067D01*
X0584965Y0366067D01*
X0612524Y0338508D01*
D30*
X0455043Y0127091D03*
X0455043Y0123547D03*
X0429846Y0113705D03*
X0240870Y0120398D03*
X0240870Y0123941D03*
X0216067Y0110555D03*
D31*
X0281421Y0031421D02*
X0281421Y0023154D01*
X0287327Y0017248D01*
X0445201Y0017248D01*
X0452287Y0024335D01*
X0452287Y0042051D01*
X0419610Y0114492D02*
X0402484Y0114492D01*
X0419610Y0114492D02*
X0422760Y0117642D01*
D32*
X0424335Y0156618D03*
D33*
X0420791Y0160161D01*
X0420791Y0205437D01*
X0413705Y0212524D01*
D34*
X0453075Y0127091D02*
X0455043Y0127091D01*
X0455043Y0123547D01*
X0453075Y0123547D01*
X0453075Y0127091D01*
X0240870Y0123941D02*
X0240870Y0120398D01*
X0238902Y0120398D01*
X0238902Y0123941D01*
X0240870Y0123941D01*
D35*
X0220791Y0051500D03*
X0224335Y0035752D03*
D36*
X0442839Y0051500D02*
X0452287Y0042051D01*
D37*
X0422366Y0051894D03*
X0395201Y0051894D03*
X0358980Y0053075D03*
X0326579Y0047839D03*
X0612524Y0338508D03*
X0147957Y0344807D03*
X0108193Y0343626D03*
D38*
X0422366Y0095988D02*
X0422366Y0051894D01*
X0422366Y0048744D01*
X0421874Y0048744D01*
X0426697Y0047169D02*
X0426697Y0053469D01*
X0425909Y0054256D01*
X0425909Y0095988D01*
X0395201Y0051894D02*
X0395201Y0045201D01*
X0398744Y0041657D01*
X0424728Y0041657D01*
X0426697Y0043626D01*
X0426697Y0046382D01*
X0426697Y0047169D01*
X0426697Y0046382D02*
X0427583Y0046382D01*
X0358980Y0053075D02*
X0325122Y0053075D01*
X0318823Y0046776D01*
X0227484Y0046776D01*
X0227484Y0048055D01*
X0227484Y0046776D02*
X0218429Y0046776D01*
X0212130Y0053075D01*
X0212130Y0092839D01*
X0208587Y0092839D02*
X0208587Y0051500D01*
X0216461Y0043626D01*
X0216067Y0043232D01*
X0216067Y0042346D01*
X0216854Y0043232D02*
X0216461Y0043626D01*
X0216854Y0043232D02*
X0321972Y0043232D01*
X0326579Y0047839D01*
D39*
X0422366Y0095988D03*
X0425909Y0095988D03*
X0212130Y0092839D03*
X0208587Y0092839D03*
D40*
X0319217Y0358587D02*
X0320791Y0360161D01*
M02*
