%
M48
M72
T01C0.00984
T02C0.01181
T03C0.01378
T04C0.01496
T05C0.01575
T06C0.02362
T07C0.03150
T08C0.03200
T09C0.04000
T10C0.04724
T11C0.05200
T12C0.07600
T13C0.12598
%
T01
X68429Y29059
X88114Y29059
X107799Y29059
X127484Y29059
X147169Y29059
X166854Y29059
X186539Y29059
X186539Y48744
X166854Y48744
X147169Y48744
X127484Y48744
X107799Y48744
X88114Y48744
X68429Y48744
X68429Y68429
X48744Y68429
X29059Y68429
X68429Y88114
X88114Y88114
X107799Y88114
X127484Y88114
X147169Y88114
X166854Y88114
X186539Y88114
X186539Y68429
X166854Y68429
X145988Y68429
X127484Y68429
X107799Y68429
X88114Y68429
X88114Y107799
X68429Y107799
X88114Y127484
X107799Y107799
X127484Y107799
X147169Y107799
X166854Y107799
X186539Y107799
X127878Y127091
X127484Y149531
X107799Y149531
X88114Y149531
X88114Y166854
X88114Y186539
X107799Y186539
X127484Y186539
X147169Y186539
X173941Y182209
X184571Y182209
X193626Y182209
X193626Y194807
X184571Y194807
X173941Y194807
X173941Y206224
X184571Y206224
X193626Y206224
X166854Y225909
X147169Y225909
X127484Y225909
X107799Y225909
X88114Y225909
X88114Y206224
X107799Y206224
X127484Y206224
X147169Y206224
X127484Y166854
X147169Y149531
X166854Y149531
X186539Y149531
X255831Y149925
X267248Y149925
X267248Y160555
X255831Y160555
X255831Y169610
X267248Y169610
X279846Y169610
X279846Y160555
X279846Y149925
X275516Y132012
X284965Y132012
X265280Y132012
X255831Y132012
X304650Y107799
X324335Y107799
X324335Y88114
X344020Y88114
X363705Y88114
X383390Y88114
X383390Y68429
X403075Y68429
X363705Y68429
X344020Y68429
X324335Y68429
X304650Y68429
X284965Y68429
X265280Y68429
X245594Y68429
X265280Y88114
X284965Y88114
X304650Y88114
X363705Y132406
X371972Y132406
X383390Y132406
X393626Y132406
X403075Y132406
X418429Y118035
X445988Y104256
X451106Y104650
X462130Y107799
X481815Y107799
X501500Y107799
X521185Y107799
X540870Y107799
X560555Y107799
X580240Y107799
X580240Y127484
X560555Y127484
X540870Y127484
X521185Y127484
X501500Y127484
X481815Y127484
X501500Y146776
X521185Y146776
X540870Y146776
X560555Y146776
X560555Y166854
X560949Y186539
X540870Y186539
X521185Y186539
X501500Y186539
X474728Y182602
X464098Y182602
X455043Y182602
X455043Y194020
X464098Y194020
X474728Y194020
X474728Y206618
X464098Y206618
X455043Y206618
X481815Y225909
X501500Y225909
X521185Y225909
X540870Y225909
X560555Y225909
X560555Y206224
X540870Y206224
X521185Y206224
X501500Y206224
X521185Y166854
X422760Y225909
X403075Y225909
X383390Y216067
X383390Y196382
X378272Y169610
X366854Y169610
X366854Y160555
X366854Y149925
X378272Y149925
X378272Y160555
X390870Y160555
X390870Y149925
X403075Y166854
X390870Y169610
X344020Y166854
X304650Y166854
X304650Y186539
X284965Y186539
X265280Y186539
X265280Y206224
X284965Y206224
X304650Y206224
X284965Y225909
X265280Y225909
X245594Y225909
X225909Y225909
X186539Y245594
X166854Y245594
X147169Y245594
X127484Y245594
X107799Y245594
X88114Y245594
X107799Y265280
X127484Y265280
X147169Y265280
X166854Y265280
X186539Y265280
X186539Y284965
X166854Y284965
X147169Y284965
X127484Y284965
X50319Y317248
X104650Y349138
X217642Y284571
X229059Y284571
X229059Y275516
X217642Y275516
X217642Y264886
X229059Y264886
X241657Y264886
X241657Y275516
X241657Y284571
X271972Y265280
X271972Y255831
X284965Y265280
X294807Y265280
X304650Y265280
X318035Y265280
X330240Y265280
X344020Y265280
X354650Y265280
X363705Y265280
X377091Y265280
X377091Y255831
X377091Y245594
X363705Y245594
X354256Y245594
X344020Y245594
X328272Y244413
X320004Y244413
X304650Y245594
X295201Y245594
X284965Y245594
X272366Y245594
X320004Y231815
X328272Y231815
X407799Y264886
X419217Y264886
X419217Y275516
X407799Y275516
X407799Y284571
X419217Y284571
X431815Y284571
X431815Y275516
X431815Y264886
X462130Y265280
X481815Y265280
X501500Y265280
X521185Y265280
X540870Y265280
X540870Y245594
X521185Y245594
X501500Y245594
X481815Y245594
X462130Y245594
X462130Y284965
X481815Y284965
X501500Y284965
X521185Y284965
X560555Y245594
X598350Y316854
X363705Y344020
X462130Y88114
X481815Y88114
X501500Y88114
X521185Y88114
X540870Y88114
X560555Y88114
X580240Y88114
X580240Y68429
X560555Y68429
X540870Y68429
X521185Y68429
X501500Y68429
X481815Y68429
X462130Y68429
X481815Y48744
X501500Y48744
X521185Y48744
X540870Y48744
X560555Y48744
X580240Y48744
X580240Y29059
X560555Y29059
X540870Y29059
X521185Y29059
X501500Y29059
X481815Y29059
X599925Y68429
X619610Y68429
X276303Y29846
X276303Y22760
T02
X284965Y12524
X304650Y12917
X324335Y12917
X344020Y12917
X363705Y12917
X383390Y12917
X403075Y12917
X422760Y12917
X438508Y23547
X442445Y12917
X456618Y12917
X462524Y13705
X462524Y21579
X462524Y29453
X457012Y29059
X462524Y37327
X462524Y45201
X454925Y47169
X461736Y52287
X457799Y56618
X452287Y61736
X445988Y63311
X438902Y63311
X438902Y69217
X438902Y75909
X438902Y81421
X442445Y84177
X445594Y87720
X445988Y92051
X445988Y96382
X445988Y100713
X447563Y110555
X455437Y108193
X458980Y111736
X462130Y116067
X462130Y120398
X462130Y125122
X462130Y129846
X462130Y134965
X466461Y134965
X470791Y134965
X475122Y134965
X479453Y134965
X483783Y134965
X488114Y134965
X492445Y134965
X496776Y134965
X501106Y134965
X457799Y134965
X453469Y134965
X448350Y137720
X448350Y141657
X448350Y145594
X445594Y134571
X438902Y134571
X413705Y132406
X413705Y125516
X422760Y117642
X422760Y109768
X436933Y109768
X436933Y117642
X433390Y93626
X418429Y93626
X405043Y92445
X400319Y92445
X395594Y94020
X391264Y94020
X387327Y94020
X383390Y94020
X379453Y94020
X375516Y94020
X371579Y94020
X373547Y99138
X369610Y99138
X377484Y99138
X381421Y99138
X385358Y99138
X389295Y99138
X393232Y99138
X395594Y111343
X395594Y114492
X395594Y117642
X383390Y119610
X383390Y115673
X383390Y111736
X383390Y107799
X356224Y126697
X359374Y128665
X356224Y131028
X357406Y142051
X361736Y142051
X366067Y142051
X370398Y142051
X374728Y142051
X379059Y142051
X383390Y142051
X387720Y142051
X392051Y142051
X396382Y142051
X400713Y142051
X405043Y142051
X405831Y148350
X410949Y148744
X416067Y149138
X416067Y153469
X413705Y157799
X413705Y162130
X413705Y166854
X413705Y171579
X404650Y177878
X404650Y181815
X404650Y185752
X404650Y189689
X404650Y193626
X404650Y197563
X404650Y201500
X404650Y205831
X404650Y210161
X426303Y215280
X429453Y216854
X429453Y213311
X429453Y209768
X445594Y207799
X445594Y203469
X445594Y199138
X445594Y194807
X445594Y190476
X445594Y186146
X445594Y181815
X445594Y177484
X445594Y173154
X445594Y168823
X450713Y170791
X455043Y170791
X459374Y170791
X463705Y170791
X468035Y170791
X472366Y170791
X476697Y170791
X481028Y170791
X485358Y170791
X489689Y170791
X494020Y170791
X498350Y170791
X481815Y176697
X481815Y181028
X481815Y189689
X481815Y194020
X481815Y198350
X481815Y207012
X481815Y210949
X458193Y220791
X458193Y225122
X458193Y229453
X458193Y233783
X445594Y216461
X445594Y212130
X423941Y236146
X412917Y244413
X403075Y244413
X393232Y244413
X383390Y244413
X393626Y259768
X393626Y264098
X393626Y268429
X393626Y272760
X393626Y277091
X393626Y281421
X393626Y285752
X393626Y290083
X432209Y298350
X436539Y298350
X444807Y290083
X444807Y285752
X444807Y281421
X444807Y277091
X444807Y272760
X444807Y268429
X444807Y264098
X444807Y259768
X383390Y186539
X382996Y177484
X379059Y177484
X375122Y177484
X367248Y177484
X363311Y177484
X363311Y186539
X358587Y186539
X354256Y186539
X349531Y186539
X344807Y186539
X340083Y186539
X335358Y186539
X328272Y188902
X328272Y196382
X328272Y204650
X320004Y204650
X320004Y196382
X320004Y188902
X320004Y180634
X320004Y175909
X320004Y171185
X320004Y166461
X320004Y161736
X310161Y159374
X305831Y159374
X301500Y159374
X297169Y159374
X313311Y153469
X328272Y161736
X328272Y166461
X328272Y171185
X328272Y175909
X328272Y180634
X338114Y159374
X342445Y159374
X346776Y159374
X351106Y159374
X334965Y153075
X291264Y142051
X286933Y142051
X282602Y142051
X278272Y142051
X273941Y142051
X269610Y142051
X265280Y142051
X260949Y142051
X256618Y142051
X252287Y142051
X247957Y142051
X243626Y142051
X239689Y151894
X239689Y156224
X239689Y160555
X239689Y164886
X239689Y169217
X239689Y173547
X251894Y177484
X255831Y177484
X263705Y177484
X267642Y177484
X271579Y177484
X279453Y177484
X283390Y177484
X245594Y186146
X245594Y190083
X245594Y194020
X245594Y197957
X245594Y201894
X245594Y205831
X245594Y209768
X236933Y194413
X233390Y194413
X229846Y194413
X226303Y194413
X213705Y212917
X215673Y216067
X211736Y216067
X202681Y216461
X202681Y212130
X202681Y207799
X202681Y203469
X202681Y199138
X202681Y194807
X202681Y190476
X202681Y186146
X202681Y181815
X202681Y177484
X202681Y173154
X202681Y168823
X197957Y169610
X193626Y169610
X189295Y169610
X184965Y169610
X180634Y169610
X176303Y169610
X171972Y169610
X167642Y169610
X163311Y169610
X158980Y169610
X154650Y169610
X150319Y169610
X166854Y176303
X166854Y180240
X166854Y188902
X166854Y193232
X166854Y197563
X166854Y206224
X166854Y210161
X182996Y220398
X182996Y224728
X182996Y229059
X182996Y233390
X203075Y259768
X203075Y264098
X203075Y268429
X203075Y272760
X203075Y277091
X203075Y281421
X203075Y285752
X203075Y290083
X171579Y318823
X156224Y318823
X139295Y318823
X123154Y318823
X106618Y318823
X88114Y318823
X78272Y328665
X78272Y339295
X71185Y340870
X66854Y340870
X62524Y340870
X58193Y340870
X58980Y353469
X53075Y359768
X47169Y365280
X29059Y359374
X36933Y349925
X25909Y338508
X17248Y333783
X25909Y327484
X12917Y324335
X13705Y310161
X29059Y309768
X42051Y309768
X42051Y316461
X58193Y316461
X58193Y309768
X66854Y309768
X87327Y343626
X69217Y375909
X75909Y382602
X67642Y384571
X53862Y383390
X48744Y399531
X68429Y399531
X88114Y399531
X98350Y390083
X107799Y399531
X127484Y399531
X147169Y399531
X166854Y399531
X177484Y390083
X186539Y399531
X206224Y399531
X225909Y399531
X245594Y399531
X255437Y390083
X265280Y399531
X284965Y399531
X290083Y385752
X275122Y381815
X255831Y371579
X275122Y371185
X290083Y371185
X299138Y371185
X308193Y376303
X316854Y368429
X320791Y360161
X316461Y355043
X307012Y356224
X299531Y360161
X292051Y354256
X284965Y344020
X304650Y344020
X324335Y344020
X331028Y353862
X344020Y344020
X360949Y354650
X369610Y353075
X383390Y344020
X390476Y353075
X390476Y360555
X390476Y372366
X390476Y388114
X383390Y399531
X403075Y399531
X422760Y399531
X442445Y399531
X451894Y387327
X453469Y375909
X472760Y387327
X491657Y387327
X501500Y375909
X511343Y387720
X521185Y399531
X530634Y387327
X542445Y375909
X546382Y387327
X540870Y399531
X560555Y399531
X580240Y399531
X599925Y399531
X595594Y383390
X585752Y372760
X602681Y367248
X619610Y359374
X604650Y354256
X594020Y350319
X604256Y339689
X590476Y338114
X590083Y329453
X590083Y316461
X590083Y309374
X578272Y309768
X570398Y317642
X560949Y326303
X550319Y337327
X530634Y337327
X510949Y337327
X491264Y337327
X471579Y337327
X451894Y337327
X435358Y337327
X422760Y344020
X412130Y353075
X403075Y344020
X429059Y364886
X436146Y353075
X457799Y361343
X477878Y361343
X497563Y361343
X517248Y361343
X537327Y361736
X557799Y361343
X569217Y361343
X582996Y361343
X578272Y350713
X569610Y349531
X581028Y340083
X574335Y334177
X606224Y316461
X606224Y309374
X614098Y309374
X622366Y309374
X635752Y309374
X635752Y324335
X625516Y332996
X635752Y344020
X623547Y347169
X635752Y363705
X564492Y381421
X563311Y372760
X501500Y399531
X481815Y399531
X462130Y399531
X363705Y399531
X344020Y399531
X324335Y399531
X304650Y399531
X236146Y381815
X235752Y371579
X217248Y371579
X219217Y360161
X197563Y371579
X196382Y381815
X176303Y371579
X182209Y363705
X182209Y353075
X177878Y345201
X177878Y336539
X140870Y347957
X138114Y336146
X160949Y371579
X157799Y381815
X240476Y344020
X265280Y344020
X255043Y290083
X255043Y285752
X255043Y281421
X255043Y277091
X255043Y272760
X255043Y268429
X255043Y264098
X255043Y259768
X255437Y244413
X245594Y244413
X236146Y244413
X227484Y244413
X216854Y236146
X265280Y244413
X320004Y222366
X328272Y222366
X328272Y213311
X320004Y213311
X390870Y177484
X394807Y177484
X429059Y175516
X429059Y170791
X429059Y165673
X347957Y118823
X347957Y113311
X347957Y107799
X327091Y115673
X323941Y117642
X320791Y115673
X323941Y113311
X327091Y120004
X323941Y121972
X320791Y120004
X292445Y127091
X289295Y129059
X292445Y131028
X288902Y119610
X288902Y113311
X288902Y106618
X286933Y99138
X282996Y99138
X279059Y99138
X275122Y99138
X271185Y99138
X267248Y99138
X267248Y105831
X267248Y109768
X267248Y113705
X267248Y117642
X243232Y116067
X242839Y131421
X233390Y131421
X223941Y131421
X223547Y114492
X223547Y106539
X208587Y106618
X198744Y103862
X198744Y95988
X198744Y88114
X204650Y90476
X198744Y80240
X198744Y72366
X198744Y64492
X198744Y56618
X198744Y48744
X198744Y40870
X198744Y32996
X205437Y34177
X210555Y39689
X218429Y30634
X218429Y23941
X218429Y17642
X225909Y12917
X232602Y14492
X236539Y14492
X245594Y12917
X265280Y12917
X254256Y31815
X261343Y39689
X265280Y51106
X266067Y57799
X255831Y57799
X246776Y57799
X238114Y57799
X232209Y50713
X229059Y61343
X225122Y61343
X225122Y68823
X225122Y75516
X225122Y82996
X225122Y90083
X229453Y90083
X233783Y90083
X238114Y90083
X242445Y90083
X246776Y90476
X251106Y90476
X255437Y90476
X259768Y90476
X265280Y94020
X269217Y94020
X273154Y94020
X277484Y94020
X281421Y94020
X285358Y94020
X320004Y62524
X314492Y57799
X304256Y57799
X304650Y51106
X316854Y51106
X325909Y57012
X327484Y62917
X338508Y62917
X338508Y57012
X355831Y57012
X366067Y54650
X365673Y62917
X355437Y62917
X374728Y62917
X383390Y62917
X392445Y62917
X392445Y57012
X383783Y54650
X374335Y57012
X401500Y54650
X401500Y62917
X412917Y62524
X412917Y68429
X412917Y75122
X412917Y81421
X408980Y83783
X405831Y87327
X417917Y54650
X435634Y55831
X440146Y46776
X446839Y40476
X446445Y55043
X481815Y13705
X501500Y13705
X521185Y13705
X540870Y13705
X560555Y13705
X580240Y13705
X599925Y13705
X594807Y29059
X601894Y46776
X619610Y53862
X634965Y48744
X634965Y68429
X634965Y88114
X634965Y107799
X634965Y127484
X634965Y146382
X619610Y146382
X599925Y146382
X580240Y146382
X325909Y41264
X317248Y39295
X307406Y39295
X284965Y51106
X284571Y57799
X275909Y57799
X294020Y57799
X281815Y39689
X245594Y51106
X242051Y39689
X240870Y31421
X235358Y31421
X230634Y31421
X205437Y23941
X198744Y23941
X199138Y13311
X206224Y12917
X186539Y13311
X166854Y13705
X147169Y13705
X127484Y13705
X107799Y13705
X88114Y13705
X68429Y13705
X48744Y13705
X53469Y29059
X46776Y46776
X29059Y53469
X13705Y48744
X13705Y68429
X13705Y88114
X13705Y107799
X13705Y127484
X13705Y143232
X29059Y143232
X68035Y143232
X148350Y130240
X152681Y130240
X157012Y130240
X161343Y130240
X165673Y130240
X170004Y130240
X174335Y130240
X178665Y130240
X182996Y130240
X187327Y130240
X191657Y130240
X198744Y127484
X198744Y119610
X204650Y114492
X208587Y114492
X198744Y111736
X201894Y133783
X201894Y138114
X201894Y142051
X203862Y150319
X203862Y159374
X212130Y159768
X212130Y171185
X219610Y90476
X12917Y344020
X12917Y363705
T03
X422366Y95988
X425909Y95988
X212130Y92839
X208587Y92839
T04
X205043Y123154
X205043Y126303
X218429Y126303
X218429Y123154
X419217Y126303
X419217Y129453
X432209Y129453
X432209Y126303
T05
X429846Y113705
X455043Y123547
X455043Y127091
X240870Y123941
X240870Y120398
X216067Y110555
T06
X326579Y47839
X358980Y53075
X395201Y51894
X422366Y51894
X612524Y338508
X147957Y344807
X108193Y343626
T07
X220791Y51500
X224335Y35752
T08
X270004Y29728
X270004Y19728
X95594Y330752
X95594Y340752
T09
X91074Y371579
X81074Y371579
X101074Y371579
X111074Y371579
X121074Y371579
X131074Y371579
X104424Y307928
X94424Y307928
X84424Y307928
X74424Y307928
X110555Y161382
X110555Y131382
X291874Y28974
X301874Y28974
X311874Y28974
X321874Y28974
X331874Y28974
X341874Y28974
X351874Y28974
X361874Y28974
X371874Y28974
X381874Y28974
X391874Y28974
X401874Y28974
X411874Y28974
X421874Y28974
X431874Y28974
X536933Y135319
X536933Y165319
X425574Y380624
X415574Y380624
X405574Y380624
X395574Y380624
X385574Y380624
X375574Y380624
X365574Y380624
X355574Y380624
X345574Y380624
X335574Y380624
T10
X424335Y156618
T11
X359768Y110555
X255831Y99531
X226697Y164886
X250535Y235535
X176697Y275516
X249925Y328665
X262524Y328665
X391657Y319610
X471185Y276697
X398213Y235535
X413705Y212524
X344020Y197563
X551106Y39295
X444413Y29059
X623547Y245594
X571185Y390476
X24974Y241628
X97809Y39226
T12
X42839Y91707
X42839Y129207
X42839Y166707
X42839Y204207
X606193Y207356
X606193Y169856
X606193Y132356
X606193Y94856
T13
X29059Y29059
X29059Y383390
X619610Y383390
X619610Y29059
M30
