G75*
%MOIN*%
%OFA0B0*%
%FSLAX25Y25*%
%IPPOS*%
%LPD*%
%AMOC8*
5,1,8,0,0,1.08239X$1,22.5*
%
%ADD10C,0.00000*%
%ADD11C,0.00700*%
D10*
X0009374Y0009374D02*
X0009374Y0403075D01*
X0639295Y0403075D01*
X0639295Y0009374D01*
X0009374Y0009374D01*
X0022760Y0029059D02*
X0022762Y0029217D01*
X0022768Y0029375D01*
X0022778Y0029533D01*
X0022792Y0029691D01*
X0022810Y0029848D01*
X0022831Y0030005D01*
X0022857Y0030161D01*
X0022887Y0030317D01*
X0022920Y0030472D01*
X0022958Y0030625D01*
X0022999Y0030778D01*
X0023044Y0030930D01*
X0023093Y0031081D01*
X0023146Y0031230D01*
X0023202Y0031378D01*
X0023262Y0031524D01*
X0023326Y0031669D01*
X0023394Y0031812D01*
X0023465Y0031954D01*
X0023539Y0032094D01*
X0023617Y0032231D01*
X0023699Y0032367D01*
X0023783Y0032501D01*
X0023872Y0032632D01*
X0023963Y0032761D01*
X0024058Y0032888D01*
X0024155Y0033013D01*
X0024256Y0033135D01*
X0024360Y0033254D01*
X0024467Y0033371D01*
X0024577Y0033485D01*
X0024690Y0033596D01*
X0024805Y0033705D01*
X0024923Y0033810D01*
X0025044Y0033912D01*
X0025167Y0034012D01*
X0025293Y0034108D01*
X0025421Y0034201D01*
X0025551Y0034291D01*
X0025684Y0034377D01*
X0025819Y0034461D01*
X0025955Y0034540D01*
X0026094Y0034617D01*
X0026235Y0034689D01*
X0026377Y0034759D01*
X0026521Y0034824D01*
X0026667Y0034886D01*
X0026814Y0034944D01*
X0026963Y0034999D01*
X0027113Y0035050D01*
X0027264Y0035097D01*
X0027416Y0035140D01*
X0027569Y0035179D01*
X0027724Y0035215D01*
X0027879Y0035246D01*
X0028035Y0035274D01*
X0028191Y0035298D01*
X0028348Y0035318D01*
X0028506Y0035334D01*
X0028663Y0035346D01*
X0028822Y0035354D01*
X0028980Y0035358D01*
X0029138Y0035358D01*
X0029296Y0035354D01*
X0029455Y0035346D01*
X0029612Y0035334D01*
X0029770Y0035318D01*
X0029927Y0035298D01*
X0030083Y0035274D01*
X0030239Y0035246D01*
X0030394Y0035215D01*
X0030549Y0035179D01*
X0030702Y0035140D01*
X0030854Y0035097D01*
X0031005Y0035050D01*
X0031155Y0034999D01*
X0031304Y0034944D01*
X0031451Y0034886D01*
X0031597Y0034824D01*
X0031741Y0034759D01*
X0031883Y0034689D01*
X0032024Y0034617D01*
X0032163Y0034540D01*
X0032299Y0034461D01*
X0032434Y0034377D01*
X0032567Y0034291D01*
X0032697Y0034201D01*
X0032825Y0034108D01*
X0032951Y0034012D01*
X0033074Y0033912D01*
X0033195Y0033810D01*
X0033313Y0033705D01*
X0033428Y0033596D01*
X0033541Y0033485D01*
X0033651Y0033371D01*
X0033758Y0033254D01*
X0033862Y0033135D01*
X0033963Y0033013D01*
X0034060Y0032888D01*
X0034155Y0032761D01*
X0034246Y0032632D01*
X0034335Y0032501D01*
X0034419Y0032367D01*
X0034501Y0032231D01*
X0034579Y0032094D01*
X0034653Y0031954D01*
X0034724Y0031812D01*
X0034792Y0031669D01*
X0034856Y0031524D01*
X0034916Y0031378D01*
X0034972Y0031230D01*
X0035025Y0031081D01*
X0035074Y0030930D01*
X0035119Y0030778D01*
X0035160Y0030625D01*
X0035198Y0030472D01*
X0035231Y0030317D01*
X0035261Y0030161D01*
X0035287Y0030005D01*
X0035308Y0029848D01*
X0035326Y0029691D01*
X0035340Y0029533D01*
X0035350Y0029375D01*
X0035356Y0029217D01*
X0035358Y0029059D01*
X0035356Y0028901D01*
X0035350Y0028743D01*
X0035340Y0028585D01*
X0035326Y0028427D01*
X0035308Y0028270D01*
X0035287Y0028113D01*
X0035261Y0027957D01*
X0035231Y0027801D01*
X0035198Y0027646D01*
X0035160Y0027493D01*
X0035119Y0027340D01*
X0035074Y0027188D01*
X0035025Y0027037D01*
X0034972Y0026888D01*
X0034916Y0026740D01*
X0034856Y0026594D01*
X0034792Y0026449D01*
X0034724Y0026306D01*
X0034653Y0026164D01*
X0034579Y0026024D01*
X0034501Y0025887D01*
X0034419Y0025751D01*
X0034335Y0025617D01*
X0034246Y0025486D01*
X0034155Y0025357D01*
X0034060Y0025230D01*
X0033963Y0025105D01*
X0033862Y0024983D01*
X0033758Y0024864D01*
X0033651Y0024747D01*
X0033541Y0024633D01*
X0033428Y0024522D01*
X0033313Y0024413D01*
X0033195Y0024308D01*
X0033074Y0024206D01*
X0032951Y0024106D01*
X0032825Y0024010D01*
X0032697Y0023917D01*
X0032567Y0023827D01*
X0032434Y0023741D01*
X0032299Y0023657D01*
X0032163Y0023578D01*
X0032024Y0023501D01*
X0031883Y0023429D01*
X0031741Y0023359D01*
X0031597Y0023294D01*
X0031451Y0023232D01*
X0031304Y0023174D01*
X0031155Y0023119D01*
X0031005Y0023068D01*
X0030854Y0023021D01*
X0030702Y0022978D01*
X0030549Y0022939D01*
X0030394Y0022903D01*
X0030239Y0022872D01*
X0030083Y0022844D01*
X0029927Y0022820D01*
X0029770Y0022800D01*
X0029612Y0022784D01*
X0029455Y0022772D01*
X0029296Y0022764D01*
X0029138Y0022760D01*
X0028980Y0022760D01*
X0028822Y0022764D01*
X0028663Y0022772D01*
X0028506Y0022784D01*
X0028348Y0022800D01*
X0028191Y0022820D01*
X0028035Y0022844D01*
X0027879Y0022872D01*
X0027724Y0022903D01*
X0027569Y0022939D01*
X0027416Y0022978D01*
X0027264Y0023021D01*
X0027113Y0023068D01*
X0026963Y0023119D01*
X0026814Y0023174D01*
X0026667Y0023232D01*
X0026521Y0023294D01*
X0026377Y0023359D01*
X0026235Y0023429D01*
X0026094Y0023501D01*
X0025955Y0023578D01*
X0025819Y0023657D01*
X0025684Y0023741D01*
X0025551Y0023827D01*
X0025421Y0023917D01*
X0025293Y0024010D01*
X0025167Y0024106D01*
X0025044Y0024206D01*
X0024923Y0024308D01*
X0024805Y0024413D01*
X0024690Y0024522D01*
X0024577Y0024633D01*
X0024467Y0024747D01*
X0024360Y0024864D01*
X0024256Y0024983D01*
X0024155Y0025105D01*
X0024058Y0025230D01*
X0023963Y0025357D01*
X0023872Y0025486D01*
X0023783Y0025617D01*
X0023699Y0025751D01*
X0023617Y0025887D01*
X0023539Y0026024D01*
X0023465Y0026164D01*
X0023394Y0026306D01*
X0023326Y0026449D01*
X0023262Y0026594D01*
X0023202Y0026740D01*
X0023146Y0026888D01*
X0023093Y0027037D01*
X0023044Y0027188D01*
X0022999Y0027340D01*
X0022958Y0027493D01*
X0022920Y0027646D01*
X0022887Y0027801D01*
X0022857Y0027957D01*
X0022831Y0028113D01*
X0022810Y0028270D01*
X0022792Y0028427D01*
X0022778Y0028585D01*
X0022768Y0028743D01*
X0022762Y0028901D01*
X0022760Y0029059D01*
X0022760Y0383390D02*
X0022762Y0383548D01*
X0022768Y0383706D01*
X0022778Y0383864D01*
X0022792Y0384022D01*
X0022810Y0384179D01*
X0022831Y0384336D01*
X0022857Y0384492D01*
X0022887Y0384648D01*
X0022920Y0384803D01*
X0022958Y0384956D01*
X0022999Y0385109D01*
X0023044Y0385261D01*
X0023093Y0385412D01*
X0023146Y0385561D01*
X0023202Y0385709D01*
X0023262Y0385855D01*
X0023326Y0386000D01*
X0023394Y0386143D01*
X0023465Y0386285D01*
X0023539Y0386425D01*
X0023617Y0386562D01*
X0023699Y0386698D01*
X0023783Y0386832D01*
X0023872Y0386963D01*
X0023963Y0387092D01*
X0024058Y0387219D01*
X0024155Y0387344D01*
X0024256Y0387466D01*
X0024360Y0387585D01*
X0024467Y0387702D01*
X0024577Y0387816D01*
X0024690Y0387927D01*
X0024805Y0388036D01*
X0024923Y0388141D01*
X0025044Y0388243D01*
X0025167Y0388343D01*
X0025293Y0388439D01*
X0025421Y0388532D01*
X0025551Y0388622D01*
X0025684Y0388708D01*
X0025819Y0388792D01*
X0025955Y0388871D01*
X0026094Y0388948D01*
X0026235Y0389020D01*
X0026377Y0389090D01*
X0026521Y0389155D01*
X0026667Y0389217D01*
X0026814Y0389275D01*
X0026963Y0389330D01*
X0027113Y0389381D01*
X0027264Y0389428D01*
X0027416Y0389471D01*
X0027569Y0389510D01*
X0027724Y0389546D01*
X0027879Y0389577D01*
X0028035Y0389605D01*
X0028191Y0389629D01*
X0028348Y0389649D01*
X0028506Y0389665D01*
X0028663Y0389677D01*
X0028822Y0389685D01*
X0028980Y0389689D01*
X0029138Y0389689D01*
X0029296Y0389685D01*
X0029455Y0389677D01*
X0029612Y0389665D01*
X0029770Y0389649D01*
X0029927Y0389629D01*
X0030083Y0389605D01*
X0030239Y0389577D01*
X0030394Y0389546D01*
X0030549Y0389510D01*
X0030702Y0389471D01*
X0030854Y0389428D01*
X0031005Y0389381D01*
X0031155Y0389330D01*
X0031304Y0389275D01*
X0031451Y0389217D01*
X0031597Y0389155D01*
X0031741Y0389090D01*
X0031883Y0389020D01*
X0032024Y0388948D01*
X0032163Y0388871D01*
X0032299Y0388792D01*
X0032434Y0388708D01*
X0032567Y0388622D01*
X0032697Y0388532D01*
X0032825Y0388439D01*
X0032951Y0388343D01*
X0033074Y0388243D01*
X0033195Y0388141D01*
X0033313Y0388036D01*
X0033428Y0387927D01*
X0033541Y0387816D01*
X0033651Y0387702D01*
X0033758Y0387585D01*
X0033862Y0387466D01*
X0033963Y0387344D01*
X0034060Y0387219D01*
X0034155Y0387092D01*
X0034246Y0386963D01*
X0034335Y0386832D01*
X0034419Y0386698D01*
X0034501Y0386562D01*
X0034579Y0386425D01*
X0034653Y0386285D01*
X0034724Y0386143D01*
X0034792Y0386000D01*
X0034856Y0385855D01*
X0034916Y0385709D01*
X0034972Y0385561D01*
X0035025Y0385412D01*
X0035074Y0385261D01*
X0035119Y0385109D01*
X0035160Y0384956D01*
X0035198Y0384803D01*
X0035231Y0384648D01*
X0035261Y0384492D01*
X0035287Y0384336D01*
X0035308Y0384179D01*
X0035326Y0384022D01*
X0035340Y0383864D01*
X0035350Y0383706D01*
X0035356Y0383548D01*
X0035358Y0383390D01*
X0035356Y0383232D01*
X0035350Y0383074D01*
X0035340Y0382916D01*
X0035326Y0382758D01*
X0035308Y0382601D01*
X0035287Y0382444D01*
X0035261Y0382288D01*
X0035231Y0382132D01*
X0035198Y0381977D01*
X0035160Y0381824D01*
X0035119Y0381671D01*
X0035074Y0381519D01*
X0035025Y0381368D01*
X0034972Y0381219D01*
X0034916Y0381071D01*
X0034856Y0380925D01*
X0034792Y0380780D01*
X0034724Y0380637D01*
X0034653Y0380495D01*
X0034579Y0380355D01*
X0034501Y0380218D01*
X0034419Y0380082D01*
X0034335Y0379948D01*
X0034246Y0379817D01*
X0034155Y0379688D01*
X0034060Y0379561D01*
X0033963Y0379436D01*
X0033862Y0379314D01*
X0033758Y0379195D01*
X0033651Y0379078D01*
X0033541Y0378964D01*
X0033428Y0378853D01*
X0033313Y0378744D01*
X0033195Y0378639D01*
X0033074Y0378537D01*
X0032951Y0378437D01*
X0032825Y0378341D01*
X0032697Y0378248D01*
X0032567Y0378158D01*
X0032434Y0378072D01*
X0032299Y0377988D01*
X0032163Y0377909D01*
X0032024Y0377832D01*
X0031883Y0377760D01*
X0031741Y0377690D01*
X0031597Y0377625D01*
X0031451Y0377563D01*
X0031304Y0377505D01*
X0031155Y0377450D01*
X0031005Y0377399D01*
X0030854Y0377352D01*
X0030702Y0377309D01*
X0030549Y0377270D01*
X0030394Y0377234D01*
X0030239Y0377203D01*
X0030083Y0377175D01*
X0029927Y0377151D01*
X0029770Y0377131D01*
X0029612Y0377115D01*
X0029455Y0377103D01*
X0029296Y0377095D01*
X0029138Y0377091D01*
X0028980Y0377091D01*
X0028822Y0377095D01*
X0028663Y0377103D01*
X0028506Y0377115D01*
X0028348Y0377131D01*
X0028191Y0377151D01*
X0028035Y0377175D01*
X0027879Y0377203D01*
X0027724Y0377234D01*
X0027569Y0377270D01*
X0027416Y0377309D01*
X0027264Y0377352D01*
X0027113Y0377399D01*
X0026963Y0377450D01*
X0026814Y0377505D01*
X0026667Y0377563D01*
X0026521Y0377625D01*
X0026377Y0377690D01*
X0026235Y0377760D01*
X0026094Y0377832D01*
X0025955Y0377909D01*
X0025819Y0377988D01*
X0025684Y0378072D01*
X0025551Y0378158D01*
X0025421Y0378248D01*
X0025293Y0378341D01*
X0025167Y0378437D01*
X0025044Y0378537D01*
X0024923Y0378639D01*
X0024805Y0378744D01*
X0024690Y0378853D01*
X0024577Y0378964D01*
X0024467Y0379078D01*
X0024360Y0379195D01*
X0024256Y0379314D01*
X0024155Y0379436D01*
X0024058Y0379561D01*
X0023963Y0379688D01*
X0023872Y0379817D01*
X0023783Y0379948D01*
X0023699Y0380082D01*
X0023617Y0380218D01*
X0023539Y0380355D01*
X0023465Y0380495D01*
X0023394Y0380637D01*
X0023326Y0380780D01*
X0023262Y0380925D01*
X0023202Y0381071D01*
X0023146Y0381219D01*
X0023093Y0381368D01*
X0023044Y0381519D01*
X0022999Y0381671D01*
X0022958Y0381824D01*
X0022920Y0381977D01*
X0022887Y0382132D01*
X0022857Y0382288D01*
X0022831Y0382444D01*
X0022810Y0382601D01*
X0022792Y0382758D01*
X0022778Y0382916D01*
X0022768Y0383074D01*
X0022762Y0383232D01*
X0022760Y0383390D01*
X0613311Y0383390D02*
X0613313Y0383548D01*
X0613319Y0383706D01*
X0613329Y0383864D01*
X0613343Y0384022D01*
X0613361Y0384179D01*
X0613382Y0384336D01*
X0613408Y0384492D01*
X0613438Y0384648D01*
X0613471Y0384803D01*
X0613509Y0384956D01*
X0613550Y0385109D01*
X0613595Y0385261D01*
X0613644Y0385412D01*
X0613697Y0385561D01*
X0613753Y0385709D01*
X0613813Y0385855D01*
X0613877Y0386000D01*
X0613945Y0386143D01*
X0614016Y0386285D01*
X0614090Y0386425D01*
X0614168Y0386562D01*
X0614250Y0386698D01*
X0614334Y0386832D01*
X0614423Y0386963D01*
X0614514Y0387092D01*
X0614609Y0387219D01*
X0614706Y0387344D01*
X0614807Y0387466D01*
X0614911Y0387585D01*
X0615018Y0387702D01*
X0615128Y0387816D01*
X0615241Y0387927D01*
X0615356Y0388036D01*
X0615474Y0388141D01*
X0615595Y0388243D01*
X0615718Y0388343D01*
X0615844Y0388439D01*
X0615972Y0388532D01*
X0616102Y0388622D01*
X0616235Y0388708D01*
X0616370Y0388792D01*
X0616506Y0388871D01*
X0616645Y0388948D01*
X0616786Y0389020D01*
X0616928Y0389090D01*
X0617072Y0389155D01*
X0617218Y0389217D01*
X0617365Y0389275D01*
X0617514Y0389330D01*
X0617664Y0389381D01*
X0617815Y0389428D01*
X0617967Y0389471D01*
X0618120Y0389510D01*
X0618275Y0389546D01*
X0618430Y0389577D01*
X0618586Y0389605D01*
X0618742Y0389629D01*
X0618899Y0389649D01*
X0619057Y0389665D01*
X0619214Y0389677D01*
X0619373Y0389685D01*
X0619531Y0389689D01*
X0619689Y0389689D01*
X0619847Y0389685D01*
X0620006Y0389677D01*
X0620163Y0389665D01*
X0620321Y0389649D01*
X0620478Y0389629D01*
X0620634Y0389605D01*
X0620790Y0389577D01*
X0620945Y0389546D01*
X0621100Y0389510D01*
X0621253Y0389471D01*
X0621405Y0389428D01*
X0621556Y0389381D01*
X0621706Y0389330D01*
X0621855Y0389275D01*
X0622002Y0389217D01*
X0622148Y0389155D01*
X0622292Y0389090D01*
X0622434Y0389020D01*
X0622575Y0388948D01*
X0622714Y0388871D01*
X0622850Y0388792D01*
X0622985Y0388708D01*
X0623118Y0388622D01*
X0623248Y0388532D01*
X0623376Y0388439D01*
X0623502Y0388343D01*
X0623625Y0388243D01*
X0623746Y0388141D01*
X0623864Y0388036D01*
X0623979Y0387927D01*
X0624092Y0387816D01*
X0624202Y0387702D01*
X0624309Y0387585D01*
X0624413Y0387466D01*
X0624514Y0387344D01*
X0624611Y0387219D01*
X0624706Y0387092D01*
X0624797Y0386963D01*
X0624886Y0386832D01*
X0624970Y0386698D01*
X0625052Y0386562D01*
X0625130Y0386425D01*
X0625204Y0386285D01*
X0625275Y0386143D01*
X0625343Y0386000D01*
X0625407Y0385855D01*
X0625467Y0385709D01*
X0625523Y0385561D01*
X0625576Y0385412D01*
X0625625Y0385261D01*
X0625670Y0385109D01*
X0625711Y0384956D01*
X0625749Y0384803D01*
X0625782Y0384648D01*
X0625812Y0384492D01*
X0625838Y0384336D01*
X0625859Y0384179D01*
X0625877Y0384022D01*
X0625891Y0383864D01*
X0625901Y0383706D01*
X0625907Y0383548D01*
X0625909Y0383390D01*
X0625907Y0383232D01*
X0625901Y0383074D01*
X0625891Y0382916D01*
X0625877Y0382758D01*
X0625859Y0382601D01*
X0625838Y0382444D01*
X0625812Y0382288D01*
X0625782Y0382132D01*
X0625749Y0381977D01*
X0625711Y0381824D01*
X0625670Y0381671D01*
X0625625Y0381519D01*
X0625576Y0381368D01*
X0625523Y0381219D01*
X0625467Y0381071D01*
X0625407Y0380925D01*
X0625343Y0380780D01*
X0625275Y0380637D01*
X0625204Y0380495D01*
X0625130Y0380355D01*
X0625052Y0380218D01*
X0624970Y0380082D01*
X0624886Y0379948D01*
X0624797Y0379817D01*
X0624706Y0379688D01*
X0624611Y0379561D01*
X0624514Y0379436D01*
X0624413Y0379314D01*
X0624309Y0379195D01*
X0624202Y0379078D01*
X0624092Y0378964D01*
X0623979Y0378853D01*
X0623864Y0378744D01*
X0623746Y0378639D01*
X0623625Y0378537D01*
X0623502Y0378437D01*
X0623376Y0378341D01*
X0623248Y0378248D01*
X0623118Y0378158D01*
X0622985Y0378072D01*
X0622850Y0377988D01*
X0622714Y0377909D01*
X0622575Y0377832D01*
X0622434Y0377760D01*
X0622292Y0377690D01*
X0622148Y0377625D01*
X0622002Y0377563D01*
X0621855Y0377505D01*
X0621706Y0377450D01*
X0621556Y0377399D01*
X0621405Y0377352D01*
X0621253Y0377309D01*
X0621100Y0377270D01*
X0620945Y0377234D01*
X0620790Y0377203D01*
X0620634Y0377175D01*
X0620478Y0377151D01*
X0620321Y0377131D01*
X0620163Y0377115D01*
X0620006Y0377103D01*
X0619847Y0377095D01*
X0619689Y0377091D01*
X0619531Y0377091D01*
X0619373Y0377095D01*
X0619214Y0377103D01*
X0619057Y0377115D01*
X0618899Y0377131D01*
X0618742Y0377151D01*
X0618586Y0377175D01*
X0618430Y0377203D01*
X0618275Y0377234D01*
X0618120Y0377270D01*
X0617967Y0377309D01*
X0617815Y0377352D01*
X0617664Y0377399D01*
X0617514Y0377450D01*
X0617365Y0377505D01*
X0617218Y0377563D01*
X0617072Y0377625D01*
X0616928Y0377690D01*
X0616786Y0377760D01*
X0616645Y0377832D01*
X0616506Y0377909D01*
X0616370Y0377988D01*
X0616235Y0378072D01*
X0616102Y0378158D01*
X0615972Y0378248D01*
X0615844Y0378341D01*
X0615718Y0378437D01*
X0615595Y0378537D01*
X0615474Y0378639D01*
X0615356Y0378744D01*
X0615241Y0378853D01*
X0615128Y0378964D01*
X0615018Y0379078D01*
X0614911Y0379195D01*
X0614807Y0379314D01*
X0614706Y0379436D01*
X0614609Y0379561D01*
X0614514Y0379688D01*
X0614423Y0379817D01*
X0614334Y0379948D01*
X0614250Y0380082D01*
X0614168Y0380218D01*
X0614090Y0380355D01*
X0614016Y0380495D01*
X0613945Y0380637D01*
X0613877Y0380780D01*
X0613813Y0380925D01*
X0613753Y0381071D01*
X0613697Y0381219D01*
X0613644Y0381368D01*
X0613595Y0381519D01*
X0613550Y0381671D01*
X0613509Y0381824D01*
X0613471Y0381977D01*
X0613438Y0382132D01*
X0613408Y0382288D01*
X0613382Y0382444D01*
X0613361Y0382601D01*
X0613343Y0382758D01*
X0613329Y0382916D01*
X0613319Y0383074D01*
X0613313Y0383232D01*
X0613311Y0383390D01*
X0613311Y0029059D02*
X0613313Y0029217D01*
X0613319Y0029375D01*
X0613329Y0029533D01*
X0613343Y0029691D01*
X0613361Y0029848D01*
X0613382Y0030005D01*
X0613408Y0030161D01*
X0613438Y0030317D01*
X0613471Y0030472D01*
X0613509Y0030625D01*
X0613550Y0030778D01*
X0613595Y0030930D01*
X0613644Y0031081D01*
X0613697Y0031230D01*
X0613753Y0031378D01*
X0613813Y0031524D01*
X0613877Y0031669D01*
X0613945Y0031812D01*
X0614016Y0031954D01*
X0614090Y0032094D01*
X0614168Y0032231D01*
X0614250Y0032367D01*
X0614334Y0032501D01*
X0614423Y0032632D01*
X0614514Y0032761D01*
X0614609Y0032888D01*
X0614706Y0033013D01*
X0614807Y0033135D01*
X0614911Y0033254D01*
X0615018Y0033371D01*
X0615128Y0033485D01*
X0615241Y0033596D01*
X0615356Y0033705D01*
X0615474Y0033810D01*
X0615595Y0033912D01*
X0615718Y0034012D01*
X0615844Y0034108D01*
X0615972Y0034201D01*
X0616102Y0034291D01*
X0616235Y0034377D01*
X0616370Y0034461D01*
X0616506Y0034540D01*
X0616645Y0034617D01*
X0616786Y0034689D01*
X0616928Y0034759D01*
X0617072Y0034824D01*
X0617218Y0034886D01*
X0617365Y0034944D01*
X0617514Y0034999D01*
X0617664Y0035050D01*
X0617815Y0035097D01*
X0617967Y0035140D01*
X0618120Y0035179D01*
X0618275Y0035215D01*
X0618430Y0035246D01*
X0618586Y0035274D01*
X0618742Y0035298D01*
X0618899Y0035318D01*
X0619057Y0035334D01*
X0619214Y0035346D01*
X0619373Y0035354D01*
X0619531Y0035358D01*
X0619689Y0035358D01*
X0619847Y0035354D01*
X0620006Y0035346D01*
X0620163Y0035334D01*
X0620321Y0035318D01*
X0620478Y0035298D01*
X0620634Y0035274D01*
X0620790Y0035246D01*
X0620945Y0035215D01*
X0621100Y0035179D01*
X0621253Y0035140D01*
X0621405Y0035097D01*
X0621556Y0035050D01*
X0621706Y0034999D01*
X0621855Y0034944D01*
X0622002Y0034886D01*
X0622148Y0034824D01*
X0622292Y0034759D01*
X0622434Y0034689D01*
X0622575Y0034617D01*
X0622714Y0034540D01*
X0622850Y0034461D01*
X0622985Y0034377D01*
X0623118Y0034291D01*
X0623248Y0034201D01*
X0623376Y0034108D01*
X0623502Y0034012D01*
X0623625Y0033912D01*
X0623746Y0033810D01*
X0623864Y0033705D01*
X0623979Y0033596D01*
X0624092Y0033485D01*
X0624202Y0033371D01*
X0624309Y0033254D01*
X0624413Y0033135D01*
X0624514Y0033013D01*
X0624611Y0032888D01*
X0624706Y0032761D01*
X0624797Y0032632D01*
X0624886Y0032501D01*
X0624970Y0032367D01*
X0625052Y0032231D01*
X0625130Y0032094D01*
X0625204Y0031954D01*
X0625275Y0031812D01*
X0625343Y0031669D01*
X0625407Y0031524D01*
X0625467Y0031378D01*
X0625523Y0031230D01*
X0625576Y0031081D01*
X0625625Y0030930D01*
X0625670Y0030778D01*
X0625711Y0030625D01*
X0625749Y0030472D01*
X0625782Y0030317D01*
X0625812Y0030161D01*
X0625838Y0030005D01*
X0625859Y0029848D01*
X0625877Y0029691D01*
X0625891Y0029533D01*
X0625901Y0029375D01*
X0625907Y0029217D01*
X0625909Y0029059D01*
X0625907Y0028901D01*
X0625901Y0028743D01*
X0625891Y0028585D01*
X0625877Y0028427D01*
X0625859Y0028270D01*
X0625838Y0028113D01*
X0625812Y0027957D01*
X0625782Y0027801D01*
X0625749Y0027646D01*
X0625711Y0027493D01*
X0625670Y0027340D01*
X0625625Y0027188D01*
X0625576Y0027037D01*
X0625523Y0026888D01*
X0625467Y0026740D01*
X0625407Y0026594D01*
X0625343Y0026449D01*
X0625275Y0026306D01*
X0625204Y0026164D01*
X0625130Y0026024D01*
X0625052Y0025887D01*
X0624970Y0025751D01*
X0624886Y0025617D01*
X0624797Y0025486D01*
X0624706Y0025357D01*
X0624611Y0025230D01*
X0624514Y0025105D01*
X0624413Y0024983D01*
X0624309Y0024864D01*
X0624202Y0024747D01*
X0624092Y0024633D01*
X0623979Y0024522D01*
X0623864Y0024413D01*
X0623746Y0024308D01*
X0623625Y0024206D01*
X0623502Y0024106D01*
X0623376Y0024010D01*
X0623248Y0023917D01*
X0623118Y0023827D01*
X0622985Y0023741D01*
X0622850Y0023657D01*
X0622714Y0023578D01*
X0622575Y0023501D01*
X0622434Y0023429D01*
X0622292Y0023359D01*
X0622148Y0023294D01*
X0622002Y0023232D01*
X0621855Y0023174D01*
X0621706Y0023119D01*
X0621556Y0023068D01*
X0621405Y0023021D01*
X0621253Y0022978D01*
X0621100Y0022939D01*
X0620945Y0022903D01*
X0620790Y0022872D01*
X0620634Y0022844D01*
X0620478Y0022820D01*
X0620321Y0022800D01*
X0620163Y0022784D01*
X0620006Y0022772D01*
X0619847Y0022764D01*
X0619689Y0022760D01*
X0619531Y0022760D01*
X0619373Y0022764D01*
X0619214Y0022772D01*
X0619057Y0022784D01*
X0618899Y0022800D01*
X0618742Y0022820D01*
X0618586Y0022844D01*
X0618430Y0022872D01*
X0618275Y0022903D01*
X0618120Y0022939D01*
X0617967Y0022978D01*
X0617815Y0023021D01*
X0617664Y0023068D01*
X0617514Y0023119D01*
X0617365Y0023174D01*
X0617218Y0023232D01*
X0617072Y0023294D01*
X0616928Y0023359D01*
X0616786Y0023429D01*
X0616645Y0023501D01*
X0616506Y0023578D01*
X0616370Y0023657D01*
X0616235Y0023741D01*
X0616102Y0023827D01*
X0615972Y0023917D01*
X0615844Y0024010D01*
X0615718Y0024106D01*
X0615595Y0024206D01*
X0615474Y0024308D01*
X0615356Y0024413D01*
X0615241Y0024522D01*
X0615128Y0024633D01*
X0615018Y0024747D01*
X0614911Y0024864D01*
X0614807Y0024983D01*
X0614706Y0025105D01*
X0614609Y0025230D01*
X0614514Y0025357D01*
X0614423Y0025486D01*
X0614334Y0025617D01*
X0614250Y0025751D01*
X0614168Y0025887D01*
X0614090Y0026024D01*
X0614016Y0026164D01*
X0613945Y0026306D01*
X0613877Y0026449D01*
X0613813Y0026594D01*
X0613753Y0026740D01*
X0613697Y0026888D01*
X0613644Y0027037D01*
X0613595Y0027188D01*
X0613550Y0027340D01*
X0613509Y0027493D01*
X0613471Y0027646D01*
X0613438Y0027801D01*
X0613408Y0027957D01*
X0613382Y0028113D01*
X0613361Y0028270D01*
X0613343Y0028427D01*
X0613329Y0028585D01*
X0613319Y0028743D01*
X0613313Y0028901D01*
X0613311Y0029059D01*
D11*
X0436342Y0039496D02*
X0435625Y0038779D01*
X0434190Y0038779D01*
X0433473Y0039496D01*
X0431738Y0039496D02*
X0431021Y0038779D01*
X0429586Y0038779D01*
X0428869Y0039496D01*
X0428869Y0042366D01*
X0429586Y0043083D01*
X0431021Y0043083D01*
X0431738Y0042366D01*
X0431738Y0041648D01*
X0431021Y0040931D01*
X0428869Y0040931D01*
X0424378Y0040953D02*
X0424378Y0043822D01*
X0423661Y0044539D01*
X0422227Y0044539D01*
X0421509Y0043822D01*
X0419774Y0043105D02*
X0418340Y0044539D01*
X0418340Y0040236D01*
X0419774Y0040236D02*
X0416905Y0040236D01*
X0415170Y0040236D02*
X0412301Y0040236D01*
X0413736Y0040236D02*
X0413736Y0044539D01*
X0415170Y0043105D01*
X0421509Y0040953D02*
X0422227Y0040236D01*
X0423661Y0040236D01*
X0424378Y0040953D01*
X0433473Y0042366D02*
X0434190Y0043083D01*
X0435625Y0043083D01*
X0436342Y0042366D01*
X0436342Y0039496D01*
X0430748Y0132854D02*
X0429313Y0132854D01*
X0428596Y0133571D01*
X0426861Y0132854D02*
X0423992Y0132854D01*
X0425426Y0132854D02*
X0425426Y0137158D01*
X0426861Y0135723D01*
X0428596Y0136440D02*
X0429313Y0137158D01*
X0430748Y0137158D01*
X0431465Y0136440D01*
X0431465Y0133571D01*
X0430748Y0132854D01*
X0422257Y0133571D02*
X0421540Y0132854D01*
X0420105Y0132854D01*
X0419388Y0133571D01*
X0419388Y0134288D01*
X0420105Y0135006D01*
X0422257Y0135006D01*
X0422257Y0133571D01*
X0422257Y0135006D02*
X0420823Y0136440D01*
X0419388Y0137158D01*
X0337492Y0243294D02*
X0333189Y0243294D01*
X0333189Y0246163D02*
X0337492Y0246163D01*
X0337492Y0247898D02*
X0337492Y0250767D01*
X0337492Y0249333D02*
X0333189Y0249333D01*
X0333189Y0246163D02*
X0337492Y0243294D01*
X0336775Y0252502D02*
X0333906Y0252502D01*
X0333189Y0253219D01*
X0333189Y0254654D01*
X0333906Y0255371D01*
X0336775Y0255371D02*
X0337492Y0254654D01*
X0337492Y0253219D01*
X0336775Y0252502D01*
X0217292Y0132503D02*
X0217292Y0129634D01*
X0216574Y0128917D01*
X0215140Y0128917D01*
X0214423Y0129634D01*
X0212688Y0128917D02*
X0209819Y0128917D01*
X0211253Y0128917D02*
X0211253Y0133221D01*
X0212688Y0131786D01*
X0214423Y0132503D02*
X0215140Y0133221D01*
X0216574Y0133221D01*
X0217292Y0132503D01*
X0208084Y0132503D02*
X0207367Y0133221D01*
X0205932Y0133221D01*
X0205215Y0132503D01*
X0205215Y0131786D01*
X0208084Y0128917D01*
X0205215Y0128917D01*
X0231898Y0060898D02*
X0231181Y0060181D01*
X0231181Y0058746D01*
X0231898Y0058029D01*
X0232615Y0058029D01*
X0233333Y0058746D01*
X0233333Y0060181D01*
X0232615Y0060898D01*
X0231898Y0060898D01*
X0233333Y0060181D02*
X0234050Y0060898D01*
X0234767Y0060898D01*
X0235484Y0060181D01*
X0235484Y0058746D01*
X0234767Y0058029D01*
X0234050Y0058029D01*
X0233333Y0058746D01*
X0234767Y0056294D02*
X0235484Y0055577D01*
X0235484Y0054142D01*
X0234767Y0053425D01*
X0231898Y0053425D01*
X0231181Y0054142D01*
X0231181Y0055577D01*
X0231898Y0056294D01*
X0212768Y0037910D02*
X0212051Y0037910D01*
X0209181Y0035041D01*
X0208464Y0035041D01*
X0209181Y0033307D02*
X0208464Y0032589D01*
X0208464Y0031155D01*
X0209181Y0030437D01*
X0212051Y0030437D01*
X0212768Y0031155D01*
X0212768Y0032589D01*
X0212051Y0033307D01*
X0212768Y0035041D02*
X0212768Y0037910D01*
X0092197Y0283582D02*
X0087893Y0283582D01*
X0089328Y0283582D02*
X0089328Y0285734D01*
X0090045Y0286451D01*
X0091480Y0286451D01*
X0092197Y0285734D01*
X0092197Y0283582D01*
X0089328Y0285017D02*
X0087893Y0286451D01*
X0088611Y0288186D02*
X0087893Y0288903D01*
X0087893Y0290338D01*
X0088611Y0291055D01*
X0089328Y0291055D01*
X0090045Y0290338D01*
X0090045Y0289621D01*
X0090045Y0290338D02*
X0090762Y0291055D01*
X0091480Y0291055D01*
X0092197Y0290338D01*
X0092197Y0288903D01*
X0091480Y0288186D01*
X0090762Y0292790D02*
X0092197Y0294225D01*
X0087893Y0294225D01*
X0087893Y0295659D02*
X0087893Y0292790D01*
M02*
