%
M48
M72
T01C0.00984
T02C0.01181
T03C0.01378
T04C0.01575
T05C0.01969
T06C0.02165
T07C0.02362
T08C0.03200
T09C0.03937
T10C0.04000
T11C0.04724
T12C0.05512
T13C0.05900
T14C0.05906
T15C0.12598
%
T01
X143824Y84886
X152574Y96136
X176436Y90661
X172536Y79861
X171636Y51961
X217486Y97986
X303136Y132061
X348299Y120174
X373611Y113299
X377361Y114549
X377361Y108299
X377361Y102361
X394574Y113549
X390799Y157674
X390799Y162674
X385799Y162674
X386424Y169861
X381736Y173924
X404861Y171111
X438636Y163861
X488636Y163861
X538636Y163861
X588736Y163361
X537836Y113761
X487836Y113761
X538836Y63761
X513836Y62761
X512836Y37761
X561836Y36761
X588836Y62761
X588736Y113361
X588636Y213861
X538636Y213861
X488636Y213861
X438636Y213861
X491699Y274774
X515674Y278186
X542599Y289474
X563636Y263861
X530874Y337961
X527324Y343561
X523686Y337649
X519824Y343561
X512949Y343561
X516186Y337649
X508999Y337649
X505761Y343561
X501811Y337649
X516111Y350174
X516111Y355799
X516111Y360799
X516111Y365486
X516111Y370486
X516111Y375486
X516111Y381424
X532986Y375486
X532674Y370486
X532674Y365486
X532674Y360486
X533299Y395486
X533299Y399861
X533299Y403924
X498611Y403924
X498611Y399861
X498299Y395486
X439036Y388561
X404911Y394811
X404911Y397911
X404911Y400911
X364611Y400911
X364611Y397811
X364611Y394711
X439036Y363561
X439036Y338561
X439036Y313561
X279736Y251061
X279336Y239961
X248711Y229386
X248711Y226586
X248711Y223786
X239024Y225961
X232149Y225961
X228711Y225961
X225586Y225961
X225274Y222524
X239961Y234711
X242774Y234711
X245586Y234711
X241149Y241061
X241049Y246061
X241061Y252061
X241074Y258061
X213136Y264761
X212536Y288961
X158486Y263661
X156711Y274174
X152961Y274174
X157336Y283861
X157336Y291674
X157336Y299174
X157336Y306049
X157336Y312299
X157336Y318861
X157024Y326049
X134861Y274311
X129861Y274511
X131161Y262611
X135461Y262611
X87649Y253549
X82599Y250111
X78599Y250111
X74599Y250111
X70599Y250111
X66399Y250111
X62024Y250111
X57336Y250111
X52336Y250111
X47936Y250011
X43586Y250111
X52336Y276674
X49136Y279974
X57336Y276674
X62024Y276674
X66399Y276674
X71399Y276674
X49736Y304374
X49736Y310574
X68236Y326474
X68536Y333374
X68536Y339874
X68536Y346274
X242636Y324661
X273036Y298761
X163036Y213561
X139036Y213561
X114036Y213561
X88036Y213561
X63036Y213561
X38036Y213561
X135799Y159036
X166999Y159374
X302336Y170361
T02
X314774Y174936
X323874Y175899
X319874Y186086
X324136Y191711
X309211Y195386
X326799Y202474
X321711Y209386
X323174Y215674
X319411Y215811
X316999Y221574
X324111Y225011
X321311Y228211
X315899Y233574
X303886Y227199
X288524Y228174
X274311Y215036
X263686Y221424
X263811Y230961
X264024Y240961
X264024Y250336
X264236Y259299
X261811Y268086
X262511Y276186
X249311Y268186
X241336Y264586
X232936Y264686
X226136Y261586
X226386Y251936
X226074Y244336
X216386Y244211
X205611Y244211
X190899Y243911
X190811Y252074
X190786Y261861
X190886Y272524
X190986Y283186
X190974Y293574
X190974Y304674
X191061Y315686
X191061Y326699
X180236Y337274
X195649Y343874
X197136Y354561
X173149Y365711
X164436Y353161
X156086Y342336
X150461Y337611
X138586Y337924
X126086Y337611
X124524Y325736
X124524Y314486
X124524Y302299
X124524Y289486
X113899Y282611
X109211Y282611
X102386Y285449
X97199Y285449
X91999Y285449
X87111Y285449
X82211Y285449
X78274Y276049
X61086Y296361
X57024Y296361
X52961Y296361
X69024Y306674
X74724Y301874
X82824Y301874
X91624Y301874
X69024Y316774
X49449Y317111
X49424Y332174
X49524Y347274
X54324Y352674
X61724Y352874
X68624Y352874
X79024Y334874
X88524Y334774
X97024Y330774
X111711Y345399
X120649Y354661
X97824Y359149
X115274Y385736
X102974Y392436
X101811Y404311
X126711Y404311
X151811Y404311
X176811Y404311
X189236Y391424
X194636Y377861
X206074Y381449
X206736Y372361
X219236Y346111
X217674Y341424
X234836Y349361
X249011Y345111
X255511Y348711
X253274Y352724
X263199Y351011
X276999Y345386
X285174Y352361
X277161Y337349
X288436Y326024
X275861Y319386
X301111Y313924
X312049Y326736
X321424Y332986
X327674Y342361
X307674Y347049
X301311Y336311
X319861Y308611
X311974Y297874
X302349Y297874
X326874Y297174
X340186Y288124
X344211Y290011
X358636Y298574
X348124Y304286
X342049Y298924
X335574Y313486
X337049Y325174
X352986Y339236
X360736Y331474
X365224Y327074
X360624Y323874
X365424Y335874
X378936Y330674
X393136Y328774
X392949Y342636
X393036Y355886
X378736Y355974
X365311Y360411
X365411Y370536
X379236Y373774
X395486Y368149
X409361Y373324
X365311Y347449
X350724Y374774
X351711Y404311
X326811Y404411
X301811Y404311
X276711Y404311
X251811Y404311
X226811Y404311
X201711Y404311
X250799Y372049
X260174Y376424
X257624Y337124
X216249Y324024
X211111Y305886
X239849Y300324
X233986Y281436
X277611Y267886
X288911Y268086
X295411Y264011
X293011Y259686
X302199Y253174
X311211Y244411
X315799Y247374
X332011Y246736
X338711Y256536
X352174Y247411
X354274Y233274
X361111Y223924
X364236Y220799
X357986Y220174
X370799Y229236
X376924Y233486
X388611Y232674
X404336Y232649
X415574Y233074
X415174Y246111
X404049Y247436
X388299Y263611
X389861Y268611
X390486Y272674
X397936Y275961
X405799Y281424
X406636Y286036
X400799Y297986
X393036Y302974
X377049Y311424
X370836Y303974
X393136Y314874
X416536Y299661
X432049Y299974
X432261Y295511
X444749Y299474
X450249Y286549
X461811Y295111
X466311Y295986
X476549Y305649
X478511Y319736
X484486Y319786
X490486Y319824
X478324Y326086
X478411Y331636
X460574Y328536
X460686Y339549
X477499Y351261
X471736Y359674
X471736Y368924
X471736Y378299
X471736Y387674
X472049Y397411
X476811Y404311
X481274Y404224
X481374Y400524
X451711Y404311
X426811Y404311
X404811Y404311
X376711Y404311
X460249Y315774
X433936Y285361
X435174Y275799
X431424Y272674
X426736Y277361
X431111Y265486
X440174Y274861
X395436Y265661
X377674Y268611
X368849Y275386
X369049Y284424
X353211Y273311
X344524Y275986
X332911Y268636
X318811Y270311
X318274Y278211
X302636Y274161
X311836Y265161
X302036Y242461
X332411Y233736
X337899Y231274
X336399Y221474
X332311Y214886
X326974Y215636
X338311Y213911
X338411Y210211
X340911Y207111
X343311Y209811
X346711Y201749
X346711Y192949
X355711Y192986
X355711Y201649
X382986Y191736
X392986Y191736
X403924Y191736
X416136Y190561
X383611Y218611
X376724Y247711
X461436Y245661
X467336Y233861
X500649Y266711
X536336Y266961
X560999Y290474
X551136Y299461
X563424Y308299
X563349Y315911
X574349Y316011
X576111Y308611
X588299Y316736
X593924Y317361
X586736Y323611
X582986Y327049
X592674Y327986
X593924Y337361
X595411Y342936
X611424Y342674
X616424Y342674
X640511Y338511
X622049Y321736
X640511Y313511
X640511Y288611
X640511Y263511
X640511Y238511
X640511Y213611
X640511Y188511
X640511Y163511
X640511Y138611
X640511Y113511
X640611Y88511
X640511Y63611
X601411Y16711
X576511Y16711
X551511Y16711
X526011Y16811
X500911Y16811
X476511Y16711
X451411Y16711
X426511Y16711
X401511Y16711
X376411Y16711
X351411Y16711
X326511Y16811
X301511Y16711
X276411Y16711
X251511Y16711
X226511Y16711
X208299Y28986
X207674Y40549
X197674Y40861
X186424Y38986
X206424Y58086
X222799Y59861
X227799Y70174
X240461Y67011
X233999Y56211
X253511Y56524
X262486Y61736
X259986Y68611
X259674Y72361
X259049Y83924
X272799Y81736
X259049Y92986
X260236Y101461
X272799Y99861
X278761Y103836
X289236Y112049
X302386Y118761
X319749Y118136
X323849Y126536
X339411Y121211
X342986Y119474
X331774Y115949
X347774Y108949
X351774Y92649
X364074Y86649
X379074Y89149
X388074Y94449
X395761Y94511
X395611Y82074
X388811Y75274
X381611Y68174
X371011Y65474
X362311Y62874
X354861Y60424
X351386Y69011
X351286Y73611
X351086Y78511
X329574Y91749
X319861Y81736
X312674Y82049
X316111Y75486
X316111Y69861
X319549Y63611
X312361Y63611
X315611Y58161
X315611Y52861
X332111Y48961
X340174Y53236
X340486Y61111
X336424Y61111
X332361Y61111
X339549Y42924
X299811Y49161
X299861Y61736
X295799Y61736
X291736Y61736
X271236Y65174
X299399Y82649
X315911Y105411
X288624Y132586
X293299Y141736
X289236Y143611
X286111Y146111
X280174Y146111
X279861Y150799
X275486Y151736
X267986Y153224
X261861Y163186
X249836Y163661
X249986Y172074
X242636Y178249
X235561Y187286
X249761Y188499
X249311Y201761
X238449Y201786
X231174Y209486
X231249Y213499
X221236Y207961
X217724Y206499
X225924Y202186
X243718Y216891
X249636Y209624
X262299Y211924
X262486Y199049
X281199Y205349
X289099Y212874
X295624Y191411
X296211Y181061
X281849Y190361
X263061Y172486
X279486Y159986
X282986Y156024
X296149Y159574
X315011Y159574
X323761Y159436
X323449Y142661
X315149Y141836
X345911Y135411
X348611Y132911
X346811Y139011
X349511Y153811
X353411Y157211
X357361Y164236
X361424Y164549
X365174Y164549
X370799Y168924
X355811Y172674
X399549Y154549
X415686Y161611
X415736Y143724
X431336Y141224
X422461Y131911
X414161Y128611
X412911Y133111
X434049Y120624
X451336Y121761
X448086Y106199
X469661Y103436
X462124Y92549
X470086Y88149
X482361Y79236
X490174Y82361
X494324Y63199
X494949Y43511
X484236Y43924
X472049Y43611
X460174Y43324
X432486Y55236
X418449Y64936
X407049Y67299
X399774Y58674
X389574Y53274
X382674Y52974
X418436Y87611
X418449Y108786
X364711Y120311
X272036Y128499
X264549Y138611
X253836Y128161
X243236Y128461
X244486Y138299
X232236Y132049
X227861Y126736
X233036Y124661
X243936Y114361
X250074Y117111
X266236Y116361
X240711Y99061
X237861Y103299
X232711Y99561
X229424Y111111
X218174Y110174
X210311Y100511
X213424Y96749
X210811Y92911
X194911Y92611
X194711Y100411
X186711Y97911
X166324Y98949
X156949Y111761
X141636Y114574
X147886Y124574
X148199Y133636
X135386Y133324
X133199Y123949
X106011Y117074
X90699Y117699
X83199Y110511
X62261Y119886
X60074Y130199
X42886Y119574
X39449Y129261
X16611Y138611
X45999Y156474
X56499Y148574
X88199Y129886
X97261Y141761
X97261Y150824
X105386Y160824
X117261Y154886
X141324Y144261
X156636Y143324
X179449Y146136
X190061Y149811
X209861Y149511
X209824Y140199
X214424Y140799
X219836Y149561
X226999Y155736
X231124Y146486
X243036Y157761
X235811Y164649
X216361Y185186
X207099Y175174
X199486Y187886
X187136Y188374
X187949Y175336
X172886Y166449
X151561Y169424
X157799Y189074
X187274Y204074
X195911Y203811
X199124Y207349
X199124Y199949
X199624Y225436
X186974Y224774
X176399Y225736
X171711Y225736
X167111Y225636
X167024Y233236
X162361Y237299
X167024Y241286
X167649Y256674
X149524Y252611
X139124Y249436
X139124Y245936
X137024Y255736
X133586Y255736
X130149Y255736
X122399Y250424
X118899Y250424
X109524Y246049
X97024Y240736
X77911Y231136
X72911Y231136
X67911Y231136
X62911Y231136
X30761Y251249
X29524Y263236
X29524Y271049
X16611Y263511
X16611Y238511
X16611Y213611
X16611Y188511
X16611Y163511
X74799Y186374
X83399Y174974
X120299Y175374
X119299Y188074
X105386Y134574
X112574Y93636
X112574Y82386
X85074Y88011
X81011Y88011
X59136Y85199
X41636Y86761
X42261Y104261
X16611Y113511
X16711Y88511
X16611Y63611
X44049Y65561
X57049Y67461
X84761Y63324
X77249Y46761
X65249Y41061
X83549Y33961
X97549Y33761
X101749Y26561
X107249Y26561
X112349Y26661
X117649Y21961
X125349Y21961
X126411Y16711
X101511Y16711
X76511Y16711
X51411Y16711
X96149Y46561
X124849Y46461
X131249Y34361
X135449Y34361
X147449Y45961
X156949Y64886
X157261Y73949
X186636Y74261
X190699Y79261
X194449Y73949
X203736Y70799
X195611Y83736
X186324Y65199
X217674Y40549
X201411Y16711
X176511Y16711
X151511Y16711
X241861Y78611
X276111Y45174
X199736Y114236
X198799Y121111
X190899Y120586
X198211Y130399
X235586Y236586
X177024Y273236
X171399Y273236
X166086Y273236
X137024Y269486
X133586Y269486
X130149Y269486
X122649Y275424
X120799Y278624
X118899Y275424
X163899Y336674
X147011Y364811
X151036Y368261
X142949Y375824
X135886Y385574
X76811Y404311
X51711Y404311
X16611Y363611
X16611Y338511
X16611Y313511
X29524Y311674
X29524Y304486
X29524Y297611
X16611Y288611
X547049Y319549
X551424Y319861
X551424Y324549
X548924Y333299
X549236Y338299
X551224Y342974
X576636Y346299
X576636Y350886
X576636Y355361
X576636Y359936
X576736Y364424
X576636Y369124
X582674Y362986
X596111Y364236
X584236Y380486
X571424Y382049
X569236Y390799
X552049Y398611
X551811Y404311
X576811Y404311
X601711Y404311
X551111Y386736
X549861Y377674
X549549Y372674
X551424Y368174
X640511Y363611
X591111Y294549
T03
X346849Y142661
T04
X457361Y293611
X343099Y294899
X73194Y113324
T05
X75069Y121136
X68824Y98636
X109444Y138636
X364178Y135924
X377553Y135674
X377428Y149174
X364053Y149174
T06
X409236Y171424
T07
X327811Y197261
X289874Y191461
X188149Y144699
X138194Y163636
X122569Y78949
X219361Y75174
X324524Y120236
X361303Y96799
X382436Y95125
X307049Y284861
X355486Y329861
X488411Y328611
X488511Y333511
X488511Y338411
X488511Y343311
X488511Y348311
X488511Y353211
X525111Y363111
X525011Y367911
X525011Y372811
X525011Y377811
X543711Y377811
X543711Y372811
X543711Y387611
X543711Y392511
X543711Y397511
X543711Y402411
X488411Y402511
X543811Y338411
X543811Y333511
X543811Y328611
T08
X532611Y290211
X532611Y276211
X498411Y276211
X498411Y290211
X188211Y211411
X174211Y211411
T09
X78211Y326511
X58211Y326511
T10
X78661Y312165
X88661Y312165
X98661Y312165
X108661Y312165
X38411Y259311
X38411Y239311
X202674Y361736
X212674Y361736
X222674Y361736
X232674Y361736
X242674Y361736
X252674Y361736
X267986Y361736
X277986Y361736
X287986Y361736
X302986Y361736
X312986Y361736
X322986Y361736
X339811Y384861
X349811Y384861
X359811Y384861
X369811Y384861
X379811Y384861
X389811Y384861
X399811Y384861
X409811Y384861
X419811Y384861
X429811Y384861
X601111Y301424
X601111Y291424
X601111Y281424
X259074Y34336
X241274Y34336
X212986Y34611
X202986Y34611
X192986Y34611
X296111Y33211
X306111Y33211
X316111Y33211
X326111Y33211
X336111Y33211
X346111Y33211
X356111Y33211
X366111Y33211
X376111Y33211
X386111Y33211
X396111Y33211
X406111Y33211
X416111Y33211
X426111Y33211
X436111Y33211
X135311Y375816
X125311Y375816
X115311Y375816
X105311Y375816
X95311Y375816
X85311Y375816
X85311Y392411
X95311Y392411
X161686Y388249
X179486Y388249
T11
X409236Y239236
X255867Y205649
X151111Y181811
X79411Y40011
T12
X193211Y181736
X193211Y232924
T13
X184386Y378449
X156786Y378449
X236374Y44136
X263974Y44136
T14
X370678Y142424
T15
X33296Y33296
X33296Y387627
X623847Y387627
X623847Y33296
M30
