G75*
%MOIN*%
%OFA0B0*%
%FSLAX25Y25*%
%IPPOS*%
%LPD*%
%AMOC8*
5,1,8,0,0,1.08239X$1,22.5*
%
%ADD10C,0.13701*%
%ADD11C,0.07102*%
%ADD12OC8,0.07102*%
%ADD13C,0.09952*%
%ADD14C,0.08502*%
%ADD15C,0.07039*%
%ADD16OC8,0.07402*%
%ADD17C,0.07402*%
%ADD18C,0.11102*%
%ADD19OC8,0.11102*%
%ADD20R,0.07102X0.07102*%
%ADD21C,0.03483*%
%ADD22C,0.09961*%
%ADD23C,0.04271*%
%ADD24C,0.03680*%
%ADD25C,0.05039*%
%ADD26C,0.04665*%
%ADD27C,0.03877*%
%ADD28C,0.04468*%
%ADD29C,0.08189*%
%ADD30C,0.09370*%
D10*
X0033296Y0033296D03*
X0033296Y0387627D03*
X0623847Y0387627D03*
X0623847Y0033296D03*
D11*
X0436111Y0036211D02*
X0436111Y0030211D01*
X0426111Y0030211D02*
X0426111Y0036211D01*
X0416111Y0036211D02*
X0416111Y0030211D01*
X0406111Y0030211D02*
X0406111Y0036211D01*
X0396111Y0036211D02*
X0396111Y0030211D01*
X0386111Y0030211D02*
X0386111Y0036211D01*
X0376111Y0036211D02*
X0376111Y0030211D01*
X0366111Y0030211D02*
X0366111Y0036211D01*
X0356111Y0036211D02*
X0356111Y0030211D01*
X0346111Y0030211D02*
X0346111Y0036211D01*
X0336111Y0036211D02*
X0336111Y0030211D01*
X0326111Y0030211D02*
X0326111Y0036211D01*
X0316111Y0036211D02*
X0316111Y0030211D01*
X0306111Y0030211D02*
X0306111Y0036211D01*
X0296111Y0036211D02*
X0296111Y0030211D01*
X0598111Y0281424D02*
X0604111Y0281424D01*
X0604111Y0291424D02*
X0598111Y0291424D01*
X0598111Y0301424D02*
X0604111Y0301424D01*
X0429811Y0381861D02*
X0429811Y0387861D01*
X0419811Y0387861D02*
X0419811Y0381861D01*
X0409811Y0381861D02*
X0409811Y0387861D01*
X0399811Y0387861D02*
X0399811Y0381861D01*
X0389811Y0381861D02*
X0389811Y0387861D01*
X0379811Y0387861D02*
X0379811Y0381861D01*
X0369811Y0381861D02*
X0369811Y0387861D01*
X0359811Y0387861D02*
X0359811Y0381861D01*
X0349811Y0381861D02*
X0349811Y0387861D01*
X0339811Y0387861D02*
X0339811Y0381861D01*
X0322986Y0364736D02*
X0322986Y0358736D01*
X0312986Y0358736D02*
X0312986Y0364736D01*
X0302986Y0364736D02*
X0302986Y0358736D01*
X0287986Y0358736D02*
X0287986Y0364736D01*
X0277986Y0364736D02*
X0277986Y0358736D01*
X0267986Y0358736D02*
X0267986Y0364736D01*
X0252674Y0364736D02*
X0252674Y0358736D01*
X0242674Y0358736D02*
X0242674Y0364736D01*
X0232674Y0364736D02*
X0232674Y0358736D01*
X0222674Y0358736D02*
X0222674Y0364736D01*
X0212674Y0364736D02*
X0212674Y0358736D01*
X0202674Y0358736D02*
X0202674Y0364736D01*
X0135311Y0372816D02*
X0135311Y0378816D01*
X0125311Y0378816D02*
X0125311Y0372816D01*
X0115311Y0372816D02*
X0115311Y0378816D01*
X0105311Y0378816D02*
X0105311Y0372816D01*
X0095311Y0372816D02*
X0095311Y0378816D01*
X0085311Y0378816D02*
X0085311Y0372816D01*
X0088661Y0315165D02*
X0088661Y0309165D01*
X0078661Y0309165D02*
X0078661Y0315165D01*
X0098661Y0315165D02*
X0098661Y0309165D01*
X0108661Y0309165D02*
X0108661Y0315165D01*
D12*
X0161686Y0388249D03*
X0179486Y0388249D03*
X0095311Y0392411D03*
X0241274Y0034336D03*
X0259074Y0034336D03*
D13*
X0263974Y0044136D03*
X0236374Y0044136D03*
X0184386Y0378449D03*
X0156786Y0378449D03*
D14*
X0192986Y0034611D03*
X0202986Y0034611D03*
X0212986Y0034611D03*
D15*
X0078211Y0326511D03*
X0058211Y0326511D03*
D16*
X0174211Y0211411D03*
X0498411Y0290211D03*
X0532611Y0290211D03*
D17*
X0532611Y0276211D03*
X0498411Y0276211D03*
X0188211Y0211411D03*
D18*
X0038411Y0259311D03*
D19*
X0038411Y0239311D03*
D20*
X0085311Y0392411D03*
D21*
X0076811Y0404311D03*
X0101811Y0404311D03*
X0102974Y0392436D03*
X0115274Y0385736D03*
X0135886Y0385574D03*
X0142949Y0375824D03*
X0151036Y0368261D03*
X0147011Y0364811D03*
X0164436Y0353161D03*
X0156086Y0342336D03*
X0150461Y0337611D03*
X0138586Y0337924D03*
X0126086Y0337611D03*
X0124524Y0325736D03*
X0124524Y0314486D03*
X0124524Y0302299D03*
X0124524Y0289486D03*
X0113899Y0282611D03*
X0109211Y0282611D03*
X0102386Y0285449D03*
X0097199Y0285449D03*
X0091999Y0285449D03*
X0087111Y0285449D03*
X0082211Y0285449D03*
X0078274Y0276049D03*
X0061086Y0296361D03*
X0057024Y0296361D03*
X0052961Y0296361D03*
X0069024Y0306674D03*
X0074724Y0301874D03*
X0082824Y0301874D03*
X0091624Y0301874D03*
X0069024Y0316774D03*
X0049449Y0317111D03*
X0049424Y0332174D03*
X0049524Y0347274D03*
X0054324Y0352674D03*
X0061724Y0352874D03*
X0068624Y0352874D03*
X0079024Y0334874D03*
X0088524Y0334774D03*
X0097024Y0330774D03*
X0111711Y0345399D03*
X0120649Y0354661D03*
X0097824Y0359149D03*
X0163899Y0336674D03*
X0180236Y0337274D03*
X0195649Y0343874D03*
X0197136Y0354561D03*
X0173149Y0365711D03*
X0194636Y0377861D03*
X0206074Y0381449D03*
X0206736Y0372361D03*
X0189236Y0391424D03*
X0176811Y0404311D03*
X0151811Y0404311D03*
X0126711Y0404311D03*
X0201711Y0404311D03*
X0226811Y0404311D03*
X0251811Y0404311D03*
X0276711Y0404311D03*
X0301811Y0404311D03*
X0326811Y0404411D03*
X0351711Y0404311D03*
X0376711Y0404311D03*
X0404811Y0404311D03*
X0426811Y0404311D03*
X0451711Y0404311D03*
X0472049Y0397411D03*
X0476811Y0404311D03*
X0481274Y0404224D03*
X0481374Y0400524D03*
X0471736Y0387674D03*
X0471736Y0378299D03*
X0471736Y0368924D03*
X0471736Y0359674D03*
X0477499Y0351261D03*
X0460686Y0339549D03*
X0460574Y0328536D03*
X0478324Y0326086D03*
X0478411Y0331636D03*
X0478511Y0319736D03*
X0484486Y0319786D03*
X0490486Y0319824D03*
X0476549Y0305649D03*
X0466311Y0295986D03*
X0461811Y0295111D03*
X0450249Y0286549D03*
X0433936Y0285361D03*
X0435174Y0275799D03*
X0431424Y0272674D03*
X0426736Y0277361D03*
X0431111Y0265486D03*
X0440174Y0274861D03*
X0432261Y0295511D03*
X0432049Y0299974D03*
X0444749Y0299474D03*
X0460249Y0315774D03*
X0416536Y0299661D03*
X0400799Y0297986D03*
X0393036Y0302974D03*
X0377049Y0311424D03*
X0370836Y0303974D03*
X0358636Y0298574D03*
X0348124Y0304286D03*
X0342049Y0298924D03*
X0344211Y0290011D03*
X0340186Y0288124D03*
X0326874Y0297174D03*
X0311974Y0297874D03*
X0302349Y0297874D03*
X0319861Y0308611D03*
X0335574Y0313486D03*
X0337049Y0325174D03*
X0321424Y0332986D03*
X0327674Y0342361D03*
X0307674Y0347049D03*
X0301311Y0336311D03*
X0312049Y0326736D03*
X0301111Y0313924D03*
X0288436Y0326024D03*
X0275861Y0319386D03*
X0277161Y0337349D03*
X0276999Y0345386D03*
X0285174Y0352361D03*
X0263199Y0351011D03*
X0255511Y0348711D03*
X0253274Y0352724D03*
X0249011Y0345111D03*
X0257624Y0337124D03*
X0234836Y0349361D03*
X0219236Y0346111D03*
X0217674Y0341424D03*
X0191061Y0326699D03*
X0191061Y0315686D03*
X0190974Y0304674D03*
X0190974Y0293574D03*
X0190986Y0283186D03*
X0190886Y0272524D03*
X0190786Y0261861D03*
X0190811Y0252074D03*
X0190899Y0243911D03*
X0205611Y0244211D03*
X0216386Y0244211D03*
X0226074Y0244336D03*
X0226386Y0251936D03*
X0226136Y0261586D03*
X0232936Y0264686D03*
X0241336Y0264586D03*
X0249311Y0268186D03*
X0261811Y0268086D03*
X0262511Y0276186D03*
X0277611Y0267886D03*
X0288911Y0268086D03*
X0295411Y0264011D03*
X0293011Y0259686D03*
X0302199Y0253174D03*
X0311211Y0244411D03*
X0315799Y0247374D03*
X0332011Y0246736D03*
X0338711Y0256536D03*
X0352174Y0247411D03*
X0354274Y0233274D03*
X0361111Y0223924D03*
X0364236Y0220799D03*
X0357986Y0220174D03*
X0370799Y0229236D03*
X0376924Y0233486D03*
X0388611Y0232674D03*
X0404336Y0232649D03*
X0415574Y0233074D03*
X0415174Y0246111D03*
X0404049Y0247436D03*
X0388299Y0263611D03*
X0389861Y0268611D03*
X0390486Y0272674D03*
X0397936Y0275961D03*
X0405799Y0281424D03*
X0406636Y0286036D03*
X0395436Y0265661D03*
X0377674Y0268611D03*
X0368849Y0275386D03*
X0369049Y0284424D03*
X0353211Y0273311D03*
X0344524Y0275986D03*
X0332911Y0268636D03*
X0318811Y0270311D03*
X0318274Y0278211D03*
X0302636Y0274161D03*
X0311836Y0265161D03*
X0302036Y0242461D03*
X0315899Y0233574D03*
X0321311Y0228211D03*
X0324111Y0225011D03*
X0316999Y0221574D03*
X0319411Y0215811D03*
X0323174Y0215674D03*
X0326974Y0215636D03*
X0332311Y0214886D03*
X0338311Y0213911D03*
X0338411Y0210211D03*
X0340911Y0207111D03*
X0343311Y0209811D03*
X0346711Y0201749D03*
X0346711Y0192949D03*
X0355711Y0192986D03*
X0355711Y0201649D03*
X0382986Y0191736D03*
X0392986Y0191736D03*
X0403924Y0191736D03*
X0416136Y0190561D03*
X0383611Y0218611D03*
X0376724Y0247711D03*
X0337899Y0231274D03*
X0332411Y0233736D03*
X0336399Y0221474D03*
X0321711Y0209386D03*
X0326799Y0202474D03*
X0309211Y0195386D03*
X0319874Y0186086D03*
X0324136Y0191711D03*
X0323874Y0175899D03*
X0314774Y0174936D03*
X0296211Y0181061D03*
X0295624Y0191411D03*
X0281849Y0190361D03*
X0281199Y0205349D03*
X0289099Y0212874D03*
X0274311Y0215036D03*
X0263686Y0221424D03*
X0263811Y0230961D03*
X0264024Y0240961D03*
X0264024Y0250336D03*
X0264236Y0259299D03*
X0235586Y0236586D03*
X0243718Y0216891D03*
X0249636Y0209624D03*
X0249311Y0201761D03*
X0238449Y0201786D03*
X0231174Y0209486D03*
X0231249Y0213499D03*
X0221236Y0207961D03*
X0217724Y0206499D03*
X0225924Y0202186D03*
X0235561Y0187286D03*
X0242636Y0178249D03*
X0249986Y0172074D03*
X0249836Y0163661D03*
X0261861Y0163186D03*
X0263061Y0172486D03*
X0279486Y0159986D03*
X0282986Y0156024D03*
X0279861Y0150799D03*
X0275486Y0151736D03*
X0267986Y0153224D03*
X0280174Y0146111D03*
X0286111Y0146111D03*
X0289236Y0143611D03*
X0293299Y0141736D03*
X0288624Y0132586D03*
X0272036Y0128499D03*
X0264549Y0138611D03*
X0253836Y0128161D03*
X0243236Y0128461D03*
X0244486Y0138299D03*
X0232236Y0132049D03*
X0227861Y0126736D03*
X0233036Y0124661D03*
X0243936Y0114361D03*
X0250074Y0117111D03*
X0266236Y0116361D03*
X0260236Y0101461D03*
X0259049Y0092986D03*
X0272799Y0099861D03*
X0278761Y0103836D03*
X0289236Y0112049D03*
X0302386Y0118761D03*
X0319749Y0118136D03*
X0323849Y0126536D03*
X0339411Y0121211D03*
X0342986Y0119474D03*
X0331774Y0115949D03*
X0347774Y0108949D03*
X0351774Y0092649D03*
X0364074Y0086649D03*
X0379074Y0089149D03*
X0388074Y0094449D03*
X0395761Y0094511D03*
X0395611Y0082074D03*
X0388811Y0075274D03*
X0381611Y0068174D03*
X0371011Y0065474D03*
X0362311Y0062874D03*
X0354861Y0060424D03*
X0351386Y0069011D03*
X0351286Y0073611D03*
X0351086Y0078511D03*
X0329574Y0091749D03*
X0319861Y0081736D03*
X0312674Y0082049D03*
X0316111Y0075486D03*
X0316111Y0069861D03*
X0319549Y0063611D03*
X0312361Y0063611D03*
X0315611Y0058161D03*
X0315611Y0052861D03*
X0332111Y0048961D03*
X0340174Y0053236D03*
X0340486Y0061111D03*
X0336424Y0061111D03*
X0332361Y0061111D03*
X0339549Y0042924D03*
X0299811Y0049161D03*
X0299861Y0061736D03*
X0295799Y0061736D03*
X0291736Y0061736D03*
X0271236Y0065174D03*
X0262486Y0061736D03*
X0253511Y0056524D03*
X0240461Y0067011D03*
X0233999Y0056211D03*
X0222799Y0059861D03*
X0227799Y0070174D03*
X0241861Y0078611D03*
X0259049Y0083924D03*
X0259674Y0072361D03*
X0259986Y0068611D03*
X0272799Y0081736D03*
X0299399Y0082649D03*
X0315911Y0105411D03*
X0348611Y0132911D03*
X0345911Y0135411D03*
X0346811Y0139011D03*
X0349511Y0153811D03*
X0353411Y0157211D03*
X0357361Y0164236D03*
X0361424Y0164549D03*
X0365174Y0164549D03*
X0370799Y0168924D03*
X0355811Y0172674D03*
X0323761Y0159436D03*
X0315011Y0159574D03*
X0296149Y0159574D03*
X0315149Y0141836D03*
X0323449Y0142661D03*
X0364711Y0120311D03*
X0412911Y0133111D03*
X0414161Y0128611D03*
X0422461Y0131911D03*
X0431336Y0141224D03*
X0415736Y0143724D03*
X0399549Y0154549D03*
X0415686Y0161611D03*
X0434049Y0120624D03*
X0451336Y0121761D03*
X0448086Y0106199D03*
X0469661Y0103436D03*
X0462124Y0092549D03*
X0470086Y0088149D03*
X0482361Y0079236D03*
X0490174Y0082361D03*
X0494324Y0063199D03*
X0494949Y0043511D03*
X0484236Y0043924D03*
X0472049Y0043611D03*
X0460174Y0043324D03*
X0432486Y0055236D03*
X0418449Y0064936D03*
X0407049Y0067299D03*
X0399774Y0058674D03*
X0389574Y0053274D03*
X0382674Y0052974D03*
X0418436Y0087611D03*
X0418449Y0108786D03*
X0276111Y0045174D03*
X0276411Y0016711D03*
X0301511Y0016711D03*
X0326511Y0016811D03*
X0351411Y0016711D03*
X0376411Y0016711D03*
X0401511Y0016711D03*
X0426511Y0016711D03*
X0451411Y0016711D03*
X0476511Y0016711D03*
X0500911Y0016811D03*
X0526011Y0016811D03*
X0551511Y0016711D03*
X0576511Y0016711D03*
X0601411Y0016711D03*
X0640511Y0063611D03*
X0640611Y0088511D03*
X0640511Y0113511D03*
X0640511Y0138611D03*
X0640511Y0163511D03*
X0640511Y0188511D03*
X0640511Y0213611D03*
X0640511Y0238511D03*
X0640511Y0263511D03*
X0640511Y0288611D03*
X0640511Y0313511D03*
X0622049Y0321736D03*
X0640511Y0338511D03*
X0616424Y0342674D03*
X0611424Y0342674D03*
X0595411Y0342936D03*
X0593924Y0337361D03*
X0592674Y0327986D03*
X0586736Y0323611D03*
X0582986Y0327049D03*
X0588299Y0316736D03*
X0593924Y0317361D03*
X0574349Y0316011D03*
X0576111Y0308611D03*
X0563424Y0308299D03*
X0563349Y0315911D03*
X0551424Y0319861D03*
X0547049Y0319549D03*
X0551424Y0324549D03*
X0548924Y0333299D03*
X0549236Y0338299D03*
X0551224Y0342974D03*
X0576636Y0346299D03*
X0576636Y0350886D03*
X0576636Y0355361D03*
X0576636Y0359936D03*
X0576736Y0364424D03*
X0576636Y0369124D03*
X0582674Y0362986D03*
X0596111Y0364236D03*
X0584236Y0380486D03*
X0571424Y0382049D03*
X0569236Y0390799D03*
X0552049Y0398611D03*
X0551811Y0404311D03*
X0576811Y0404311D03*
X0601711Y0404311D03*
X0551111Y0386736D03*
X0549861Y0377674D03*
X0549549Y0372674D03*
X0551424Y0368174D03*
X0640511Y0363611D03*
X0551136Y0299461D03*
X0560999Y0290474D03*
X0591111Y0294549D03*
X0536336Y0266961D03*
X0500649Y0266711D03*
X0461436Y0245661D03*
X0467336Y0233861D03*
X0393136Y0314874D03*
X0393136Y0328774D03*
X0378936Y0330674D03*
X0365224Y0327074D03*
X0360624Y0323874D03*
X0360736Y0331474D03*
X0365424Y0335874D03*
X0352986Y0339236D03*
X0365311Y0347449D03*
X0378736Y0355974D03*
X0365311Y0360411D03*
X0365411Y0370536D03*
X0379236Y0373774D03*
X0395486Y0368149D03*
X0409361Y0373324D03*
X0393036Y0355886D03*
X0392949Y0342636D03*
X0350724Y0374774D03*
X0260174Y0376424D03*
X0250799Y0372049D03*
X0216249Y0324024D03*
X0211111Y0305886D03*
X0239849Y0300324D03*
X0233986Y0281436D03*
X0177024Y0273236D03*
X0171399Y0273236D03*
X0166086Y0273236D03*
X0167649Y0256674D03*
X0167024Y0241286D03*
X0162361Y0237299D03*
X0167024Y0233236D03*
X0167111Y0225636D03*
X0171711Y0225736D03*
X0176399Y0225736D03*
X0186974Y0224774D03*
X0199624Y0225436D03*
X0199124Y0207349D03*
X0195911Y0203811D03*
X0199124Y0199949D03*
X0187274Y0204074D03*
X0187136Y0188374D03*
X0199486Y0187886D03*
X0216361Y0185186D03*
X0207099Y0175174D03*
X0187949Y0175336D03*
X0172886Y0166449D03*
X0151561Y0169424D03*
X0157799Y0189074D03*
X0119299Y0188074D03*
X0120299Y0175374D03*
X0105386Y0160824D03*
X0117261Y0154886D03*
X0097261Y0150824D03*
X0097261Y0141761D03*
X0105386Y0134574D03*
X0088199Y0129886D03*
X0090699Y0117699D03*
X0083199Y0110511D03*
X0062261Y0119886D03*
X0060074Y0130199D03*
X0042886Y0119574D03*
X0039449Y0129261D03*
X0016611Y0138611D03*
X0045999Y0156474D03*
X0056499Y0148574D03*
X0083399Y0174974D03*
X0074799Y0186374D03*
X0016611Y0188511D03*
X0016611Y0163511D03*
X0016611Y0113511D03*
X0042261Y0104261D03*
X0041636Y0086761D03*
X0059136Y0085199D03*
X0057049Y0067461D03*
X0044049Y0065561D03*
X0016611Y0063611D03*
X0016711Y0088511D03*
X0081011Y0088011D03*
X0085074Y0088011D03*
X0084761Y0063324D03*
X0077249Y0046761D03*
X0065249Y0041061D03*
X0083549Y0033961D03*
X0097549Y0033761D03*
X0101749Y0026561D03*
X0107249Y0026561D03*
X0112349Y0026661D03*
X0117649Y0021961D03*
X0125349Y0021961D03*
X0126411Y0016711D03*
X0101511Y0016711D03*
X0076511Y0016711D03*
X0051411Y0016711D03*
X0096149Y0046561D03*
X0124849Y0046461D03*
X0131249Y0034361D03*
X0135449Y0034361D03*
X0147449Y0045961D03*
X0156949Y0064886D03*
X0157261Y0073949D03*
X0186636Y0074261D03*
X0190699Y0079261D03*
X0194449Y0073949D03*
X0203736Y0070799D03*
X0206424Y0058086D03*
X0186324Y0065199D03*
X0195611Y0083736D03*
X0194911Y0092611D03*
X0194711Y0100411D03*
X0186711Y0097911D03*
X0166324Y0098949D03*
X0156949Y0111761D03*
X0141636Y0114574D03*
X0147886Y0124574D03*
X0148199Y0133636D03*
X0135386Y0133324D03*
X0133199Y0123949D03*
X0106011Y0117074D03*
X0112574Y0093636D03*
X0112574Y0082386D03*
X0186424Y0038986D03*
X0197674Y0040861D03*
X0207674Y0040549D03*
X0217674Y0040549D03*
X0208299Y0028986D03*
X0201411Y0016711D03*
X0176511Y0016711D03*
X0151511Y0016711D03*
X0226511Y0016711D03*
X0251511Y0016711D03*
X0210811Y0092911D03*
X0213424Y0096749D03*
X0210311Y0100511D03*
X0218174Y0110174D03*
X0229424Y0111111D03*
X0237861Y0103299D03*
X0240711Y0099061D03*
X0232711Y0099561D03*
X0199736Y0114236D03*
X0198799Y0121111D03*
X0190899Y0120586D03*
X0198211Y0130399D03*
X0209824Y0140199D03*
X0214424Y0140799D03*
X0209861Y0149511D03*
X0219836Y0149561D03*
X0226999Y0155736D03*
X0231124Y0146486D03*
X0243036Y0157761D03*
X0235811Y0164649D03*
X0249761Y0188499D03*
X0262486Y0199049D03*
X0262299Y0211924D03*
X0288524Y0228174D03*
X0303886Y0227199D03*
X0190061Y0149811D03*
X0179449Y0146136D03*
X0156636Y0143324D03*
X0141324Y0144261D03*
X0016611Y0213611D03*
X0016611Y0238511D03*
X0030761Y0251249D03*
X0029524Y0263236D03*
X0029524Y0271049D03*
X0016611Y0263511D03*
X0016611Y0288611D03*
X0029524Y0297611D03*
X0029524Y0304486D03*
X0029524Y0311674D03*
X0016611Y0313511D03*
X0016611Y0338511D03*
X0016611Y0363611D03*
X0051711Y0404311D03*
X0120799Y0278624D03*
X0122649Y0275424D03*
X0118899Y0275424D03*
X0130149Y0269486D03*
X0133586Y0269486D03*
X0137024Y0269486D03*
X0137024Y0255736D03*
X0133586Y0255736D03*
X0130149Y0255736D03*
X0122399Y0250424D03*
X0118899Y0250424D03*
X0109524Y0246049D03*
X0097024Y0240736D03*
X0077911Y0231136D03*
X0072911Y0231136D03*
X0067911Y0231136D03*
X0062911Y0231136D03*
X0139124Y0245936D03*
X0139124Y0249436D03*
X0149524Y0252611D03*
D22*
X0370678Y0142424D03*
D23*
X0364178Y0135924D03*
X0377553Y0135674D03*
X0377428Y0149174D03*
X0364053Y0149174D03*
X0109444Y0138636D03*
X0075069Y0121136D03*
X0068824Y0098636D03*
D24*
X0346849Y0142661D03*
D25*
X0488411Y0328611D03*
X0488511Y0333511D03*
X0488511Y0338411D03*
X0488511Y0343311D03*
X0488511Y0348311D03*
X0488511Y0353211D03*
X0525111Y0363111D03*
X0525011Y0367911D03*
X0525011Y0372811D03*
X0525011Y0377811D03*
X0543711Y0377811D03*
X0543711Y0372811D03*
X0543711Y0387611D03*
X0543711Y0392511D03*
X0543711Y0397511D03*
X0543711Y0402411D03*
X0488411Y0402511D03*
X0543811Y0338411D03*
X0543811Y0333511D03*
X0543811Y0328611D03*
D26*
X0355486Y0329861D03*
X0307049Y0284861D03*
X0327811Y0197261D03*
X0289874Y0191461D03*
X0188149Y0144699D03*
X0138194Y0163636D03*
X0122569Y0078949D03*
X0219361Y0075174D03*
X0324524Y0120236D03*
X0361303Y0096799D03*
X0382436Y0095125D03*
D27*
X0457361Y0293611D03*
X0343099Y0294899D03*
X0073194Y0113324D03*
D28*
X0409236Y0171424D03*
D29*
X0409236Y0239236D03*
X0255867Y0205649D03*
X0151111Y0181811D03*
X0079411Y0040011D03*
D30*
X0193211Y0181736D03*
X0193211Y0232924D03*
M02*
